<svg width="62" height="62" viewBox="0 0 62 62" fill="none" xmlns="http://www.w3.org/2000/svg">
<rect width="62" height="62" rx="6" fill="#1384B3"/>
<mask id="mask0_14497_90552" style="mask-type:alpha" maskUnits="userSpaceOnUse" x="10" y="10" width="42" height="42">
<rect x="10" y="10" width="42" height="42" fill="#D9D9D9"/>
</mask>
<g mask="url(#mask0_14497_90552)">
<path d="M30.9968 47.6222C27.2499 47.6222 24.1262 46.3352 21.6257 43.7611C19.1252 41.1871 17.875 37.9833 17.875 34.1496C17.875 32.4519 18.2598 30.7485 19.0293 29.0395C19.7989 27.3306 20.7608 25.6905 21.9151 24.1194C23.0695 22.5482 24.318 21.0703 25.6608 19.6857C27.0036 18.3011 28.2504 17.0965 29.4014 16.0718C29.6235 15.8609 29.873 15.7044 30.1498 15.6023C30.4266 15.5003 30.71 15.4492 31 15.4492C31.2899 15.4492 31.5733 15.5003 31.8502 15.6023C32.1269 15.7044 32.3764 15.8609 32.5985 16.0718C33.7495 17.0965 34.9963 18.3011 36.3391 19.6857C37.6819 21.0703 38.9304 22.5482 40.0848 24.1194C41.2391 25.6905 42.201 27.3306 42.9706 29.0395C43.7401 30.7485 44.1249 32.4519 44.1249 34.1496C44.1249 37.9833 42.8736 41.1871 40.3711 43.7611C37.8686 46.3352 34.7438 47.6222 30.9968 47.6222ZM31 44.9972C34.0333 44.9972 36.5416 43.9691 38.525 41.9128C40.5083 39.8566 41.5 37.2681 41.5 34.1472C41.5 32.0181 40.6177 29.6118 38.8531 26.9285C37.0885 24.2451 34.4708 21.3139 31 18.1347C27.5291 21.3139 24.9114 24.2451 23.1468 26.9285C21.3822 29.6118 20.5 32.0181 20.5 34.1472C20.5 37.2681 21.4916 39.8566 23.475 41.9128C25.4583 43.9691 27.9666 44.9972 31 44.9972ZM27.5 41.0597H34.5C34.8718 41.0597 35.1835 40.9339 35.4351 40.6822C35.6866 40.4305 35.8124 40.1187 35.8124 39.7467C35.8124 39.3746 35.6866 39.0629 35.4351 38.8117C35.1835 38.5604 34.8718 38.4348 34.5 38.4348H27.5C27.1281 38.4348 26.8164 38.5606 26.5648 38.8122C26.3133 39.0639 26.1875 39.3758 26.1875 39.7478C26.1875 40.1198 26.3133 40.4315 26.5648 40.6828C26.8164 40.934 27.1281 41.0597 27.5 41.0597ZM29.6875 32.3097V34.4972C29.6875 34.8691 29.8133 35.1808 30.065 35.4323C30.3167 35.6839 30.6285 35.8097 31.0005 35.8097C31.3726 35.8097 31.6842 35.6839 31.9355 35.4323C32.1868 35.1808 32.3124 34.8691 32.3124 34.4972V32.3097H34.5C34.8718 32.3097 35.1835 32.1839 35.4351 31.9322C35.6866 31.6805 35.8124 31.3687 35.8124 30.9967C35.8124 30.6246 35.6866 30.3129 35.4351 30.0617C35.1835 29.8104 34.8718 29.6848 34.5 29.6848H32.3124V27.4972C32.3124 27.1253 32.1866 26.8136 31.9349 26.5621C31.6833 26.3105 31.3714 26.1848 30.9994 26.1848C30.6273 26.1848 30.3157 26.3105 30.0644 26.5621C29.8131 26.8136 29.6875 27.1253 29.6875 27.4972V29.6848H27.5C27.1281 29.6848 26.8164 29.8106 26.5648 30.0622C26.3133 30.3139 26.1875 30.6258 26.1875 30.9978C26.1875 31.3698 26.3133 31.6815 26.5648 31.9328C26.8164 32.184 27.1281 32.3097 27.5 32.3097H29.6875Z" fill="white"/>
</g>
</svg>
