<svg xmlns="http://www.w3.org/2000/svg" width="11" height="16" viewBox="0 0 11 16" fill="none">
  <path d="M5.21068 8.00313C5.06745 7.50313 5.07031 6.5375 5.15339 6.5375C5.39401 6.5375 5.37109 7.69063 5.21068 8.00313ZM5.16198 9.47812C4.94141 10.1094 4.66641 10.8313 4.34844 11.4375C4.87266 11.2188 5.46562 10.9 6.15026 10.7531C5.78646 10.4531 5.43698 10.0219 5.16198 9.47812ZM2.46641 13.3781C2.46641 13.4031 2.84453 13.2094 3.46615 12.1219C3.27422 12.3187 2.63255 12.8875 2.46641 13.3781ZM7.10417 5H11V15.25C11 15.6656 10.6935 16 10.3125 16H0.6875C0.30651 16 0 15.6656 0 15.25V0.75C0 0.334375 0.30651 0 0.6875 0H6.41667V4.25C6.41667 4.6625 6.72604 5 7.10417 5ZM6.875 10.3687C6.30208 9.9875 5.92109 9.4625 5.65182 8.6875C5.78073 8.10938 5.98411 7.23125 5.82943 6.68125C5.69479 5.7625 4.61484 5.85313 4.46016 6.46875C4.31693 7.04063 4.4487 7.84688 4.69219 8.875C4.3599 9.7375 3.87005 10.8937 3.52344 11.5562C3.52057 11.5562 3.52057 11.5594 3.51771 11.5594C2.74141 11.9937 1.40938 12.95 1.95651 13.6844C2.11693 13.9 2.41484 13.9969 2.5724 13.9969C3.08516 13.9969 3.59505 13.4344 4.32266 12.0656C5.06172 11.8 5.8724 11.4688 6.58568 11.3406C7.20729 11.7094 7.9349 11.95 8.41901 11.95C9.25547 11.95 9.31276 10.95 8.98333 10.5938C8.58516 10.1687 7.42786 10.2906 6.875 10.3687ZM10.7995 3.28125L7.99219 0.21875C7.86328 0.078125 7.68854 0 7.50521 0H7.33333V4H11V3.80938C11 3.6125 10.9284 3.42188 10.7995 3.28125ZM8.67682 11.2594C8.79427 11.175 8.60521 10.8875 7.45078 10.9781C8.51354 11.4719 8.67682 11.2594 8.67682 11.2594Z" fill="#72A3D0"/>
</svg>