<svg width="54" height="54" viewBox="0 0 54 54" fill="none" xmlns="http://www.w3.org/2000/svg">
<mask id="mask0_50505_102405" style="mask-type:alpha" maskUnits="userSpaceOnUse" x="0" y="0" width="54" height="54">
<rect width="54" height="54" fill="#D9D9D9"/>
</mask>
<g mask="url(#mask0_50505_102405)">
<path d="M11.25 47.25C10.0125 47.25 8.95313 46.8094 8.07188 45.9281C7.19063 45.0469 6.75 43.9875 6.75 42.75V14.625C6.75 14.0625 6.84375 13.5563 7.03125 13.1063C7.21875 12.6563 7.4625 12.225 7.7625 11.8125L10.9125 7.9875C11.2125 7.575 11.5875 7.26563 12.0375 7.05938C12.4875 6.85313 12.975 6.75 13.5 6.75H40.5C41.025 6.75 41.5125 6.85313 41.9625 7.05938C42.4125 7.26563 42.7875 7.575 43.0875 7.9875L46.2375 11.8125C46.5375 12.225 46.7812 12.6563 46.9688 13.1063C47.1563 13.5563 47.25 14.0625 47.25 14.625V42.75C47.25 43.9875 46.8094 45.0469 45.9281 45.9281C45.0469 46.8094 43.9875 47.25 42.75 47.25H11.25ZM12.15 13.5H41.85L39.9375 11.25H14.0625L12.15 13.5ZM27 40.5L36 31.5L32.85 28.35L29.25 31.95V22.5H24.75V31.95L21.15 28.35L18 31.5L27 40.5Z" fill="#FF1E1E"/>
</g>
</svg>
