<svg width="50" height="50" viewBox="0 0 50 50" fill="none" xmlns="http://www.w3.org/2000/svg">
<rect width="50" height="50" rx="6" fill="#1384B3"/>
<mask id="mask0_42475_208389" style="mask-type:alpha" maskUnits="userSpaceOnUse" x="4" y="4" width="42" height="42">
<rect x="4" y="4" width="42" height="42" fill="#D9D9D9"/>
</mask>
<g mask="url(#mask0_42475_208389)">
<mask id="mask1_42475_208389" style="mask-type:alpha" maskUnits="userSpaceOnUse" x="11" y="11" width="28" height="28">
<rect x="11" y="11" width="28" height="28" fill="#D9D9D9"/>
</mask>
<g mask="url(#mask1_42475_208389)">
<path d="M29.4618 25.3062C29.3407 25.3062 29.2262 25.2886 29.1185 25.2535C29.0108 25.2183 28.9121 25.1596 28.8224 25.0773C27.1801 23.628 25.7767 22.2377 24.6123 20.9065C23.4479 19.5753 22.8657 18.3421 22.8657 17.2068C22.8657 16.2301 23.1996 15.4079 23.8674 14.74C24.5353 14.0722 25.3575 13.7383 26.3342 13.7383C26.9191 13.7383 27.4818 13.877 28.0225 14.1545C28.5632 14.4319 29.043 14.8317 29.4618 15.3537C29.8806 14.8317 30.3604 14.4319 30.9011 14.1545C31.4418 13.877 32.0045 13.7383 32.5894 13.7383C33.5661 13.7383 34.3883 14.0722 35.0562 14.74C35.724 15.4079 36.0579 16.2301 36.0579 17.2068C36.0579 18.3421 35.4757 19.5753 34.3113 20.9065C33.1469 22.2377 31.7435 23.628 30.1012 25.0773C30.019 25.1596 29.9221 25.2183 29.8107 25.2535C29.6992 25.2886 29.5829 25.3062 29.4618 25.3062ZM29.4618 23.2646C30.6988 22.1532 31.8157 21.0486 32.8126 19.9508C33.8095 18.8529 34.308 17.9383 34.308 17.2068C34.308 16.7073 34.1464 16.2959 33.8233 15.9729C33.5003 15.6498 33.0889 15.4883 32.5894 15.4883C32.2947 15.4883 31.9922 15.5604 31.6818 15.7048C31.3715 15.8491 31.0652 16.118 30.7631 16.5114L29.4618 18.0953L28.1605 16.5114C27.8584 16.118 27.5521 15.8491 27.2418 15.7048C26.9314 15.5604 26.6289 15.4883 26.3342 15.4883C25.8347 15.4883 25.4233 15.6498 25.1003 15.9729C24.7772 16.2959 24.6156 16.7073 24.6156 17.2068C24.6156 17.9383 25.1141 18.8529 26.111 19.9508C27.1079 21.0486 28.2248 22.1532 29.4618 23.2646ZM26.9692 34.7674C27.0066 34.7824 27.0402 34.7898 27.0701 34.7898C27.1 34.7898 27.1337 34.7824 27.1711 34.7674L34.0342 32.6427C33.9744 32.378 33.8503 32.1749 33.6618 32.0336C33.4733 31.8923 33.2624 31.8216 33.0291 31.8216H27.317C26.8069 31.8216 26.3739 31.8003 26.0179 31.7576C25.6619 31.715 25.2962 31.6316 24.9208 31.5075L23.09 30.9084C22.8537 30.8337 22.6843 30.6841 22.5818 30.4597C22.4794 30.2354 22.4656 30.005 22.5403 29.7687C22.6151 29.5399 22.7598 29.3712 22.9745 29.2628C23.1891 29.1544 23.4146 29.1375 23.6509 29.2123L25.1676 29.744C25.5206 29.8562 25.9154 29.9359 26.3522 29.983C26.7889 30.0301 27.3558 30.0597 28.0528 30.0716H28.3624C28.3624 29.7829 28.2974 29.5339 28.1673 29.3245C28.0371 29.1151 27.8659 28.9737 27.6535 28.9005L20.8846 26.4146C20.8621 26.4071 20.8416 26.4015 20.8229 26.3977C20.8042 26.394 20.7836 26.3921 20.7612 26.3921H18.6028V32.4049L26.9692 34.7674ZM26.5137 36.4815L18.6028 34.2132C18.4697 34.6963 18.199 35.0841 17.7906 35.3765C17.3823 35.6689 16.95 35.8151 16.4939 35.8151H14.8785C14.2967 35.8151 13.7997 35.6091 13.3877 35.197C12.9756 34.7849 12.7695 34.288 12.7695 33.7062V26.7511C12.7695 26.1693 12.9756 25.6723 13.3876 25.2603C13.7997 24.8482 14.2966 24.6422 14.8785 24.6422H20.7499C20.8711 24.6422 20.9941 24.6549 21.119 24.6803C21.2439 24.7057 21.3609 24.7379 21.4701 24.7768L28.2682 27.2806C28.7976 27.4766 29.2374 27.8232 29.5874 28.3205C29.9374 28.8178 30.1124 29.4015 30.1124 30.0716H33.0291C33.8667 30.0716 34.5491 30.342 35.0763 30.8827C35.6036 31.4234 35.8672 32.1252 35.8672 32.9883C35.8672 33.3188 35.7797 33.585 35.6047 33.787C35.4297 33.9889 35.165 34.1489 34.8105 34.2671L27.732 36.4636C27.5405 36.5264 27.3394 36.5596 27.1285 36.5634C26.9176 36.5671 26.7127 36.5398 26.5137 36.4815ZM14.5195 33.7062C14.5195 33.8109 14.5532 33.8969 14.6205 33.9642C14.6878 34.0315 14.7738 34.0652 14.8785 34.0652H16.4939C16.5986 34.0652 16.6846 34.0371 16.7519 33.981C16.8192 33.9249 16.8528 33.8333 16.8528 33.7062V26.3921H14.8785C14.7738 26.3921 14.6878 26.4258 14.6205 26.4931C14.5532 26.5604 14.5195 26.6464 14.5195 26.7511V33.7062Z" fill="white"/>
</g>
</g>
</svg>
