<svg xmlns="http://www.w3.org/2000/svg" width="50" height="50" viewBox="0 0 50 50" fill="none">
    <rect width="50" height="50" rx="6" fill="#1384B3" />
    <mask id="mask0_42480_96627" style="mask-type:alpha" maskUnits="userSpaceOnUse" x="4" y="4"
        width="42" height="42">
        <rect x="4" y="4" width="42" height="42" fill="#D9D9D9" />
    </mask>
    <g mask="url(#mask0_42480_96627)">
        <path
            d="M29.4722 36.0684C26.2505 36.0684 23.5216 34.9504 21.2856 32.7144C19.0496 30.4784 17.9316 27.7496 17.9316 24.5278C17.9316 21.3301 19.0496 18.6094 21.2856 16.3656C23.5216 14.1219 26.2505 13 29.4722 13C32.6699 13 35.3906 14.1219 37.6344 16.3656C39.8781 18.6094 41 21.3301 41 24.5278C41 27.7496 39.8781 30.4784 37.6344 32.7144C35.3906 34.9504 32.6699 36.0684 29.4722 36.0684ZM29.4658 33.7616C32.029 33.7616 34.2077 32.8645 36.0019 31.0703C37.7961 29.2761 38.6932 27.0974 38.6932 24.5342C38.6932 21.971 37.7961 19.7924 36.0019 17.9981C34.2077 16.2039 32.029 15.3068 29.4658 15.3068C26.9027 15.3068 24.724 16.2039 22.9298 17.9981C21.1355 19.7924 20.2384 21.971 20.2384 24.5342C20.2384 27.0974 21.1355 29.2761 22.9298 31.0703C24.724 32.8645 26.9027 33.7616 29.4658 33.7616ZM33.1124 29.8636L34.7567 28.2192L30.6192 24.0817V18.6192H28.3124V25.0251L33.1124 29.8636ZM10.5379 19.536V17.2292H16.3937V19.536H10.5379ZM9 25.6876V23.3808H16.3937V25.6876H9ZM10.5379 31.8392V29.5324H16.3937V31.8392H10.5379Z"
            fill="white" />
    </g>
</svg>