<svg xmlns="http://www.w3.org/2000/svg" width="50" height="50" viewBox="0 0 50 50" fill="none">
    <rect width="50" height="50" rx="6" fill="#1384B3" />
    <mask id="mask0_42480_96621" style="mask-type:alpha" maskUnits="userSpaceOnUse" x="4" y="4"
        width="42" height="42">
        <rect x="4" y="4" width="42" height="42" fill="#D9D9D9" />
    </mask>
    <g mask="url(#mask0_42480_96621)">
        <path
            d="M25 39C23.0633 39 21.2433 38.6325 19.54 37.8975C17.8367 37.1625 16.355 36.165 15.095 34.905C13.835 33.645 12.8375 32.1633 12.1025 30.46C11.3675 28.7567 11 26.9367 11 25C11 23.0633 11.3675 21.2433 12.1025 19.54C12.8375 17.8367 13.835 16.355 15.095 15.095C16.355 13.835 17.8367 12.8375 19.54 12.1025C21.2433 11.3675 23.0633 11 25 11C26.9367 11 28.7567 11.3675 30.46 12.1025C32.1633 12.8375 33.645 13.835 34.905 15.095C36.165 16.355 37.1625 17.8367 37.8975 19.54C38.6325 21.2433 39 23.0633 39 25C39 26.9367 38.6325 28.7567 37.8975 30.46C37.1625 32.1633 36.165 33.645 34.905 34.905C33.645 36.165 32.1633 37.1625 30.46 37.8975C28.7567 38.6325 26.9367 39 25 39ZM25 36.2C28.1267 36.2 30.775 35.115 32.945 32.945C35.115 30.775 36.2 28.1267 36.2 25C36.2 21.8733 35.115 19.225 32.945 17.055C30.775 14.885 28.1267 13.8 25 13.8C21.8733 13.8 19.225 14.885 17.055 17.055C14.885 19.225 13.8 21.8733 13.8 25C13.8 28.1267 14.885 30.775 17.055 32.945C19.225 35.115 21.8733 36.2 25 36.2ZM25 33.4C22.6667 33.4 20.6833 32.5833 19.05 30.95C17.4167 29.3167 16.6 27.3333 16.6 25C16.6 22.6667 17.4167 20.6833 19.05 19.05C20.6833 17.4167 22.6667 16.6 25 16.6C27.3333 16.6 29.3167 17.4167 30.95 19.05C32.5833 20.6833 33.4 22.6667 33.4 25C33.4 27.3333 32.5833 29.3167 30.95 30.95C29.3167 32.5833 27.3333 33.4 25 33.4ZM25 30.6C26.54 30.6 27.8583 30.0517 28.955 28.955C30.0517 27.8583 30.6 26.54 30.6 25C30.6 23.46 30.0517 22.1417 28.955 21.045C27.8583 19.9483 26.54 19.4 25 19.4C23.46 19.4 22.1417 19.9483 21.045 21.045C19.9483 22.1417 19.4 23.46 19.4 25C19.4 26.54 19.9483 27.8583 21.045 28.955C22.1417 30.0517 23.46 30.6 25 30.6ZM25 27.8C24.23 27.8 23.5708 27.5258 23.0225 26.9775C22.4742 26.4292 22.2 25.77 22.2 25C22.2 24.23 22.4742 23.5708 23.0225 23.0225C23.5708 22.4742 24.23 22.2 25 22.2C25.77 22.2 26.4292 22.4742 26.9775 23.0225C27.5258 23.5708 27.8 24.23 27.8 25C27.8 25.77 27.5258 26.4292 26.9775 26.9775C26.4292 27.5258 25.77 27.8 25 27.8Z"
            fill="white" />
    </g>
</svg>