<svg width="91" height="91" viewBox="0 0 91 91" fill="none" xmlns="http://www.w3.org/2000/svg">
<g id="Alert">
<g id="Group 1707478896">
<circle id="Ellipse 1164" cx="46" cy="45" r="44" fill="#387DE5"/>
<g id="event_repeat">
<mask id="mask0_22060_283705" style="mask-type:alpha" maskUnits="userSpaceOnUse" x="19" y="18" width="54" height="54">
<rect id="Bounding box" x="19" y="18" width="54" height="54" fill="#D9D9D9"/>
</mask>
<g mask="url(#mask0_22060_283705)">
<path id="event_repeat_2" d="M30.9423 66.3747C29.8058 66.3747 28.8438 65.981 28.0563 65.1935C27.2688 64.406 26.875 63.4439 26.875 62.3074V32.1922C26.875 31.0556 27.2688 30.0936 28.0563 29.3061C28.8438 28.5186 29.8058 28.1248 30.9423 28.1248H34.0577V25.0959C34.0577 24.6056 34.2239 24.1945 34.5562 23.8628C34.8885 23.5311 35.3003 23.3652 35.7915 23.3652C36.2827 23.3652 36.6935 23.5311 37.0238 23.8628C37.3541 24.1945 37.5192 24.6056 37.5192 25.0959V28.1248H54.5672V25.0527C54.5672 24.5746 54.729 24.1738 55.0526 23.8503C55.3761 23.5269 55.7771 23.3652 56.2554 23.3652C56.7338 23.3652 57.1344 23.5269 57.4575 23.8503C57.7806 24.1738 57.9422 24.5746 57.9422 25.0527V28.1248H61.0576C62.1941 28.1248 63.1561 28.5186 63.9436 29.3061C64.7311 30.0936 65.1249 31.0556 65.1249 32.1922V43.6585C65.1249 44.1366 64.9631 44.5374 64.6395 44.8608C64.3159 45.1842 63.915 45.3459 63.4367 45.3459C62.9583 45.3459 62.5576 45.1842 62.2345 44.8608C61.9115 44.5374 61.7499 44.1366 61.7499 43.6585V41.1922H30.2499V62.3074C30.2499 62.4805 30.3221 62.6392 30.4663 62.7834C30.6105 62.9277 30.7692 62.9998 30.9423 62.9998H44.637C45.1151 62.9998 45.5159 63.1616 45.8393 63.4852C46.1628 63.8087 46.3245 64.2097 46.3245 64.688C46.3245 65.1663 46.1628 65.567 45.8393 65.8901C45.5159 66.2132 45.1151 66.3747 44.637 66.3747H30.9423ZM61.7499 71.6536C59.4563 71.6536 57.4045 71.0168 55.5946 69.7432C53.7847 68.4697 52.4673 66.8291 51.6423 64.8214C51.4836 64.481 51.5089 64.15 51.718 63.8284C51.9271 63.5068 52.2168 63.3459 52.5869 63.3459C53.0187 63.3459 53.4069 63.4729 53.7516 63.7267C54.0963 63.9806 54.3711 64.308 54.5759 64.7089C55.2653 65.9955 56.2425 67.0274 57.5074 67.8048C58.7723 68.5822 60.1865 68.9709 61.7499 68.9709C64.0206 68.9709 65.9584 68.1684 67.5635 66.5633C69.1686 64.9582 69.9711 63.0204 69.9711 60.7498C69.9711 58.4791 69.1686 56.5413 67.5635 54.9362C65.9584 53.3311 64.0206 52.5286 61.7499 52.5286C60.5182 52.5286 59.3543 52.794 58.2581 53.3248C57.1619 53.8555 56.2071 54.5709 55.3936 55.4709H57.8124C58.1999 55.4709 58.5204 55.5975 58.7737 55.8507C59.0271 56.1039 59.1538 56.4241 59.1538 56.8113C59.1538 57.1984 59.0271 57.519 58.7737 57.7729C58.5204 58.0267 58.1999 58.1536 57.8124 58.1536H52.8798C52.3036 58.1536 51.8206 57.9587 51.4308 57.569C51.041 57.1791 50.8461 56.6961 50.8461 56.1199V51.1873C50.8461 50.7998 50.9727 50.4794 51.2259 50.226C51.4791 49.9726 51.7992 49.8459 52.1864 49.8459C52.5736 49.8459 52.8942 49.9726 53.148 50.226C53.4019 50.4794 53.5288 50.7998 53.5288 51.1873V53.5282C54.5701 52.4234 55.8018 51.5335 57.224 50.8584C58.6461 50.1834 60.1547 49.8459 61.7499 49.8459C64.7667 49.8459 67.3382 50.9091 69.4644 53.0353C71.5907 55.1616 72.6538 57.733 72.6538 60.7498C72.6538 63.7665 71.5907 66.338 69.4644 68.4642C67.3382 70.5905 64.7667 71.6536 61.7499 71.6536ZM30.2499 37.8172H61.7499V32.1922C61.7499 32.0191 61.6778 31.8604 61.5336 31.7161C61.3893 31.5719 61.2307 31.4998 61.0576 31.4998H30.9423C30.7692 31.4998 30.6105 31.5719 30.4663 31.7161C30.3221 31.8604 30.2499 32.0191 30.2499 32.1922V37.8172Z" fill="white"/>
</g>
</g>
</g>
</g>
</svg>
