<svg width="24" height="24" viewBox="0 0 24 24" fill="none" xmlns="http://www.w3.org/2000/svg">
    <g id="event_repeat">
        <mask id="mask0_42143_64985" style="mask-type:alpha" maskUnits="userSpaceOnUse" x="0" y="0"
            width="24" height="24">
            <rect id="Bounding box" width="24" height="24" fill="#D9D9D9" />
        </mask>
        <g mask="url(#mask0_42143_64985)">
            <path id="event_repeat_2"
                d="M5.3077 21.4981C4.80257 21.4981 4.375 21.3231 4.025 20.9731C3.675 20.6231 3.5 20.1956 3.5 19.6904V6.30589C3.5 5.80076 3.675 5.37319 4.025 5.02319C4.375 4.67319 4.80257 4.49819 5.3077 4.49819H6.69232V3.15201C6.69232 2.93408 6.76617 2.7514 6.91387 2.60396C7.06156 2.45653 7.24457 2.38281 7.4629 2.38281C7.68122 2.38281 7.86378 2.45653 8.01058 2.60396C8.15736 2.7514 8.23075 2.93408 8.23075 3.15201V4.49819H15.8077V3.13279C15.8077 2.92029 15.8796 2.74216 16.0234 2.59841C16.1672 2.45468 16.3454 2.38281 16.558 2.38281C16.7706 2.38281 16.9486 2.45468 17.0922 2.59841C17.2358 2.74216 17.3076 2.92029 17.3076 3.13279V4.49819H18.6922C19.1974 4.49819 19.625 4.67319 19.975 5.02319C20.325 5.37319 20.5 5.80076 20.5 6.30589V11.402C20.5 11.6145 20.428 11.7927 20.2842 11.9364C20.1404 12.0801 19.9622 12.152 19.7496 12.152C19.537 12.152 19.3589 12.0801 19.2154 11.9364C19.0718 11.7927 19 11.6145 19 11.402V10.3059H4.99997V19.6904C4.99997 19.7674 5.03202 19.8379 5.09612 19.902C5.16024 19.9661 5.23077 19.9982 5.3077 19.9982H11.3942C11.6067 19.9982 11.7848 20.0701 11.9286 20.2139C12.0723 20.3577 12.1442 20.5359 12.1442 20.7485C12.1442 20.9611 12.0723 21.1392 11.9286 21.2827C11.7848 21.4263 11.6067 21.4981 11.3942 21.4981H5.3077ZM19 23.8443C17.9806 23.8443 17.0686 23.5613 16.2642 22.9953C15.4599 22.4292 14.8743 21.7001 14.5077 20.8078C14.4372 20.6565 14.4484 20.5094 14.5413 20.3664C14.6343 20.2235 14.763 20.152 14.9275 20.152C15.1194 20.152 15.292 20.2084 15.4452 20.3212C15.5984 20.4341 15.7205 20.5796 15.8115 20.7578C16.1179 21.3296 16.5522 21.7882 17.1144 22.1337C17.6766 22.4793 18.3051 22.652 19 22.652C20.0091 22.652 20.8704 22.2953 21.5838 21.582C22.2971 20.8686 22.6538 20.0073 22.6538 18.9982C22.6538 17.989 22.2971 17.1277 21.5838 16.4144C20.8704 15.701 20.0091 15.3443 19 15.3443C18.4525 15.3443 17.9352 15.4623 17.448 15.6982C16.9608 15.9341 16.5365 16.252 16.175 16.652H17.25C17.4222 16.652 17.5646 16.7083 17.6772 16.8208C17.7898 16.9333 17.8461 17.0756 17.8461 17.2477C17.8461 17.4198 17.7898 17.5623 17.6772 17.6751C17.5646 17.7879 17.4222 17.8443 17.25 17.8443H15.0577C14.8016 17.8443 14.5869 17.7577 14.4137 17.5845C14.2404 17.4112 14.1538 17.1965 14.1538 16.9405V14.7482C14.1538 14.5759 14.2101 14.4335 14.3226 14.3209C14.4351 14.2083 14.5774 14.152 14.7495 14.152C14.9216 14.152 15.0641 14.2083 15.1769 14.3209C15.2897 14.4335 15.3461 14.5759 15.3461 14.7482V15.7886C15.8089 15.2975 16.3564 14.902 16.9884 14.602C17.6205 14.302 18.291 14.152 19 14.152C20.3407 14.152 21.4836 14.6245 22.4286 15.5695C23.3736 16.5145 23.8461 17.6574 23.8461 18.9982C23.8461 20.3389 23.3736 21.4818 22.4286 22.4268C21.4836 23.3718 20.3407 23.8443 19 23.8443ZM4.99997 8.80591H19V6.30589C19 6.22896 18.9679 6.15843 18.9038 6.09431C18.8397 6.03021 18.7692 5.99816 18.6922 5.99816H5.3077C5.23077 5.99816 5.16024 6.03021 5.09612 6.09431C5.03202 6.15843 4.99997 6.22896 4.99997 6.30589V8.80591Z"
                fill="#387DE5" />
        </g>
    </g>
</svg>
    