<svg width="52" height="52" viewBox="0 0 52 52" fill="none" xmlns="http://www.w3.org/2000/svg">
<circle cx="26" cy="26" r="26" fill="#CED8E5"/>
<circle cx="25.8827" cy="25.8846" r="24.3202" fill="#EDF4FF"/>
<g clip-path="url(#clip0_12694_86992)">
<path d="M24.5489 24.7992C23.5799 24.7992 22.6326 24.5118 21.8269 23.9734C21.0211 23.4351 20.3931 22.6699 20.0223 21.7746C19.6515 20.8793 19.5544 19.8942 19.7435 18.9437C19.9325 17.9933 20.3992 17.1203 21.0844 16.4351C21.7696 15.7498 22.6426 15.2832 23.5931 15.0941C24.5435 14.9051 25.5286 15.0021 26.4239 15.373C27.3192 15.7438 28.0844 16.3718 28.6228 17.1775C29.1611 17.9833 29.4485 18.9305 29.4485 19.8996C29.4471 21.1986 28.9304 22.444 28.0119 23.3626C27.0933 24.2811 25.8479 24.7978 24.5489 24.7992ZM24.5489 16.7817C23.9323 16.7817 23.3294 16.9645 22.8167 17.3071C22.304 17.6497 21.9043 18.1367 21.6683 18.7064C21.4324 19.2761 21.3706 19.903 21.4909 20.5079C21.6112 21.1127 21.9082 21.6682 22.3442 22.1043C22.7803 22.5403 23.3358 22.8373 23.9406 22.9576C24.5455 23.0779 25.1724 23.0162 25.7421 22.7802C26.3118 22.5442 26.7988 22.1445 27.1414 21.6318C27.484 21.1191 27.6668 20.5163 27.6668 19.8996C27.6668 19.0727 27.3383 18.2796 26.7536 17.6949C26.1689 17.1102 25.3758 16.7817 24.5489 16.7817ZM32.1442 36.38C30.9108 36.38 29.7052 36.0143 28.6797 35.3291C27.6542 34.6439 26.855 33.67 26.383 32.5305C25.911 31.3911 25.7875 30.1373 26.0282 28.9276C26.2688 27.718 26.8627 26.6069 27.7348 25.7348C28.6069 24.8627 29.718 24.2688 30.9276 24.0282C32.1372 23.7875 33.3911 23.911 34.5305 24.383C35.67 24.855 36.6439 25.6542 37.3291 26.6797C38.0143 27.7052 38.38 28.9108 38.38 30.1442C38.3781 31.7974 37.7205 33.3824 36.5515 34.5515C35.3824 35.7205 33.7974 36.3781 32.1442 36.38ZM32.1442 25.69C31.2632 25.69 30.402 25.9512 29.6696 26.4407C28.9371 26.9301 28.3662 27.6257 28.0291 28.4396C27.6919 29.2535 27.6037 30.1491 27.7756 31.0131C27.9474 31.8772 28.3717 32.6708 28.9946 33.2937C29.6175 33.9167 30.4112 34.3409 31.2752 34.5128C32.1392 34.6846 33.0348 34.5964 33.8487 34.2593C34.6626 33.9222 35.3582 33.3513 35.8477 32.6188C36.3371 31.8863 36.5983 31.0251 36.5983 30.1442C36.5969 28.9633 36.1272 27.8312 35.2922 26.9962C34.4572 26.1611 33.3251 25.6914 32.1442 25.69ZM34.5557 31.296L33.035 29.7754V27.4717H31.2533V30.513L33.296 32.5557L34.5557 31.296ZM24.9703 26.5808H21.4542C20.2733 26.5823 19.1412 27.052 18.3062 27.887C17.4711 28.722 17.0014 29.8541 17 31.035V36.38H18.7817V31.035C18.7817 30.3262 19.0632 29.6465 19.5644 29.1453C20.0656 28.6441 20.7454 28.3625 21.4542 28.3625H24.3324C24.4728 27.7452 24.6869 27.147 24.9703 26.5808Z" fill="#387DE5"/>
</g>
<defs>
<clipPath id="clip0_12694_86992">
<rect width="21.38" height="21.38" fill="white" transform="translate(17 15)"/>
</clipPath>
</defs>
</svg>
