<svg width="91" height="91" viewBox="0 0 91 91" fill="none" xmlns="http://www.w3.org/2000/svg">
<circle cx="46" cy="45" r="44" fill="#FF1E1E"/>
<mask id="mask0_49991_102247" style="mask-type:alpha" maskUnits="userSpaceOnUse" x="19" y="18" width="54" height="54">
<rect x="19" y="18" width="54" height="54" fill="#D9D9D9"/>
</mask>
<g mask="url(#mask0_49991_102247)">
<path d="M30.25 65.25C29.0125 65.25 27.9531 64.8094 27.0719 63.9281C26.1906 63.0469 25.75 61.9875 25.75 60.75V32.625C25.75 32.0625 25.8437 31.5563 26.0312 31.1063C26.2188 30.6562 26.4625 30.225 26.7625 29.8125L29.9125 25.9875C30.2125 25.575 30.5875 25.2656 31.0375 25.0594C31.4875 24.8531 31.975 24.75 32.5 24.75H59.5C60.025 24.75 60.5125 24.8531 60.9625 25.0594C61.4125 25.2656 61.7875 25.575 62.0875 25.9875L65.2375 29.8125C65.5375 30.225 65.7812 30.6562 65.9688 31.1063C66.1562 31.5563 66.25 32.0625 66.25 32.625V60.75C66.25 61.9875 65.8094 63.0469 64.9281 63.9281C64.0469 64.8094 62.9875 65.25 61.75 65.25H30.25ZM31.15 31.5H60.85L58.9375 29.25H33.0625L31.15 31.5ZM46 58.5L55 49.5L51.85 46.35L48.25 49.95V40.5H43.75V49.95L40.15 46.35L37 49.5L46 58.5Z" fill="white"/>
</g>
</svg>
