<svg width="24" height="24" viewBox="0 0 24 24" fill="none" xmlns="http://www.w3.org/2000/svg">
<mask id="mask0_17314_3953" style="mask-type:alpha" maskUnits="userSpaceOnUse" x="0" y="0" width="24" height="24">
<rect width="24" height="24" fill="#D9D9D9"/>
</mask>
<g mask="url(#mask0_17314_3953)">
<path d="M3.99998 7.06918V10.0577C3.99998 10.2702 3.92807 10.4483 3.78425 10.592C3.64045 10.7358 3.46225 10.8077 3.24965 10.8077C3.03707 10.8077 2.85898 10.7358 2.7154 10.592C2.5718 10.4483 2.5 10.2702 2.5 10.0577V5.40385C2.5 5.14777 2.58663 4.93311 2.75988 4.75988C2.93311 4.58663 3.14777 4.5 3.40385 4.5H8.05768C8.27018 4.5 8.44829 4.57191 8.59203 4.71573C8.73578 4.85954 8.80765 5.03774 8.80765 5.25033C8.80765 5.46293 8.73578 5.64102 8.59203 5.7846C8.44829 5.92818 8.27018 5.99998 8.05768 5.99998H5.04418L9.42693 10.3731C9.57959 10.5224 9.6591 10.6966 9.66545 10.8957C9.67182 11.0947 9.59744 11.2718 9.44233 11.4269C9.28719 11.5821 9.10899 11.6596 8.90773 11.6596C8.70644 11.6596 8.52823 11.5821 8.3731 11.4269L3.99998 7.06918ZM4.3077 19.5C3.80257 19.5 3.375 19.325 3.025 18.975C2.675 18.625 2.5 18.1974 2.5 17.6923V13.75C2.5 13.5375 2.57191 13.3594 2.71572 13.2156C2.85954 13.0719 3.03774 13 3.25033 13C3.46293 13 3.64102 13.0719 3.7846 13.2156C3.92818 13.3594 3.99998 13.5375 3.99998 13.75V17.6923C3.99998 17.782 4.02883 17.8557 4.08653 17.9134C4.14423 17.9711 4.21795 18 4.3077 18H11.1346C11.3471 18 11.5252 18.0719 11.669 18.2157C11.8127 18.3595 11.8846 18.5377 11.8846 18.7503C11.8846 18.9629 11.8127 19.141 11.669 19.2846C11.5252 19.4282 11.3471 19.5 11.1346 19.5H4.3077ZM20.7496 12.8846C20.537 12.8846 20.3589 12.8127 20.2154 12.669C20.0718 12.5252 20 12.3471 20 12.1346V6.3077C20 6.21795 19.9711 6.14423 19.9134 6.08652C19.8557 6.02882 19.782 5.99998 19.6923 5.99998H11.75C11.5375 5.99998 11.3594 5.92807 11.2156 5.78425C11.0719 5.64045 11 5.46225 11 5.24965C11 5.03707 11.0719 4.85898 11.2156 4.7154C11.3594 4.5718 11.5375 4.5 11.75 4.5H19.6923C20.1974 4.5 20.625 4.675 20.975 5.025C21.325 5.375 21.5 5.80257 21.5 6.3077V12.1346C21.5 12.3471 21.428 12.5252 21.2842 12.669C21.1404 12.8127 20.9622 12.8846 20.7496 12.8846ZM14.9808 19.5C14.7247 19.5 14.51 19.4133 14.3368 19.2401C14.1635 19.0668 14.0769 18.8522 14.0769 18.5961V15.9808C14.0769 15.7247 14.1635 15.51 14.3368 15.3368C14.51 15.1635 14.7247 15.0769 14.9808 15.0769H20.5961C20.8522 15.0769 21.0668 15.1635 21.2401 15.3368C21.4133 15.51 21.5 15.7247 21.5 15.9808V18.5961C21.5 18.8522 21.4133 19.0668 21.2401 19.2401C21.0668 19.4133 20.8522 19.5 20.5961 19.5H14.9808Z" fill="#387DE5"/>
</g>
</svg>
