<svg width="20" height="20" viewBox="0 0 20 20" fill="none" xmlns="http://www.w3.org/2000/svg">
<path d="M19.3812 13.4995L17.2145 5.69033C16.7519 4.01984 15.7438 2.55211 14.3506 1.52073C12.9575 0.489353 11.2594 -0.0464043 9.5266 -0.00127122C7.79382 0.0438618 6.12592 0.667292 4.78836 1.7698C3.4508 2.8723 2.52045 4.39052 2.14538 6.08283L0.469542 13.6245C0.388453 13.9899 0.390431 14.3688 0.47533 14.7333C0.560229 15.0978 0.725883 15.4386 0.960071 15.7305C1.19426 16.0224 1.491 16.2581 1.82841 16.42C2.16582 16.5819 2.53528 16.6661 2.90954 16.6662H5.91538C6.10664 17.6081 6.61765 18.4549 7.36183 19.0631C8.106 19.6714 9.03758 20.0037 9.99871 20.0037C10.9598 20.0037 11.8914 19.6714 12.6356 19.0631C13.3798 18.4549 13.8908 17.6081 14.082 16.6662H16.9737C17.3588 16.666 17.7386 16.5769 18.0836 16.4057C18.4286 16.2346 18.7294 15.986 18.9625 15.6795C19.1956 15.373 19.3547 15.0168 19.4275 14.6386C19.5003 14.2605 19.4847 13.8706 19.382 13.4995H19.3812ZM9.99871 18.3328C9.48349 18.3307 8.98152 18.1694 8.56146 17.8711C8.1414 17.5728 7.82378 17.1519 7.65204 16.6662H12.3454C12.1736 17.1519 11.856 17.5728 11.436 17.8711C11.0159 18.1694 10.5139 18.3307 9.99871 18.3328ZM17.6362 14.6703C17.5585 14.7734 17.4577 14.8568 17.3419 14.914C17.2262 14.9712 17.0986 15.0004 16.9695 14.9995H2.90954C2.78476 14.9995 2.66158 14.9714 2.54908 14.9174C2.43659 14.8634 2.33765 14.7849 2.25959 14.6875C2.18152 14.5902 2.12631 14.4765 2.09803 14.355C2.06975 14.2335 2.06913 14.1071 2.09621 13.9853L3.77204 6.44366C4.06734 5.1155 4.79813 3.92416 5.84826 3.05903C6.89838 2.1939 8.20756 1.70464 9.56769 1.669C10.9278 1.63337 12.2608 2.05342 13.3548 2.86238C14.4488 3.67134 15.2409 4.82278 15.6054 6.13366L17.772 13.9428C17.8074 14.0663 17.8136 14.1963 17.79 14.3226C17.7664 14.4489 17.7138 14.5679 17.6362 14.6703Z" fill="#387DE5"/>
</svg>
