<svg width="21" height="20" viewBox="0 0 21 20" fill="none" xmlns="http://www.w3.org/2000/svg">
<g clip-path="url(#clip0_622_12312)">
<path d="M12.7117 11.257H12.0162C11.938 11.2573 11.8573 11.2576 11.7783 11.2579V12.4878C12.1297 12.4864 12.54 12.4849 12.7117 12.4849C13.0495 12.4849 13.3244 12.2095 13.3244 11.871C13.3243 11.5324 13.0495 11.257 12.7117 11.257Z" fill="#005375"/>
<path d="M12.4858 10.0814C12.7277 10.0814 12.9245 9.88422 12.9245 9.6418C12.9245 9.39938 12.7277 9.20215 12.4858 9.20215H11.7783V10.0826H12.014C12.2096 10.0819 12.3895 10.0814 12.4858 10.0814Z" fill="#005375"/>
<path d="M6.58105 11.3945H7.57012L7.07785 10.0873L6.58105 11.3945Z" fill="#005375"/>
<path d="M10.9167 0.45123C10.4457 -0.15041 9.56051 -0.15041 9.08953 0.45123C7.1341 2.94908 2.71973 8.95576 2.71973 12.2765C2.71973 16.5421 5.98063 20 10.0031 20C14.0256 20 17.2865 16.5421 17.2865 12.2765C17.2865 8.95576 12.8721 2.94908 10.9167 0.45123ZM8.01238 12.5688H6.13477L5.86207 13.2863C5.77305 13.5206 5.55047 13.6647 5.31441 13.6647C5.24508 13.6647 5.17465 13.6523 5.10598 13.6261C4.80359 13.5107 4.6518 13.1715 4.76695 12.8684L6.43898 8.46885C6.4407 8.46436 6.44246 8.45986 6.4443 8.45541C6.55027 8.19592 6.79961 8.02807 7.07941 8.02783H7.08004C7.35961 8.02783 7.60887 8.19518 7.71523 8.45432C7.71742 8.45963 7.71953 8.46498 7.72156 8.47037L9.3784 12.8701C9.49266 13.1735 9.33984 13.5123 9.03707 13.6268C8.73426 13.7413 8.39625 13.5881 8.28199 13.2847L8.01238 12.5688ZM10.9686 16.6108H10.562V17.0423C10.562 17.3666 10.2996 17.6295 9.97602 17.6295C9.65242 17.6295 9.39008 17.3666 9.39008 17.0423V16.6108H8.95957C8.63598 16.6108 8.37363 16.3479 8.37363 16.0237C8.37363 15.6994 8.63598 15.4365 8.95957 15.4365H9.39008V15.0289C9.39008 14.7046 9.65242 14.4417 9.97602 14.4417C10.2996 14.4417 10.562 14.7046 10.562 15.0289V15.4364H10.9686C11.2922 15.4364 11.5545 15.6993 11.5545 16.0236C11.5545 16.3479 11.2922 16.6108 10.9686 16.6108ZM12.7119 13.6592C12.3887 13.6592 11.2071 13.6645 11.1952 13.6646C11.1943 13.6646 11.1935 13.6646 11.1926 13.6646C11.0377 13.6646 10.889 13.6031 10.7792 13.4935C10.6688 13.3833 10.6067 13.2336 10.6067 13.0774V10.6731V10.6698V8.61498C10.6067 8.29068 10.869 8.02779 11.1926 8.02779H12.4861C13.3741 8.02779 14.0966 8.75185 14.0966 9.64182C14.0966 9.95537 14.0066 10.2481 13.8516 10.496C14.2453 10.8243 14.4964 11.3188 14.4964 11.8709C14.4964 12.857 13.6959 13.6592 12.7119 13.6592Z" fill="#005375"/>
</g>
<defs>
<clipPath id="clip0_622_12312">
<rect width="20" height="20" fill="white" transform="translate(0.00292969)"/>
</clipPath>
</defs>
</svg>
