<svg xmlns="http://www.w3.org/2000/svg" width="16" height="16" viewBox="0 0 16 16" fill="none">
  <path d="M11.0005 13.5006C10.8685 13.5006 10.7405 13.448 10.6471 13.354L9.48047 12.1873C9.28516 11.9919 9.28516 11.6753 9.48047 11.48C9.67578 11.2847 9.99243 11.2847 10.1879 11.48L10.9751 12.2666L12.7905 10.1726C12.9712 9.96399 13.2878 9.94128 13.4958 10.1219C13.7045 10.3026 13.7272 10.6186 13.5458 10.8273L11.3792 13.3273C11.2885 13.4319 11.1578 13.4946 11.0192 13.4993C11.0125 13.5006 11.0065 13.5006 11.0005 13.5006Z" fill="#387DE5"/>
  <path d="M5.66663 12.6692H1.83337C0.822021 12.6692 0 11.8473 0 10.8359V3.16919C0 2.15784 0.822021 1.33594 1.83337 1.33594H11.5C12.5114 1.33594 13.3334 2.15784 13.3334 3.16919V5.83594C13.3334 6.11194 13.1094 6.33594 12.8334 6.33594C12.5574 6.33594 12.3334 6.11255 12.3334 5.83594V3.16919C12.3334 2.70984 11.9593 2.33594 11.5 2.33594H1.83337C1.37402 2.33594 1 2.70984 1 3.16919V10.8359C1 11.2953 1.37402 11.6692 1.83337 11.6692H5.66663C5.94263 11.6692 6.16663 11.8932 6.16663 12.1692C6.16663 12.4452 5.94263 12.6692 5.66663 12.6692Z" fill="#387DE5"/>
  <path d="M12.8334 5H0.5C0.223999 5 0 4.776 0 4.5C0 4.224 0.223999 4 0.5 4H12.8334C13.1094 4 13.3334 4.224 13.3334 4.5C13.3334 4.776 13.1094 5 12.8334 5Z" fill="#387DE5"/>
  <path d="M3.16602 3.66663C2.89001 3.66663 2.66602 3.44263 2.66602 3.16663V0.5C2.66602 0.223999 2.89001 0 3.16602 0C3.44202 0 3.66602 0.223999 3.66602 0.5V3.16663C3.66602 3.44263 3.44202 3.66663 3.16602 3.66663Z" fill="#387DE5"/>
  <path d="M10.166 3.66663C9.89001 3.66663 9.66602 3.44263 9.66602 3.16663V0.5C9.66602 0.223999 9.89001 0 10.166 0C10.442 0 10.666 0.223999 10.666 0.5V3.16663C10.666 3.44263 10.442 3.66663 10.166 3.66663Z" fill="#387DE5"/>
  <path d="M11.6672 16.0026C9.27795 16.0026 7.33398 14.0586 7.33398 11.6692C7.33398 9.27991 9.27795 7.33594 11.6672 7.33594C14.0566 7.33594 16.0006 9.27991 16.0006 11.6692C16.0006 14.0586 14.0566 16.0026 11.6672 16.0026ZM11.6672 8.33594C9.82922 8.33594 8.33398 9.83118 8.33398 11.6692C8.33398 13.5072 9.82922 15.0026 11.6672 15.0026C13.5052 15.0026 15.0006 13.5072 15.0006 11.6692C15.0006 9.83118 13.5052 8.33594 11.6672 8.33594Z" fill="#387DE5"/>
</svg>