<svg width="16" height="16" viewBox="0 0 16 16" fill="none" xmlns="http://www.w3.org/2000/svg">
<path d="M11.0005 13.5C10.8685 13.5 10.7405 13.4474 10.6471 13.3534L9.48047 12.1866C9.28516 11.9913 9.28516 11.6747 9.48047 11.4794C9.67578 11.2841 9.99243 11.2841 10.1879 11.4794L10.9751 12.266L12.7905 10.172C12.9712 9.96338 13.2878 9.94067 13.4958 10.1213C13.7045 10.302 13.7272 10.618 13.5458 10.8267L11.3792 13.3267C11.2885 13.4313 11.1578 13.494 11.0192 13.4987C11.0125 13.5 11.0065 13.5 11.0005 13.5Z" fill="#387DE5"/>
<path d="M5.66663 12.6666H1.83337C0.822021 12.6666 0 11.8447 0 10.8334V3.16663C0 2.15527 0.822021 1.33337 1.83337 1.33337H11.5C12.5114 1.33337 13.3334 2.15527 13.3334 3.16663V5.83337C13.3334 6.10938 13.1094 6.33337 12.8334 6.33337C12.5574 6.33337 12.3334 6.10999 12.3334 5.83337V3.16663C12.3334 2.70728 11.9593 2.33337 11.5 2.33337H1.83337C1.37402 2.33337 1 2.70728 1 3.16663V10.8334C1 11.2927 1.37402 11.6666 1.83337 11.6666H5.66663C5.94263 11.6666 6.16663 11.8906 6.16663 12.1666C6.16663 12.4426 5.94263 12.6666 5.66663 12.6666Z" fill="#387DE5"/>
<path d="M12.8334 5H0.5C0.223999 5 0 4.776 0 4.5C0 4.224 0.223999 4 0.5 4H12.8334C13.1094 4 13.3334 4.224 13.3334 4.5C13.3334 4.776 13.1094 5 12.8334 5Z" fill="#387DE5"/>
<path d="M3.16602 3.66663C2.89001 3.66663 2.66602 3.44263 2.66602 3.16663V0.5C2.66602 0.223999 2.89001 0 3.16602 0C3.44202 0 3.66602 0.223999 3.66602 0.5V3.16663C3.66602 3.44263 3.44202 3.66663 3.16602 3.66663Z" fill="#387DE5"/>
<path d="M10.166 3.66663C9.89001 3.66663 9.66602 3.44263 9.66602 3.16663V0.5C9.66602 0.223999 9.89001 0 10.166 0C10.442 0 10.666 0.223999 10.666 0.5V3.16663C10.666 3.44263 10.442 3.66663 10.166 3.66663Z" fill="#387DE5"/>
<path d="M11.6672 16C9.27795 16 7.33398 14.056 7.33398 11.6666C7.33398 9.27734 9.27795 7.33337 11.6672 7.33337C14.0566 7.33337 16.0006 9.27734 16.0006 11.6666C16.0006 14.056 14.0566 16 11.6672 16ZM11.6672 8.33337C9.82922 8.33337 8.33398 9.82861 8.33398 11.6666C8.33398 13.5046 9.82922 15 11.6672 15C13.5052 15 15.0006 13.5046 15.0006 11.6666C15.0006 9.82861 13.5052 8.33337 11.6672 8.33337Z" fill="#387DE5"/>
</svg>
