<svg xmlns="http://www.w3.org/2000/svg" width="62" height="62" viewBox="0 0 62 62" fill="none">
  <rect width="61.9606" height="62" rx="6" fill="#1384B3"/>
  <mask id="mask0_29525_19990" style="mask-type:alpha" maskUnits="userSpaceOnUse" x="13" y="13" width="36" height="36">
    <rect x="13" y="13" width="36" height="36" fill="#D9D9D9"/>
  </mask>
  <g mask="url(#mask0_29525_19990)">
    <path d="M32.6347 30.3285V25.1796C32.6347 24.7165 32.4781 24.3283 32.1648 24.015C31.8515 23.7017 31.4633 23.5451 31.0002 23.5451C30.5371 23.5451 30.1489 23.7017 29.8356 24.015C29.5224 24.3283 29.3657 24.7165 29.3657 25.1796V30.9358C29.3657 31.1657 29.4077 31.3851 29.4917 31.5939C29.5756 31.8028 29.7016 31.9907 29.8695 32.1578L34.676 36.9643C34.9809 37.2692 35.3608 37.4217 35.8157 37.4217C36.2706 37.4217 36.6535 37.2692 36.9643 36.9643C37.2752 36.6595 37.4307 36.2766 37.4307 35.8157C37.4307 35.3548 37.2752 34.969 36.9643 34.6581L32.6347 30.3285ZM31.0002 46.3051C28.8774 46.3051 26.8856 45.9037 25.0248 45.1007C23.164 44.2978 21.5454 43.208 20.1689 41.8316C18.7924 40.4551 17.7027 38.8365 16.8997 36.9757C16.0968 35.1149 15.6953 33.123 15.6953 31.0002C15.6953 28.8774 16.0968 26.8856 16.8997 25.0248C17.7027 23.164 18.7924 21.5453 20.1689 20.1689C21.5454 18.7924 23.164 17.7027 25.0248 16.8997C26.8856 16.0968 28.8774 15.6953 31.0002 15.6953C33.123 15.6953 35.1149 16.0968 36.9757 16.8997C38.8365 17.7027 40.4551 18.7924 41.8316 20.1689C43.208 21.5453 44.2978 23.164 45.1007 25.0248C45.9037 26.8856 46.3051 28.8774 46.3051 31.0002C46.3051 33.123 45.9037 35.1149 45.1007 36.9757C44.2978 38.8365 43.208 40.4551 41.8316 41.8316C40.4551 43.208 38.8365 44.2978 36.9757 45.1007C35.1149 45.9037 33.123 46.3051 31.0002 46.3051ZM31.0001 42.8926C34.2953 42.8926 37.1012 41.7358 39.4177 39.4222C41.7343 37.1086 42.8926 34.3013 42.8926 31.0002C42.8926 27.6991 41.7343 24.8918 39.4178 22.5782C37.1013 20.2646 34.2955 19.1078 31.0003 19.1078C27.7052 19.1078 24.8993 20.2646 22.5827 22.5782C20.2661 24.8918 19.1078 27.6991 19.1078 31.0002C19.1078 34.3013 20.2661 37.1086 22.5826 39.4222C24.8991 41.7358 27.705 42.8926 31.0001 42.8926Z" fill="white"/>
  </g>
</svg>