<svg width="62" height="62" viewBox="0 0 62 62" fill="none" xmlns="http://www.w3.org/2000/svg">
<rect width="62" height="62" rx="6" fill="#1384B3"/>
<mask id="mask0_4789_152295" style="mask-type:alpha" maskUnits="userSpaceOnUse" x="9" y="9" width="44" height="44">
<rect x="9" y="9" width="44" height="44" fill="#D9D9D9"/>
</mask>
<g mask="url(#mask0_4789_152295)">
<path d="M31 30.4348C29.2354 30.4348 27.7248 29.8065 26.4682 28.5499C25.2116 27.2933 24.5833 25.7827 24.5833 24.0182C24.5833 22.2536 25.2116 20.743 26.4682 19.4865C27.7248 18.2299 29.2354 17.6016 31 17.6016C32.7645 17.6016 34.2751 18.2299 35.5317 19.4865C36.7883 20.743 37.4166 22.2536 37.4166 24.0182C37.4166 25.7827 36.7883 27.2933 35.5317 28.5499C34.2751 29.8065 32.7645 30.4348 31 30.4348ZM17.25 44.3963V40.3207C17.25 39.4228 17.4939 38.5914 17.9816 37.8263C18.4693 37.0613 19.1209 36.4731 19.9365 36.0618C21.7487 35.1733 23.5768 34.507 25.4207 34.0627C27.2646 33.6185 29.1243 33.3964 31 33.3964C32.8756 33.3964 34.7353 33.6185 36.5792 34.0627C38.4231 34.507 40.2512 35.1733 42.0634 36.0618C42.879 36.4731 43.5306 37.0613 44.0183 37.8263C44.506 38.5914 44.7499 39.4228 44.7499 40.3207V44.3963H17.25ZM20 41.6463H42V40.3207C42 39.9493 41.8924 39.6056 41.6773 39.2894C41.4623 38.9733 41.1702 38.7153 40.8012 38.5155C39.2218 37.7376 37.6112 37.1482 35.9696 36.7474C34.3279 36.3467 32.6714 36.1463 31 36.1463C29.3285 36.1463 27.672 36.3467 26.0303 36.7474C24.3887 37.1482 22.7782 37.7376 21.1987 38.5155C20.8297 38.7153 20.5376 38.9733 20.3226 39.2894C20.1075 39.6056 20 39.9493 20 40.3207V41.6463ZM31 27.6849C32.0083 27.6849 32.8715 27.3258 33.5895 26.6078C34.3076 25.8897 34.6666 25.0265 34.6666 24.0182C34.6666 23.0099 34.3076 22.1467 33.5895 21.4286C32.8715 20.7105 32.0083 20.3515 31 20.3515C29.9916 20.3515 29.1284 20.7105 28.4104 21.4286C27.6923 22.1467 27.3333 23.0099 27.3333 24.0182C27.3333 25.0265 27.6923 25.8897 28.4104 26.6078C29.1284 27.3258 29.9916 27.6849 31 27.6849Z" fill="white"/>
</g>
</svg>
