<svg width="20" height="20" viewBox="0 0 20 20" fill="none" xmlns="http://www.w3.org/2000/svg">
<g clip-path="url(#clip0_622_12350)">
<path d="M16.1699 4.68616H20V14.9396H16.1699V4.68616Z" fill="white"/>
<path d="M18.6073 1.21716C18.5074 1.02032 18.3053 0.896423 18.0848 0.896423C17.8642 0.896423 17.6622 1.02032 17.5624 1.21716L16.396 3.51422H19.7735L18.6073 1.21716Z" fill="white"/>
<path d="M16.1699 17.596C16.1699 18.454 16.873 19.1521 17.7373 19.1521H18.4326C19.2969 19.1521 20 18.454 20 17.596V16.1115H16.1699V17.596Z" fill="white"/>
<path d="M12.4429 0.859375H2.51556C1.12854 0.859375 0 1.98776 0 3.37494V16.6367C0 18.0237 1.12854 19.1521 2.51556 19.1521H12.4429C13.83 19.1521 14.9585 18.0237 14.9585 16.6367V3.37494C14.9585 1.98776 13.83 0.859375 12.4429 0.859375ZM6.49521 15.2991H2.99835C2.67471 15.2991 2.41241 15.0368 2.41241 14.7131C2.41241 14.3895 2.67471 14.1272 2.99835 14.1272H6.49521C6.81885 14.1272 7.08115 14.3895 7.08115 14.7131C7.08115 15.0368 6.81885 15.2991 6.49521 15.2991ZM6.49521 12.916H2.99835C2.67471 12.916 2.41241 12.6537 2.41241 12.33C2.41241 12.0064 2.67471 11.7441 2.99835 11.7441H6.49521C6.81885 11.7441 7.08115 12.0064 7.08115 12.33C7.08115 12.6537 6.81885 12.916 6.49521 12.916ZM6.49521 10.5721H2.99835C2.67471 10.5721 2.41241 10.3098 2.41241 9.98611C2.41241 9.66248 2.67471 9.40018 2.99835 9.40018H6.49521C6.81885 9.40018 7.08115 9.66248 7.08115 9.98611C7.08115 10.3098 6.81885 10.5721 6.49521 10.5721ZM6.49521 8.22815H2.99835C2.67471 8.22815 2.41241 7.96585 2.41241 7.64221C2.41241 7.31857 2.67471 7.05627 2.99835 7.05627H6.49521C6.81885 7.05627 7.08115 7.31857 7.08115 7.64221C7.08115 7.96585 6.81885 8.22815 6.49521 8.22815ZM6.49521 5.88425H2.99835C2.67471 5.88425 2.41241 5.62195 2.41241 5.29831C2.41241 4.97467 2.67471 4.71237 2.99835 4.71237H6.49521C6.81885 4.71237 7.08115 4.97467 7.08115 5.29831C7.08115 5.62195 6.81885 5.88425 6.49521 5.88425ZM10.1474 15.2991H8.46313C8.1395 15.2991 7.8772 15.0368 7.8772 14.7131C7.8772 14.3895 8.1395 14.1272 8.46313 14.1272H10.1474C10.471 14.1272 10.7333 14.3895 10.7333 14.7131C10.7333 15.0368 10.471 15.2991 10.1474 15.2991ZM11.9601 8.22815H8.46313C8.13965 8.22815 7.8772 7.96585 7.8772 7.64221C7.8772 7.31857 8.13965 7.05627 8.46313 7.05627H11.9601C12.2838 7.05627 12.5461 7.31857 12.5461 7.64221C12.5461 7.96585 12.2838 8.22815 11.9601 8.22815ZM11.9601 5.88425H8.46313C8.13965 5.88425 7.8772 5.62195 7.8772 5.29831C7.8772 4.97467 8.13965 4.71237 8.46313 4.71237H11.9601C12.2838 4.71237 12.5461 4.97467 12.5461 5.29831C12.5461 5.62195 12.2838 5.88425 11.9601 5.88425Z" fill="white"/>
</g>
<defs>
<clipPath id="clip0_622_12350">
<rect width="20" height="20" fill="white"/>
</clipPath>
</defs>
</svg>
