<svg width="23" height="20" viewBox="0 0 23 20" fill="none" xmlns="http://www.w3.org/2000/svg">
<path d="M6.79773 10C5.56023 10.0372 4.54807 10.5134 3.76126 11.4286H2.22585C1.59946 11.4286 1.07237 11.2779 0.6446 10.9766C0.21682 10.6752 0.00292969 10.2344 0.00292969 9.65402C0.00292969 7.02753 0.476539 5.71429 1.42376 5.71429C1.46959 5.71429 1.63574 5.79241 1.9222 5.94866C2.20865 6.10491 2.58105 6.26302 3.03938 6.423C3.49772 6.58296 3.95223 6.66294 4.40293 6.66294C4.91473 6.66294 5.42272 6.57738 5.92688 6.40626C5.88869 6.68155 5.8696 6.92709 5.8696 7.14286C5.8696 8.17709 6.17898 9.12946 6.79773 10ZM19.0696 17.1094C19.0696 18.0022 18.7908 18.7072 18.2331 19.2243C17.6755 19.7414 16.9345 20 16.0102 20H5.99563C5.07133 20 4.33036 19.7414 3.77273 19.2243C3.21508 18.7072 2.93626 18.0022 2.93626 17.1094C2.93626 16.715 2.94963 16.33 2.97637 15.9542C3.00311 15.5785 3.05658 15.173 3.13679 14.7377C3.217 14.3025 3.31821 13.8988 3.44043 13.5268C3.56265 13.1548 3.72688 12.792 3.93313 12.4386C4.13938 12.0852 4.37619 11.7839 4.64355 11.5346C4.91092 11.2853 5.23748 11.0863 5.62324 10.9375C6.009 10.7887 6.43487 10.7143 6.90085 10.7143C6.97724 10.7143 7.14147 10.7943 7.39355 10.9542C7.64564 11.1142 7.92446 11.2928 8.23001 11.49C8.53557 11.6871 8.94425 11.8657 9.45605 12.0257C9.96786 12.1856 10.4835 12.2656 11.0029 12.2656C11.5224 12.2656 12.038 12.1856 12.5498 12.0257C13.0616 11.8657 13.4703 11.6871 13.7759 11.49C14.0814 11.2928 14.3602 11.1142 14.6123 10.9542C14.8644 10.7943 15.0286 10.7143 15.105 10.7143C15.571 10.7143 15.9969 10.7887 16.3826 10.9375C16.7684 11.0863 17.0949 11.2853 17.3623 11.5346C17.6297 11.7839 17.8665 12.0852 18.0727 12.4386C18.279 12.792 18.4432 13.1548 18.5654 13.5268C18.6876 13.8988 18.7889 14.3025 18.8691 14.7377C18.9493 15.173 19.0028 15.5785 19.0295 15.9542C19.0562 16.33 19.0696 16.715 19.0696 17.1094ZM7.33626 2.85715C7.33626 3.64584 7.0498 4.3192 6.47688 4.87723C5.90397 5.43527 5.21265 5.71429 4.40293 5.71429C3.59321 5.71429 2.90189 5.43527 2.32898 4.87723C1.75606 4.3192 1.4696 3.64584 1.4696 2.85715C1.4696 2.06845 1.75606 1.39509 2.32898 0.837053C2.90189 0.279018 3.59321 0 4.40293 0C5.21265 0 5.90397 0.279018 6.47688 0.837053C7.0498 1.39509 7.33626 2.06845 7.33626 2.85715ZM15.4029 7.14286C15.4029 8.3259 14.9732 9.33594 14.1139 10.173C13.2545 11.01 12.2175 11.4286 11.0029 11.4286C9.78835 11.4286 8.75137 11.01 7.89199 10.173C7.03262 9.33594 6.60293 8.3259 6.60293 7.14286C6.60293 5.95983 7.03262 4.94978 7.89199 4.11273C8.75137 3.27568 9.78835 2.85715 11.0029 2.85715C12.2175 2.85715 13.2545 3.27568 14.1139 4.11273C14.9732 4.94978 15.4029 5.95983 15.4029 7.14286ZM22.0029 9.65402C22.0029 10.2344 21.789 10.6752 21.3613 10.9766C20.9335 11.2779 20.4064 11.4286 19.78 11.4286H18.2446C17.4578 10.5134 16.4456 10.0372 15.2081 10C15.8269 9.12946 16.1363 8.17709 16.1363 7.14286C16.1363 6.92709 16.1172 6.68155 16.079 6.40626C16.5831 6.57738 17.0911 6.66294 17.6029 6.66294C18.0536 6.66294 18.5081 6.58296 18.9665 6.423C19.4248 6.26302 19.7972 6.10491 20.0837 5.94866C20.3701 5.79241 20.5363 5.71429 20.5821 5.71429C21.5293 5.71429 22.0029 7.02753 22.0029 9.65402ZM20.5363 2.85715C20.5363 3.64584 20.2498 4.3192 19.6769 4.87723C19.104 5.43527 18.4126 5.71429 17.6029 5.71429C16.7932 5.71429 16.1019 5.43527 15.529 4.87723C14.9561 4.3192 14.6696 3.64584 14.6696 2.85715C14.6696 2.06845 14.9561 1.39509 15.529 0.837053C16.1019 0.279018 16.7932 0 17.6029 0C18.4126 0 19.104 0.279018 19.6769 0.837053C20.2498 1.39509 20.5363 2.06845 20.5363 2.85715Z" fill="#005375"/>
</svg>
