<svg width="21" height="20" viewBox="0 0 21 20" fill="none" xmlns="http://www.w3.org/2000/svg">
<g clip-path="url(#clip0_622_11344)">
<path d="M18.3867 20H12.4621C11.5694 20 10.8457 19.2763 10.8457 18.3836V12.459C10.8457 11.5663 11.5694 10.8426 12.4621 10.8426H18.3867C19.2794 10.8426 20.0031 11.5663 20.0031 12.459V18.3836C20.0031 19.2763 19.2794 20 18.3867 20Z" fill="#005375"/>
<path d="M7.54394 20H1.61934C0.726619 20 0.00292969 19.2763 0.00292969 18.3836V12.459C0.00292969 11.5663 0.726619 10.8426 1.61934 10.8426H7.54394C8.43666 10.8426 9.16035 11.5663 9.16035 12.459V18.3836C9.16035 19.2763 8.43666 20 7.54394 20Z" fill="#005375"/>
<path d="M18.3867 9.15747H12.4621C11.5694 9.15747 10.8457 8.43378 10.8457 7.54106V1.61646C10.8457 0.72374 11.5694 4.95911e-05 12.4621 4.95911e-05H18.3867C19.2794 4.95911e-05 20.0031 0.72374 20.0031 1.61646V7.54106C20.0031 8.43378 19.2794 9.15747 18.3867 9.15747Z" fill="#005375"/>
<path d="M7.54394 9.15747H1.61934C0.726619 9.15747 0.00292969 8.43378 0.00292969 7.54106V1.61646C0.00292969 0.72374 0.726619 4.95911e-05 1.61934 4.95911e-05H7.54394C8.43666 4.95911e-05 9.16035 0.72374 9.16035 1.61646V7.54106C9.16035 8.43378 8.43666 9.15747 7.54394 9.15747Z" fill="#005375"/>
</g>
<defs>
<clipPath id="clip0_622_11344">
<rect width="20" height="20" fill="white" transform="matrix(1 0 0 -1 0.00292969 20)"/>
</clipPath>
</defs>
</svg>
