<svg xmlns="http://www.w3.org/2000/svg" width="23" height="22" viewBox="0 0 23 22" fill="none">
  <path fill-rule="evenodd" clip-rule="evenodd" d="M3 8.2143C3 5.49233 5.24432 3.28573 8.01282 3.28573H14.9872C17.7557 3.28573 20 5.49233 20 8.2143V15.0714C20 17.7934 17.7557 20 14.9872 20H8.01282C5.24432 20 3 17.7934 3 15.0714V8.2143ZM8.01282 4.57145C5.96653 4.57145 4.30769 6.20241 4.30769 8.2143V15.0714C4.30769 17.0833 5.96653 18.7143 8.01282 18.7143H14.9872C17.0335 18.7143 18.6923 17.0833 18.6923 15.0714V8.2143C18.6923 6.20241 17.0335 4.57145 14.9872 4.57145H8.01282Z" fill="#387DE5"/>
  <path fill-rule="evenodd" clip-rule="evenodd" d="M19.3462 8.85713H3.65385V7.57142H19.3462V8.85713Z" fill="#387DE5"/>
  <path fill-rule="evenodd" clip-rule="evenodd" d="M15.4231 2C15.062 2 14.7692 2.28782 14.7692 2.64286V5.21428C14.7692 5.56932 15.062 5.85714 15.4231 5.85714C15.7842 5.85714 16.0769 5.56932 16.0769 5.21428V2.64286C16.0769 2.28782 15.7842 2 15.4231 2Z" fill="#387DE5"/>
  <path fill-rule="evenodd" clip-rule="evenodd" d="M7.57692 2C7.21581 2 6.92308 2.28782 6.92308 2.64286V5.21428C6.92308 5.56932 7.21581 5.85714 7.57692 5.85714C7.93803 5.85714 8.23077 5.56932 8.23077 5.21428V2.64286C8.23077 2.28782 7.93803 2 7.57692 2Z" fill="#387DE5"/>
  <path fill-rule="evenodd" clip-rule="evenodd" d="M6.05128 11.6429C6.05128 11.9979 6.34402 12.2857 6.70513 12.2857H7.57692C7.93803 12.2857 8.23077 11.9979 8.23077 11.6429C8.23077 11.2878 7.93803 11 7.57692 11H6.70513C6.34402 11 6.05128 11.2878 6.05128 11.6429Z" fill="#387DE5"/>
  <path fill-rule="evenodd" clip-rule="evenodd" d="M10.4103 11.6429C10.4103 11.9979 10.703 12.2857 11.0641 12.2857H11.9359C12.297 12.2857 12.5897 11.9979 12.5897 11.6429C12.5897 11.2878 12.297 11 11.9359 11H11.0641C10.703 11 10.4103 11.2878 10.4103 11.6429Z" fill="#387DE5"/>
  <path fill-rule="evenodd" clip-rule="evenodd" d="M14.7692 11.6429C14.7692 11.9979 15.062 12.2857 15.4231 12.2857H16.2949C16.656 12.2857 16.9487 11.9979 16.9487 11.6429C16.9487 11.2878 16.656 11 16.2949 11H15.4231C15.062 11 14.7692 11.2878 14.7692 11.6429Z" fill="#387DE5"/>
  <path fill-rule="evenodd" clip-rule="evenodd" d="M6.05128 15.0714C6.05128 15.4265 6.34402 15.7143 6.70513 15.7143H7.57692C7.93803 15.7143 8.23077 15.4265 8.23077 15.0714C8.23077 14.7164 7.93803 14.4286 7.57692 14.4286H6.70513C6.34402 14.4286 6.05128 14.7164 6.05128 15.0714Z" fill="#387DE5"/>
  <path fill-rule="evenodd" clip-rule="evenodd" d="M10.4103 15.0714C10.4103 15.4265 10.703 15.7143 11.0641 15.7143H11.9359C12.297 15.7143 12.5897 15.4265 12.5897 15.0714C12.5897 14.7164 12.297 14.4286 11.9359 14.4286H11.0641C10.703 14.4286 10.4103 14.7164 10.4103 15.0714Z" fill="#387DE5"/>
  <path fill-rule="evenodd" clip-rule="evenodd" d="M14.7692 15.0714C14.7692 15.4265 15.062 15.7143 15.4231 15.7143H16.2949C16.656 15.7143 16.9487 15.4265 16.9487 15.0714C16.9487 14.7164 16.656 14.4286 16.2949 14.4286H15.4231C15.062 14.4286 14.7692 14.7164 14.7692 15.0714Z" fill="#387DE5"/>
</svg>