<svg width="167" height="54" viewBox="0 0 167 54" fill="none" xmlns="http://www.w3.org/2000/svg">
<path fill-rule="evenodd" clip-rule="evenodd" d="M5.9018 41.792H0.279785V42.6631H2.62139L2.62859 51.2374H3.5566V42.6631H5.9018V41.792Z" fill="#005375"/>
<path fill-rule="evenodd" clip-rule="evenodd" d="M10.9664 44.9957C10.7835 44.7824 10.5532 44.6151 10.294 44.5069C10.0347 44.3988 9.75382 44.3529 9.4737 44.3729C9.07218 44.3649 8.67548 44.4617 8.32268 44.6537C8.04389 44.8143 7.81199 45.0451 7.65005 45.3232V41.792H6.71484V51.2374H7.65005V46.7739C7.61968 46.3659 7.74862 45.962 8.00974 45.6472C8.15165 45.5092 8.32121 45.4028 8.50722 45.3352C8.69323 45.2675 8.89146 45.2402 9.08882 45.2548C9.28663 45.242 9.48492 45.2709 9.67082 45.3398C9.85673 45.4086 10.0261 45.5158 10.1679 45.6544C10.4317 45.9804 10.5605 46.3953 10.5276 46.8135V51.2374H11.4628V46.7955C11.5121 46.156 11.3366 45.5193 10.9664 44.9957Z" fill="#005375"/>
<path fill-rule="evenodd" clip-rule="evenodd" d="M16.3799 50.2151C16.1358 50.3857 15.8431 50.4728 15.5455 50.4634C15.3278 50.4743 15.1102 50.4392 14.907 50.3605C14.7037 50.2817 14.5193 50.161 14.3657 50.0063C14.0643 49.6513 13.9121 49.1933 13.9412 48.7284V48.2605H17.8115V47.0402C17.8579 46.3318 17.6371 45.6318 17.1929 45.0784C16.9726 44.8447 16.7039 44.6621 16.4056 44.5434C16.1074 44.4246 15.7868 44.3725 15.4663 44.3908C15.1319 44.3691 14.7968 44.4225 14.4856 44.547C14.1745 44.6716 13.8951 44.8642 13.6679 45.1108C13.2139 45.6933 12.9875 46.4215 13.0312 47.159V48.7032C12.9916 49.4125 13.2289 50.1095 13.693 50.647C14.1379 51.0357 14.6949 51.2728 15.2833 51.3239C15.8717 51.375 16.4611 51.2376 16.9663 50.9314C17.3476 50.6619 17.6155 50.2605 17.718 49.8047L16.8404 49.5239C16.7678 49.7991 16.6058 50.0422 16.3799 50.2151ZM13.9412 47.087C13.9089 46.6037 14.0505 46.1249 14.3405 45.7371C14.4782 45.5776 14.6507 45.4518 14.8446 45.3694C15.0386 45.287 15.2488 45.2503 15.4591 45.262C15.6615 45.2484 15.8643 45.282 16.0515 45.3601C16.2387 45.4382 16.4053 45.5586 16.5382 45.7119C16.8098 46.0777 16.9436 46.5277 16.9159 46.9826V47.4037H13.9556L13.9412 47.087Z" fill="#005375"/>
<path fill-rule="evenodd" clip-rule="evenodd" d="M27.5914 51.2374H28.6309L25.8001 41.792H24.6706L21.8398 51.2374H22.8794L23.5196 48.9445H26.9511L27.5914 51.2374ZM23.7642 48.0734L25.2354 42.8035L26.7065 48.0734H23.7642Z" fill="#005375"/>
<path fill-rule="evenodd" clip-rule="evenodd" d="M33.2388 44.4519C33.1037 44.4042 32.9612 44.381 32.8179 44.3835C32.3577 44.3784 31.9044 44.4964 31.505 44.7255C31.1778 44.9156 30.8936 45.1718 30.6706 45.4778V44.4951H29.7354V51.2372H30.6706V46.968C30.6663 46.7321 30.7119 46.498 30.8042 46.2809C30.8966 46.0638 31.0336 45.8686 31.2065 45.7082C31.6011 45.3869 32.1015 45.2251 32.6093 45.2546C32.7387 45.2519 32.8677 45.2713 32.9906 45.3122C33.0934 45.3411 33.1865 45.397 33.2603 45.4742L33.5661 44.6499C33.4709 44.5631 33.3597 44.4958 33.2388 44.4519Z" fill="#005375"/>
<path fill-rule="evenodd" clip-rule="evenodd" d="M37.1056 45.3338V44.4951H35.7603V42.5333H34.8395V44.4951H34.1201V45.3338H34.8395V49.4842C34.8045 49.954 34.9314 50.4215 35.1992 50.8089C35.3517 50.9725 35.5396 51.099 35.7484 51.1789C35.9572 51.2587 36.1815 51.2898 36.4042 51.2696H37.1056V50.3949H36.5337C36.4255 50.4016 36.3172 50.3836 36.2169 50.3425C36.1167 50.3013 36.027 50.2381 35.9546 50.1574C35.8139 49.9663 35.7451 49.7318 35.7603 49.495V45.3338H37.1056Z" fill="#005375"/>
<path fill-rule="evenodd" clip-rule="evenodd" d="M43.8818 51.3345C43.5631 51.3546 43.2437 51.308 42.9439 51.1977C42.6442 51.0874 42.3707 50.9157 42.1409 50.6938C41.7088 50.1973 41.488 49.5513 41.5258 48.8939V46.7954C41.5034 46.4695 41.5462 46.1424 41.6518 45.8333C41.7574 45.5242 41.9237 45.2394 42.1409 44.9955C42.629 44.5866 43.2453 44.3625 43.8818 44.3625C44.5184 44.3625 45.1347 44.5866 45.6228 44.9955C45.8399 45.2394 46.0062 45.5242 46.1118 45.8333C46.2175 46.1424 46.2603 46.4695 46.2378 46.7954V48.8975C46.2585 49.2233 46.2148 49.5499 46.1093 49.8587C46.0037 50.1675 45.8384 50.4525 45.6228 50.6974C45.3912 50.9164 45.1173 51.0857 44.8179 51.1946C44.5185 51.3036 44.1999 51.35 43.8818 51.3309V51.3345ZM43.8818 50.4634C44.0765 50.4761 44.2715 50.4463 44.4535 50.3761C44.6355 50.3058 44.8 50.1968 44.9357 50.0566C45.1968 49.732 45.3253 49.3204 45.2954 48.9047V46.7954C45.3254 46.383 45.1968 45.9748 44.9357 45.6543C44.6484 45.3927 44.2739 45.2478 43.8854 45.2478C43.497 45.2478 43.1225 45.3927 42.8351 45.6543C42.5754 45.9755 42.4469 46.3832 42.4754 46.7954V48.8975C42.447 49.313 42.5753 49.7241 42.8351 50.0494C42.9683 50.1894 43.1301 50.2989 43.3096 50.3704C43.489 50.4418 43.6818 50.4736 43.8746 50.4634H43.8818Z" fill="#005375"/>
<path fill-rule="evenodd" clip-rule="evenodd" d="M49.1552 42.8937C49.2279 42.8148 49.3173 42.7532 49.4168 42.7133C49.5164 42.6735 49.6236 42.6564 49.7307 42.6633H50.5472V41.7922H49.6407C49.4186 41.777 49.1958 41.8096 48.9873 41.8878C48.7788 41.9661 48.5895 42.0881 48.4322 42.2458C48.1348 42.6233 47.9886 43.0981 48.0221 43.5776V44.4956H47.3027V45.2983H48.0221V51.2377H48.9573V45.2983H50.5472V44.4956H48.9573V43.556C48.9426 43.3188 49.0127 43.084 49.1552 42.8937Z" fill="#005375"/>
<path fill-rule="evenodd" clip-rule="evenodd" d="M57.5 46.2804H60.284V48.3538C60.3007 48.9173 60.1939 49.4775 59.9711 49.9952C59.7768 50.4229 59.4484 50.7755 59.0359 50.9995C58.5597 51.2371 58.0318 51.3522 57.5 51.3343C56.9632 51.3521 56.4297 51.2437 55.9425 51.0175C55.5314 50.8156 55.1978 50.4843 54.9929 50.0744C54.7662 49.5909 54.6577 49.0604 54.6764 48.5266V44.6714C54.6585 44.109 54.7654 43.5496 54.9893 43.0335C55.1853 42.608 55.5133 42.257 55.9245 42.0328C56.3999 41.7927 56.9282 41.6763 57.4604 41.6945C57.9585 41.6785 58.4527 41.7861 58.8992 42.0076C59.289 42.2185 59.6062 42.5422 59.8092 42.9363C60.0438 43.4266 60.1771 43.9592 60.2013 44.5022H59.1905C59.1743 43.9789 58.9916 43.4745 58.669 43.0623C58.5139 42.8991 58.3251 42.7717 58.1157 42.689C57.9064 42.6063 57.6815 42.5703 57.4568 42.5836C57.2023 42.5657 56.9469 42.6034 56.7084 42.6942C56.4699 42.7849 56.254 42.9265 56.0756 43.1091C55.7334 43.5548 55.567 44.1108 55.608 44.6714V48.5266C55.5877 48.7861 55.6193 49.0471 55.7008 49.2943C55.7823 49.5415 55.9121 49.77 56.0828 49.9664C56.2734 50.1387 56.497 50.2706 56.7399 50.3541C56.9829 50.4377 57.2402 50.4711 57.4964 50.4524C57.7467 50.4697 57.9978 50.4327 58.2325 50.3438C58.4671 50.255 58.6798 50.1164 58.856 49.9377C59.1981 49.4962 59.3635 48.9431 59.32 48.3862V47.1551H57.5V46.2804Z" fill="#005375"/>
<path fill-rule="evenodd" clip-rule="evenodd" d="M63.0717 41.9722H62.1401V42.9153L63.0753 42.9081L63.0717 41.9722Z" fill="#005375"/>
<path fill-rule="evenodd" clip-rule="evenodd" d="M62.1401 44.4951V51.2372H63.0753L63.0717 44.4951H62.1401Z" fill="#005375"/>
<path fill-rule="evenodd" clip-rule="evenodd" d="M67.0573 49.9594L68.7515 44.4951H69.7263L67.4566 51.2372H66.6545L64.374 44.4951H65.356L67.0573 49.9594Z" fill="#005375"/>
<path fill-rule="evenodd" clip-rule="evenodd" d="M71.9558 41.9722H71.0278V42.9153L71.963 42.9081L71.9558 41.9722Z" fill="#005375"/>
<path fill-rule="evenodd" clip-rule="evenodd" d="M71.0278 44.4951V51.2372H71.963L71.9558 44.4951H71.0278Z" fill="#005375"/>
<path fill-rule="evenodd" clip-rule="evenodd" d="M78.0997 44.9955C77.9168 44.7823 77.6865 44.6149 77.4272 44.5067C77.168 44.3986 76.8871 44.3527 76.607 44.3727C76.205 44.3669 75.8089 44.4688 75.4596 44.6679C75.1757 44.8453 74.9428 45.0934 74.7833 45.3878V44.4987H73.8481V51.2409H74.7833V46.7773C74.751 46.3691 74.8802 45.9645 75.143 45.6506C75.2847 45.5122 75.4542 45.4056 75.6403 45.3379C75.8264 45.2703 76.0247 45.2431 76.2221 45.2583C76.4199 45.2454 76.6182 45.2744 76.8041 45.3432C76.99 45.412 77.1594 45.5192 77.3012 45.6578C77.565 45.9838 77.6937 46.3987 77.6609 46.8169V51.2409H78.5961V46.7953C78.6454 46.1558 78.4698 45.5191 78.0997 44.9955Z" fill="#005375"/>
<path fill-rule="evenodd" clip-rule="evenodd" d="M83.9413 44.4953V45.3556C83.7782 45.0743 83.5453 44.8399 83.2651 44.6752C82.9247 44.4804 82.5385 44.3798 82.1464 44.3837C81.8737 44.3716 81.602 44.4229 81.3524 44.5334C81.1028 44.644 80.8821 44.8108 80.7076 45.0208C80.3321 45.5429 80.1479 46.1785 80.1861 46.8206V48.9804C80.1513 49.6071 80.3399 50.2258 80.7184 50.7263C80.9011 50.935 81.1287 51.0996 81.3842 51.2074C81.6397 51.3153 81.9163 51.3637 82.1932 51.349C82.5886 51.3578 82.9794 51.2622 83.3262 51.0718C83.5924 50.9116 83.8051 50.6762 83.9377 50.3951V51.6406C83.9503 51.8439 83.9214 52.0478 83.8528 52.2396C83.7841 52.4315 83.6772 52.6073 83.5384 52.7564C83.3872 52.8951 83.2095 53.0017 83.016 53.0698C82.8225 53.1378 82.6172 53.1659 82.4126 53.1524C82.1068 53.165 81.8059 53.0722 81.5601 52.8896C81.3258 52.7063 81.166 52.4441 81.1105 52.1517L80.2688 52.4073C80.296 52.6381 80.3699 52.8609 80.4862 53.0621C80.6025 53.2633 80.7586 53.4385 80.945 53.5772C81.3666 53.8691 81.8716 54.0156 82.3838 53.9947C82.7161 54.0167 83.0493 53.9716 83.3638 53.8621C83.6784 53.7527 83.9677 53.5811 84.2146 53.3576C84.439 53.1175 84.6119 52.8339 84.7227 52.5243C84.8334 52.2148 84.8796 51.8859 84.8585 51.5578V44.4953H83.9413ZM83.9413 49.0236C83.9472 49.2809 83.893 49.5361 83.783 49.7687C83.6793 49.9963 83.5119 50.1889 83.301 50.3231C83.0784 50.4666 82.8176 50.5394 82.5529 50.5319C82.3536 50.5467 82.1536 50.5172 81.967 50.4457C81.7805 50.3741 81.6121 50.2622 81.4738 50.1179C81.2067 49.7985 81.0716 49.389 81.0961 48.9732V46.8134C81.072 46.3845 81.2064 45.9617 81.4738 45.6256C81.606 45.478 81.7697 45.3623 81.9528 45.2869C82.1359 45.2115 82.3336 45.1783 82.5313 45.19C82.7984 45.1823 83.0621 45.2523 83.2902 45.3916C83.4981 45.5252 83.6639 45.7148 83.7686 45.9387C83.8805 46.1771 83.9347 46.4386 83.9269 46.7018V49.0164L83.9413 49.0236Z" fill="#005375"/>
<path fill-rule="evenodd" clip-rule="evenodd" d="M10.2758 20.0501C9.23986 19.143 7.77111 18.6895 5.86953 18.6895H0.00292969V37.0764H5.85515C6.96605 37.1083 8.0706 36.8983 9.0924 36.4609C9.9392 36.0896 10.6521 35.4678 11.1355 34.6791C11.6228 33.8178 11.8642 32.839 11.8333 31.8497V23.9017C11.8189 22.2423 11.3117 20.9572 10.2758 20.0501ZM9.05282 31.9541C9.07473 32.3331 9.01329 32.7123 8.87284 33.065C8.73238 33.4176 8.51633 33.7351 8.23991 33.9951C7.59286 34.5131 6.77547 34.77 5.94867 34.7151H2.74739V21.0364H5.94867C6.77564 20.9801 7.59353 21.2371 8.23991 21.7563C8.51701 22.0166 8.73348 22.3347 8.87397 22.688C9.01445 23.0414 9.07552 23.4213 9.05282 23.8009V31.9541Z" fill="#C17012"/>
<path fill-rule="evenodd" clip-rule="evenodd" d="M16.6135 18.6895H15.2358V37.0908H16.6135H17.9767H26.0806V34.7223H17.9767V29.1392L24.9692 29.1284V26.7598H17.9767V21.0544H26.0806V18.6895H17.9767H16.6135Z" fill="#C17012"/>
<path fill-rule="evenodd" clip-rule="evenodd" d="M34.9977 29.5461H38.1881V31.5223C38.2158 31.9682 38.1532 32.4152 38.0043 32.8364C37.8553 33.2576 37.623 33.6444 37.3213 33.9736C37.0146 34.2711 36.65 34.5022 36.2503 34.6527C35.8506 34.8032 35.4242 34.8698 34.9977 34.8484C34.1236 34.8959 33.2652 34.603 32.6021 34.0312C32.3055 33.7454 32.0737 33.3992 31.9223 33.0161C31.7709 32.6329 31.7034 32.2217 31.7244 31.8103V24.2942C31.6759 23.3935 31.9819 22.5096 32.5769 21.8321C32.881 21.5261 33.246 21.2875 33.6481 21.1319C34.0503 20.9762 34.4807 20.907 34.9113 20.9285C35.2811 20.9147 35.6498 20.9758 35.9953 21.1082C36.3408 21.2405 36.6561 21.4415 36.922 21.6989C37.4968 22.3224 37.8264 23.1331 37.85 23.981H40.7995C40.7545 22.9298 40.4598 21.9043 39.9398 20.9897C39.4662 20.1892 38.7701 19.5438 37.9363 19.1323C36.9562 18.7034 35.8963 18.4877 34.8267 18.4995C33.757 18.5113 32.702 18.7503 31.7316 19.2007C30.8588 19.6473 30.1387 20.3441 29.6634 21.2021C29.1619 22.1538 28.9141 23.2188 28.944 24.2942V31.8103C28.9129 32.8286 29.1618 33.8359 29.6634 34.7224C30.1585 35.5483 30.8887 36.2076 31.7604 36.6158C32.7747 37.0812 33.8822 37.3078 34.9977 37.2781C36.0991 37.3096 37.1913 37.0685 38.1773 36.5762C39.0469 36.1204 39.7626 35.4179 40.2348 34.5568C40.7372 33.6068 40.9851 32.5427 40.9542 31.4683V27.1811H34.9833L34.9977 29.5461Z" fill="#C17012"/>
<path fill-rule="evenodd" clip-rule="evenodd" d="M53.7053 28.7176C54.4853 28.3595 55.144 27.7816 55.6009 27.0546C56.0612 26.2833 56.2932 25.397 56.2699 24.4989V23.419C56.2925 22.5323 56.0603 21.6577 55.6009 20.8992C55.1446 20.1778 54.485 19.6079 53.7053 19.2614C52.7812 18.8551 51.7792 18.6573 50.7702 18.6818H44.3784V37.076H47.1229V29.3044H50.3601L53.8456 37.076H56.9821L53.1478 28.9408C53.3373 28.8761 53.5234 28.8016 53.7053 28.7176ZM47.1229 21.0432H50.9392C51.2771 21.0148 51.617 21.0605 51.9354 21.1771C52.2538 21.2936 52.5429 21.4783 52.7826 21.7182C53.0223 21.9581 53.2069 22.2475 53.3234 22.5661C53.4398 22.8847 53.4855 23.2249 53.4571 23.563V24.4773C53.4748 24.8078 53.4239 25.1383 53.3075 25.4481C53.1911 25.7579 53.0118 26.0402 52.7809 26.2771C52.536 26.5041 52.2481 26.6798 51.9343 26.7935C51.6204 26.9073 51.287 26.9569 50.9536 26.9394H47.1229V21.0432Z" fill="#C17012"/>
<path fill-rule="evenodd" clip-rule="evenodd" d="M61.4924 18.6895H60.1147V37.0908H61.4924H62.8556H70.9595V34.7223H62.8556V29.1392L69.8481 29.1284V26.7598H62.8556V21.0544H70.9595V18.6895H62.8556H61.4924Z" fill="#C17012"/>
<path fill-rule="evenodd" clip-rule="evenodd" d="M84.8692 21.0544V18.6895H76.7653H75.402H74.0244V37.0908H75.402H76.7653H84.8692V34.7223H76.7653V29.1392L83.7577 29.1284V26.7598H76.7653V21.0544H84.8692Z" fill="#C17012"/>
<path fill-rule="evenodd" clip-rule="evenodd" d="M166.07 6.84674L150.474 52.5694H141.237L156.909 7.23909L134.086 7.32909V0.547363H166.07V6.84674Z" fill="#C17012"/>
<path fill-rule="evenodd" clip-rule="evenodd" d="M112.533 53.1055C108.799 53.1055 105.699 52.5943 103.221 51.5684C100.869 50.6573 98.8701 49.0177 97.5159 46.8889C96.2066 44.7903 95.4584 42.1266 95.293 38.8797H104.181C104.303 40.6255 104.667 42.0294 105.307 43.1165C105.941 44.1997 106.909 45.0482 108.066 45.5354C109.486 46.098 111.007 46.3603 112.533 46.3058C115.004 46.3058 116.925 45.7694 118.288 44.6823C119.651 43.5952 120.331 42.069 120.331 40.0892V35.6796C120.331 33.5198 119.709 31.8352 118.457 30.6401C117.206 29.4451 115.439 28.8583 113.152 28.8583H108.612V22.199H113.17C115.105 22.199 116.601 21.6986 117.684 20.7087C118.767 19.7188 119.285 18.315 119.285 16.5079V12.1128C119.285 10.4138 118.687 9.10709 117.515 8.19278C116.342 7.27847 114.666 6.81052 112.501 6.81052C111.206 6.76659 109.919 7.03447 108.749 7.59164C107.713 8.13094 106.867 8.97519 106.325 10.0106C105.67 11.3324 105.292 12.7741 105.213 14.2474H96.3684C96.5843 11.0101 97.3312 8.34037 98.6093 6.23818C99.8788 4.14883 101.773 2.5118 104.023 1.55864C106.373 0.519549 109.269 0 112.713 0C117.607 0 121.388 1.0583 124.054 3.17489C126.737 5.27348 128.079 8.26477 128.079 12.1236V16.2056C128.072 18.1689 127.339 20.0601 126.022 21.5151C124.667 23.1277 122.73 24.4224 120.213 25.3991C123.051 26.0722 125.248 27.3285 126.817 29.1715C128.385 31.0145 129.147 33.3255 129.147 36.0612V40.1756C129.147 42.9005 128.507 45.2151 127.212 47.1625C125.917 49.1099 124.043 50.5677 121.525 51.5792C119.008 52.5907 116.051 53.1055 112.533 53.1055Z" fill="#C17012"/>
</svg>
