<svg width="10" height="16" viewBox="0 0 10 16" fill="none" xmlns="http://www.w3.org/2000/svg">
<path d="M1.99816 15.6135C1.55395 15.6135 1.17366 15.4553 0.857313 15.139C0.540979 14.8227 0.382812 14.4424 0.382812 13.9982C0.382812 13.5539 0.540979 13.1737 0.857313 12.8573C1.17366 12.541 1.55395 12.3828 1.99816 12.3828C2.44238 12.3828 2.82266 12.541 3.13901 12.8573C3.45535 13.1737 3.61351 13.5539 3.61351 13.9982C3.61351 14.4424 3.45535 14.8227 3.13901 15.139C2.82266 15.4553 2.44238 15.6135 1.99816 15.6135ZM7.99816 15.6135C7.55395 15.6135 7.17366 15.4553 6.85731 15.139C6.54098 14.8227 6.38281 14.4424 6.38281 13.9982C6.38281 13.5539 6.54098 13.1737 6.85731 12.8573C7.17366 12.541 7.55395 12.3828 7.99816 12.3828C8.44238 12.3828 8.82266 12.541 9.13901 12.8573C9.45535 13.1737 9.61351 13.5539 9.61351 13.9982C9.61351 14.4424 9.45535 14.8227 9.13901 15.139C8.82266 15.4553 8.44238 15.6135 7.99816 15.6135ZM1.99816 9.61351C1.55395 9.61351 1.17366 9.45535 0.857313 9.13901C0.540979 8.82266 0.382812 8.44238 0.382812 7.99816C0.382812 7.55395 0.540979 7.17366 0.857313 6.85731C1.17366 6.54098 1.55395 6.38281 1.99816 6.38281C2.44238 6.38281 2.82266 6.54098 3.13901 6.85731C3.45535 7.17366 3.61351 7.55395 3.61351 7.99816C3.61351 8.44238 3.45535 8.82266 3.13901 9.13901C2.82266 9.45535 2.44238 9.61351 1.99816 9.61351ZM7.99816 9.61351C7.55395 9.61351 7.17366 9.45535 6.85731 9.13901C6.54098 8.82266 6.38281 8.44238 6.38281 7.99816C6.38281 7.55395 6.54098 7.17366 6.85731 6.85731C7.17366 6.54098 7.55395 6.38281 7.99816 6.38281C8.44238 6.38281 8.82266 6.54098 9.13901 6.85731C9.45535 7.17366 9.61351 7.55395 9.61351 7.99816C9.61351 8.44238 9.45535 8.82266 9.13901 9.13901C8.82266 9.45535 8.44238 9.61351 7.99816 9.61351ZM1.99816 3.61351C1.55395 3.61351 1.17366 3.45535 0.857313 3.13901C0.540979 2.82266 0.382812 2.44238 0.382812 1.99816C0.382812 1.55395 0.540979 1.17366 0.857313 0.857314C1.17366 0.54098 1.55395 0.382812 1.99816 0.382812C2.44238 0.382812 2.82266 0.54098 3.13901 0.857314C3.45535 1.17366 3.61351 1.55395 3.61351 1.99816C3.61351 2.44238 3.45535 2.82266 3.13901 3.13901C2.82266 3.45535 2.44238 3.61351 1.99816 3.61351ZM7.99816 3.61351C7.55395 3.61351 7.17366 3.45535 6.85731 3.13901C6.54098 2.82266 6.38281 2.44238 6.38281 1.99816C6.38281 1.55395 6.54098 1.17366 6.85731 0.857314C7.17366 0.54098 7.55395 0.382812 7.99816 0.382812C8.44238 0.382812 8.82266 0.54098 9.13901 0.857314C9.45535 1.17366 9.61351 1.55395 9.61351 1.99816C9.61351 2.44238 9.45535 2.82266 9.13901 3.13901C8.82266 3.45535 8.44238 3.61351 7.99816 3.61351Z" fill="#555555"/>
</svg>
