<svg width="56" height="56" viewBox="0 0 56 56" fill="none" xmlns="http://www.w3.org/2000/svg">
<rect width="56" height="56" rx="8" fill="#FF1E1E"/>
<mask id="mask0_11121_23150" style="mask-type:alpha" maskUnits="userSpaceOnUse" x="16" y="16" width="24" height="24">
<rect x="16" y="16" width="24" height="24" fill="#D9D9D9"/>
</mask>
<g mask="url(#mask0_11121_23150)">
<path d="M35.2348 37.4423L30.3271 32.5346C28.8374 33.7923 27.2601 34.7676 25.5954 35.4605C23.9307 36.1535 22.2521 36.5 20.5598 36.5C20.1983 36.5 19.9313 36.4 19.7589 36.2C19.5864 36 19.5002 35.75 19.5002 35.45V32.2077C19.5002 31.9487 19.58 31.7253 19.7396 31.5375C19.8993 31.3497 20.1053 31.2276 20.3579 31.1712L23.1348 30.6058C23.3438 30.566 23.5681 30.583 23.8079 30.6567C24.0476 30.7304 24.2438 30.8436 24.3963 30.9962L26.6406 33.2596C27.056 33.025 27.5043 32.7413 27.9858 32.4086C28.4672 32.0759 28.8861 31.7564 29.2425 31.45L18.6579 20.8654C18.5195 20.7269 18.4486 20.5529 18.4454 20.3433C18.4422 20.1336 18.513 19.9564 18.6579 19.8115C18.8028 19.6667 18.9784 19.5942 19.1848 19.5942C19.3912 19.5942 19.5669 19.6667 19.7117 19.8115L36.2886 36.3884C36.4271 36.5269 36.4979 36.7009 36.5011 36.9105C36.5043 37.1201 36.4335 37.2974 36.2886 37.4423C36.1438 37.5871 35.9681 37.6596 35.7617 37.6596C35.5553 37.6596 35.3797 37.5871 35.2348 37.4423ZM25.2117 33.9385L23.4463 32.1538C23.4143 32.1218 23.3838 32.1009 23.355 32.0913C23.3261 32.0817 23.2925 32.0833 23.254 32.0961L21.154 32.5384C21.1028 32.5512 21.0643 32.5737 21.0387 32.6057C21.013 32.6378 21.0002 32.6795 21.0002 32.7308V34.8346C21.0002 34.873 21.013 34.9051 21.0387 34.9308C21.0643 34.9564 21.0963 34.9692 21.1348 34.9692C21.7604 34.9384 22.4306 34.8362 23.1454 34.6625C23.8601 34.4888 24.5489 34.2474 25.2117 33.9385ZM32.7617 30.0211L31.7079 28.9673C31.9707 28.6583 32.2425 28.2965 32.5233 27.8817C32.804 27.467 33.0355 27.0884 33.2175 26.7461L30.9079 24.4981C30.7554 24.3519 30.6525 24.1628 30.5992 23.9308C30.546 23.6987 30.5393 23.4884 30.5791 23.3L31.1521 20.3577C31.2085 20.1051 31.3306 19.899 31.5185 19.7394C31.7063 19.5798 31.9297 19.5 32.1887 19.5H35.4502C35.7502 19.5 36.0002 19.6016 36.2002 19.8048C36.4002 20.008 36.5002 20.2596 36.5002 20.5596C36.5002 22.2199 36.163 23.8647 35.4886 25.4942C34.8143 27.1237 33.9053 28.6327 32.7617 30.0211ZM33.9117 25.3269C34.2207 24.6256 34.4614 23.9224 34.6338 23.2173C34.8063 22.5122 34.9181 21.8179 34.9694 21.1346C34.9694 21.0961 34.9566 21.0641 34.931 21.0385C34.9053 21.0128 34.8733 21 34.8348 21H32.7117C32.6604 21 32.6188 21.0128 32.5867 21.0385C32.5547 21.0641 32.5322 21.1025 32.5194 21.1538L32.0694 23.3885C32.0566 23.4269 32.055 23.467 32.0646 23.5087C32.0742 23.5503 32.095 23.5872 32.1271 23.6192L33.9117 25.3269Z" fill="white"/>
</g>
</svg>
