<svg width="169" height="56" viewBox="0 0 169 56" fill="none" xmlns="http://www.w3.org/2000/svg">
<rect width="169" height="56" rx="8" fill="#FF1E1E"/>
<path d="M40.9 32.6538L44.5 29.0538L48.1 32.6538L49.1538 31.6L45.5538 28L49.1538 24.4L48.1 23.3462L44.5 26.9462L40.9 23.3462L39.8461 24.4L43.4461 28L39.8461 31.6L40.9 32.6538ZM44.5016 37.5C43.1877 37.5 41.9527 37.2506 40.7966 36.752C39.6404 36.2533 38.6347 35.5765 37.7795 34.7217C36.9243 33.8669 36.2472 32.8616 35.7483 31.706C35.2494 30.5504 35 29.3156 35 28.0017C35 26.6877 35.2493 25.4527 35.748 24.2966C36.2467 23.1404 36.9234 22.1347 37.7783 21.2795C38.6331 20.4243 39.6383 19.7472 40.794 19.2483C41.9496 18.7494 43.1844 18.5 44.4983 18.5C45.8122 18.5 47.0473 18.7493 48.2034 19.248C49.3596 19.7467 50.3652 20.4234 51.2205 21.2783C52.0757 22.1331 52.7527 23.1383 53.2516 24.294C53.7505 25.4496 54 26.6844 54 27.9983C54 29.3122 53.7506 30.5473 53.252 31.7034C52.7533 32.8596 52.0765 33.8652 51.2217 34.7205C50.3669 35.5757 49.3616 36.2527 48.206 36.7516C47.0504 37.2505 45.8156 37.5 44.5016 37.5ZM44.5 36C46.7333 36 48.625 35.225 50.175 33.675C51.725 32.125 52.5 30.2333 52.5 28C52.5 25.7666 51.725 23.875 50.175 22.325C48.625 20.775 46.7333 20 44.5 20C42.2666 20 40.375 20.775 38.825 22.325C37.275 23.875 36.5 25.7666 36.5 28C36.5 30.2333 37.275 32.125 38.825 33.675C40.375 35.225 42.2666 36 44.5 36Z" fill="white"/>
<path d="M68.93 35V21.9091H76.8305V23.3153H70.5152V27.7386H76.4214V29.1449H70.5152V33.5938H76.9328V35H68.93ZM80.9917 29.0938V35H79.4832V25.1818H80.9406V26.7159H81.0684C81.2986 26.2173 81.648 25.8168 82.1167 25.5142C82.5855 25.2074 83.1906 25.054 83.9321 25.054C84.5969 25.054 85.1785 25.1903 85.6771 25.4631C86.1757 25.7315 86.5635 26.1406 86.8405 26.6903C87.1175 27.2358 87.2559 27.9261 87.2559 28.7614V35H85.7474V28.8636C85.7474 28.0923 85.5471 27.4915 85.1466 27.0611C84.746 26.6264 84.1963 26.4091 83.4974 26.4091C83.0159 26.4091 82.5855 26.5135 82.2062 26.7223C81.8312 26.9311 81.5351 27.2358 81.3177 27.6364C81.1004 28.0369 80.9917 28.5227 80.9917 29.0938ZM93.7199 35.2045C92.9017 35.2045 92.1794 34.9979 91.553 34.5845C90.9266 34.1669 90.4365 33.5788 90.0828 32.8203C89.7291 32.0575 89.5523 31.1562 89.5523 30.1165C89.5523 29.0852 89.7291 28.1903 90.0828 27.4318C90.4365 26.6733 90.9287 26.0874 91.5594 25.674C92.1901 25.2607 92.9188 25.054 93.7455 25.054C94.3847 25.054 94.8896 25.1605 95.2604 25.3736C95.6354 25.5824 95.9209 25.821 96.1169 26.0895C96.3172 26.3537 96.4727 26.571 96.5835 26.7415H96.7114V21.9091H98.2199V35H96.7625V33.4915H96.5835C96.4727 33.6705 96.3151 33.8963 96.1105 34.169C95.906 34.4375 95.6141 34.6783 95.2348 34.8913C94.8556 35.1001 94.3506 35.2045 93.7199 35.2045ZM93.9244 33.8494C94.5296 33.8494 95.0409 33.6918 95.4585 33.3764C95.8762 33.0568 96.1936 32.6158 96.411 32.0533C96.6283 31.4865 96.7369 30.8324 96.7369 30.0909C96.7369 29.358 96.6304 28.7166 96.4173 28.1669C96.2043 27.6129 95.8889 27.1825 95.4713 26.8757C95.0537 26.5646 94.5381 26.4091 93.9244 26.4091C93.2852 26.4091 92.7526 26.5732 92.3264 26.9013C91.9046 27.2251 91.5871 27.6662 91.374 28.2244C91.1652 28.7784 91.0608 29.4006 91.0608 30.0909C91.0608 30.7898 91.1673 31.4247 91.3804 31.9957C91.5977 32.5625 91.9173 33.0142 92.3392 33.3509C92.7654 33.6832 93.2938 33.8494 93.9244 33.8494ZM116.993 26H115.408C115.314 25.544 115.15 25.1435 114.916 24.7983C114.686 24.4531 114.405 24.1634 114.072 23.929C113.744 23.6903 113.38 23.5114 112.979 23.392C112.579 23.2727 112.161 23.2131 111.726 23.2131C110.934 23.2131 110.216 23.4134 109.572 23.8139C108.933 24.2145 108.424 24.8047 108.044 25.5845C107.669 26.3643 107.482 27.321 107.482 28.4545C107.482 29.5881 107.669 30.5447 108.044 31.3246C108.424 32.1044 108.933 32.6946 109.572 33.0952C110.216 33.4957 110.934 33.696 111.726 33.696C112.161 33.696 112.579 33.6364 112.979 33.517C113.38 33.3977 113.744 33.2209 114.072 32.9865C114.405 32.7479 114.686 32.456 114.916 32.1108C115.15 31.7614 115.314 31.3608 115.408 30.9091H116.993C116.874 31.5781 116.657 32.1768 116.341 32.7053C116.026 33.2337 115.634 33.6832 115.165 34.054C114.696 34.4205 114.17 34.6996 113.586 34.8913C113.007 35.0831 112.387 35.179 111.726 35.179C110.61 35.179 109.617 34.9062 108.748 34.3608C107.878 33.8153 107.194 33.0398 106.696 32.0341C106.197 31.0284 105.948 29.8352 105.948 28.4545C105.948 27.0739 106.197 25.8807 106.696 24.875C107.194 23.8693 107.878 23.0938 108.748 22.5483C109.617 22.0028 110.61 21.7301 111.726 21.7301C112.387 21.7301 113.007 21.826 113.586 22.0178C114.17 22.2095 114.696 22.4908 115.165 22.8615C115.634 23.228 116.026 23.6754 116.341 24.2038C116.657 24.728 116.874 25.3267 116.993 26ZM122.24 35.2301C121.617 35.2301 121.053 35.1129 120.546 34.8786C120.039 34.6399 119.636 34.2969 119.338 33.8494C119.039 33.3977 118.89 32.8523 118.89 32.2131C118.89 31.6506 119.001 31.1946 119.223 30.8452C119.444 30.4915 119.74 30.2145 120.111 30.0142C120.482 29.8139 120.891 29.6648 121.338 29.5668C121.79 29.4645 122.244 29.3835 122.7 29.3239C123.296 29.2472 123.78 29.1896 124.151 29.1513C124.526 29.1087 124.799 29.0384 124.969 28.9403C125.144 28.8423 125.231 28.6719 125.231 28.429V28.3778C125.231 27.7472 125.059 27.2571 124.713 26.9077C124.372 26.5582 123.855 26.3835 123.16 26.3835C122.44 26.3835 121.875 26.5412 121.466 26.8565C121.057 27.1719 120.769 27.5085 120.603 27.8665L119.171 27.3551C119.427 26.7585 119.768 26.294 120.194 25.9616C120.625 25.625 121.093 25.3906 121.6 25.2585C122.112 25.1222 122.615 25.054 123.109 25.054C123.424 25.054 123.786 25.0923 124.196 25.169C124.609 25.2415 125.007 25.3928 125.391 25.6229C125.779 25.853 126.1 26.2003 126.356 26.6648C126.612 27.1293 126.74 27.7514 126.74 28.5312V35H125.231V33.6705H125.154C125.052 33.8835 124.882 34.1115 124.643 34.3544C124.404 34.5973 124.087 34.804 123.691 34.9744C123.294 35.1449 122.811 35.2301 122.24 35.2301ZM122.47 33.875C123.066 33.875 123.569 33.7578 123.978 33.5234C124.392 33.2891 124.703 32.9865 124.911 32.6158C125.125 32.245 125.231 31.8551 125.231 31.446V30.0653C125.167 30.142 125.027 30.2124 124.809 30.2763C124.596 30.3359 124.349 30.3892 124.068 30.4361C123.791 30.4787 123.52 30.517 123.256 30.5511C122.996 30.581 122.785 30.6065 122.623 30.6278C122.231 30.679 121.865 30.7621 121.524 30.8771C121.187 30.9879 120.914 31.1562 120.706 31.3821C120.501 31.6037 120.399 31.9062 120.399 32.2898C120.399 32.8139 120.593 33.2102 120.98 33.4787C121.372 33.7429 121.869 33.875 122.47 33.875ZM131.002 21.9091V35H129.493V21.9091H131.002ZM135.273 21.9091V35H133.764V21.9091H135.273Z" fill="white"/>
</svg>
