<svg width="203" height="56" viewBox="0 0 203 56" fill="none" xmlns="http://www.w3.org/2000/svg">
<rect width="203" height="56" rx="8" fill="#FFE0E0"/>
<path d="M40.9 32.6538L44.5 29.0538L48.1 32.6538L49.1538 31.6L45.5538 28L49.1538 24.4L48.1 23.3462L44.5 26.9462L40.9 23.3462L39.8461 24.4L43.4461 28L39.8461 31.6L40.9 32.6538ZM44.5016 37.5C43.1877 37.5 41.9527 37.2506 40.7966 36.752C39.6404 36.2533 38.6347 35.5765 37.7795 34.7217C36.9243 33.8669 36.2472 32.8616 35.7483 31.706C35.2494 30.5504 35 29.3156 35 28.0017C35 26.6877 35.2493 25.4527 35.748 24.2966C36.2467 23.1404 36.9234 22.1347 37.7783 21.2795C38.6331 20.4243 39.6383 19.7472 40.794 19.2483C41.9496 18.7494 43.1844 18.5 44.4983 18.5C45.8122 18.5 47.0473 18.7493 48.2034 19.248C49.3596 19.7467 50.3652 20.4234 51.2205 21.2783C52.0757 22.1331 52.7527 23.1383 53.2516 24.294C53.7505 25.4496 54 26.6844 54 27.9983C54 29.3122 53.7506 30.5473 53.252 31.7034C52.7533 32.8596 52.0765 33.8652 51.2217 34.7205C50.3669 35.5757 49.3616 36.2527 48.206 36.7516C47.0504 37.2505 45.8156 37.5 44.5016 37.5ZM44.5 36C46.7333 36 48.625 35.225 50.175 33.675C51.725 32.125 52.5 30.2333 52.5 28C52.5 25.7666 51.725 23.875 50.175 22.325C48.625 20.775 46.7333 20 44.5 20C42.2666 20 40.375 20.775 38.825 22.325C37.275 23.875 36.5 25.7666 36.5 28C36.5 30.2333 37.275 32.125 38.825 33.675C40.375 35.225 42.2666 36 44.5 36Z" fill="#FF1E1E"/>
<path d="M68.6682 35V21.9091H76.5688V23.3153H70.2535V27.7386H76.1597V29.1449H70.2535V33.5938H76.6711V35H68.6682ZM80.73 29.0938V35H79.2215V25.1818H80.6789V26.7159H80.8067C81.0368 26.2173 81.3863 25.8168 81.855 25.5142C82.3238 25.2074 82.9289 25.054 83.6704 25.054C84.3351 25.054 84.9168 25.1903 85.4154 25.4631C85.914 25.7315 86.3018 26.1406 86.5787 26.6903C86.8557 27.2358 86.9942 27.9261 86.9942 28.7614V35H85.4857V28.8636C85.4857 28.0923 85.2854 27.4915 84.8849 27.0611C84.4843 26.6264 83.9346 26.4091 83.2357 26.4091C82.7542 26.4091 82.3238 26.5135 81.9445 26.7223C81.5695 26.9311 81.2733 27.2358 81.056 27.6364C80.8387 28.0369 80.73 28.5227 80.73 29.0938ZM93.4582 35.2045C92.64 35.2045 91.9177 34.9979 91.2913 34.5845C90.6649 34.1669 90.1748 33.5788 89.8211 32.8203C89.4674 32.0575 89.2906 31.1562 89.2906 30.1165C89.2906 29.0852 89.4674 28.1903 89.8211 27.4318C90.1748 26.6733 90.667 26.0874 91.2977 25.674C91.9284 25.2607 92.657 25.054 93.4838 25.054C94.123 25.054 94.6279 25.1605 94.9987 25.3736C95.3737 25.5824 95.6592 25.821 95.8552 26.0895C96.0555 26.3537 96.211 26.571 96.3218 26.7415H96.4497V21.9091H97.9582V35H96.5008V33.4915H96.3218C96.211 33.6705 96.0534 33.8963 95.8488 34.169C95.6443 34.4375 95.3524 34.6783 94.9731 34.8913C94.5938 35.1001 94.0889 35.2045 93.4582 35.2045ZM93.6627 33.8494C94.2678 33.8494 94.7792 33.6918 95.1968 33.3764C95.6144 33.0568 95.9319 32.6158 96.1492 32.0533C96.3666 31.4865 96.4752 30.8324 96.4752 30.0909C96.4752 29.358 96.3687 28.7166 96.1556 28.1669C95.9426 27.6129 95.6272 27.1825 95.2096 26.8757C94.792 26.5646 94.2764 26.4091 93.6627 26.4091C93.0235 26.4091 92.4909 26.5732 92.0647 26.9013C91.6428 27.2251 91.3254 27.6662 91.1123 28.2244C90.9035 28.7784 90.7991 29.4006 90.7991 30.0909C90.7991 30.7898 90.9056 31.4247 91.1187 31.9957C91.336 32.5625 91.6556 33.0142 92.0775 33.3509C92.5036 33.6832 93.032 33.8494 93.6627 33.8494ZM113.357 25.1818C113.28 24.5341 112.969 24.0312 112.423 23.6733C111.878 23.3153 111.209 23.1364 110.416 23.1364C109.837 23.1364 109.33 23.2301 108.895 23.4176C108.465 23.6051 108.128 23.8629 107.885 24.1911C107.646 24.5192 107.527 24.892 107.527 25.3097C107.527 25.6591 107.61 25.9595 107.776 26.2109C107.947 26.4581 108.164 26.6648 108.428 26.831C108.693 26.9929 108.97 27.1271 109.259 27.2337C109.549 27.3359 109.815 27.419 110.058 27.483L111.388 27.8409C111.729 27.9304 112.108 28.054 112.526 28.2116C112.948 28.3693 113.35 28.5845 113.734 28.8572C114.122 29.1257 114.441 29.4709 114.693 29.8928C114.944 30.3146 115.07 30.8324 115.07 31.446C115.07 32.1534 114.884 32.7926 114.514 33.3636C114.147 33.9347 113.61 34.3885 112.903 34.7251C112.2 35.0618 111.345 35.2301 110.34 35.2301C109.402 35.2301 108.59 35.0788 107.904 34.7763C107.222 34.4737 106.685 34.0518 106.293 33.5107C105.906 32.9695 105.686 32.3409 105.635 31.625H107.271C107.314 32.1193 107.48 32.5284 107.77 32.8523C108.064 33.1719 108.435 33.4105 108.882 33.5682C109.334 33.7216 109.82 33.7983 110.34 33.7983C110.945 33.7983 111.488 33.7003 111.97 33.5043C112.451 33.304 112.832 33.027 113.114 32.6733C113.395 32.3153 113.536 31.8977 113.536 31.4205C113.536 30.9858 113.414 30.6321 113.171 30.3594C112.928 30.0866 112.609 29.8651 112.212 29.6946C111.816 29.5241 111.388 29.375 110.928 29.2472L109.317 28.7869C108.294 28.4929 107.484 28.0732 106.888 27.5277C106.291 26.9822 105.993 26.2685 105.993 25.3864C105.993 24.6534 106.191 24.0142 106.587 23.4688C106.988 22.919 107.525 22.4929 108.198 22.1903C108.876 21.8835 109.632 21.7301 110.467 21.7301C111.311 21.7301 112.061 21.8814 112.717 22.1839C113.374 22.4822 113.894 22.8913 114.277 23.4112C114.665 23.9311 114.869 24.5213 114.891 25.1818H113.357ZM121.588 35.2045C120.642 35.2045 119.826 34.9957 119.14 34.5781C118.458 34.1562 117.932 33.5682 117.561 32.8139C117.195 32.0554 117.011 31.1733 117.011 30.1676C117.011 29.1619 117.195 28.2756 117.561 27.5085C117.932 26.7372 118.447 26.1364 119.108 25.706C119.773 25.2713 120.548 25.054 121.435 25.054C121.946 25.054 122.451 25.1392 122.949 25.3097C123.448 25.4801 123.902 25.7571 124.311 26.1406C124.72 26.5199 125.046 27.0227 125.289 27.6491C125.532 28.2756 125.653 29.0469 125.653 29.9631V30.6023H118.085V29.2983H124.119C124.119 28.7443 124.008 28.25 123.787 27.8153C123.57 27.3807 123.258 27.0376 122.854 26.7862C122.453 26.5348 121.98 26.4091 121.435 26.4091C120.834 26.4091 120.314 26.5582 119.875 26.8565C119.44 27.1506 119.106 27.5341 118.871 28.0071C118.637 28.4801 118.52 28.9872 118.52 29.5284V30.3977C118.52 31.1392 118.648 31.7678 118.903 32.2834C119.163 32.7947 119.523 33.1847 119.984 33.4531C120.444 33.7173 120.979 33.8494 121.588 33.8494C121.984 33.8494 122.342 33.794 122.662 33.6832C122.986 33.5682 123.265 33.3977 123.499 33.1719C123.734 32.9418 123.915 32.6562 124.043 32.3153L125.5 32.7244C125.347 33.2188 125.089 33.6534 124.726 34.0284C124.364 34.3991 123.917 34.6889 123.384 34.8977C122.851 35.1023 122.253 35.2045 121.588 35.2045ZM134.903 27.3807L133.547 27.7642C133.462 27.5384 133.337 27.3189 133.17 27.1058C133.008 26.8885 132.787 26.7095 132.506 26.5689C132.224 26.4283 131.864 26.358 131.425 26.358C130.824 26.358 130.324 26.4964 129.923 26.7734C129.527 27.0462 129.329 27.3935 129.329 27.8153C129.329 28.1903 129.465 28.4865 129.738 28.7038C130.011 28.9212 130.437 29.1023 131.016 29.2472L132.474 29.6051C133.351 29.8182 134.006 30.1442 134.436 30.5831C134.866 31.0178 135.082 31.5781 135.082 32.2642C135.082 32.8267 134.92 33.3295 134.596 33.7727C134.276 34.2159 133.829 34.5653 133.253 34.821C132.678 35.0767 132.009 35.2045 131.246 35.2045C130.245 35.2045 129.416 34.9872 128.76 34.5526C128.104 34.1179 127.688 33.483 127.513 32.6477L128.945 32.2898C129.082 32.8182 129.339 33.2145 129.719 33.4787C130.102 33.7429 130.603 33.875 131.221 33.875C131.924 33.875 132.482 33.7259 132.896 33.4276C133.313 33.125 133.522 32.7628 133.522 32.3409C133.522 32 133.403 31.7145 133.164 31.4844C132.925 31.25 132.559 31.0753 132.065 30.9602L130.428 30.5767C129.529 30.3636 128.869 30.0334 128.447 29.5859C128.029 29.1342 127.82 28.5696 127.82 27.892C127.82 27.3381 127.976 26.848 128.287 26.4219C128.602 25.9957 129.03 25.6612 129.572 25.4183C130.117 25.1754 130.735 25.054 131.425 25.054C132.397 25.054 133.16 25.267 133.714 25.6932C134.272 26.1193 134.668 26.6818 134.903 27.3807ZM144.307 27.3807L142.952 27.7642C142.867 27.5384 142.741 27.3189 142.575 27.1058C142.413 26.8885 142.191 26.7095 141.91 26.5689C141.629 26.4283 141.269 26.358 140.83 26.358C140.229 26.358 139.728 26.4964 139.328 26.7734C138.931 27.0462 138.733 27.3935 138.733 27.8153C138.733 28.1903 138.869 28.4865 139.142 28.7038C139.415 28.9212 139.841 29.1023 140.421 29.2472L141.878 29.6051C142.756 29.8182 143.41 30.1442 143.84 30.5831C144.271 31.0178 144.486 31.5781 144.486 32.2642C144.486 32.8267 144.324 33.3295 144 33.7727C143.68 34.2159 143.233 34.5653 142.658 34.821C142.082 35.0767 141.413 35.2045 140.651 35.2045C139.649 35.2045 138.82 34.9872 138.164 34.5526C137.508 34.1179 137.092 33.483 136.918 32.6477L138.35 32.2898C138.486 32.8182 138.744 33.2145 139.123 33.4787C139.506 33.7429 140.007 33.875 140.625 33.875C141.328 33.875 141.886 33.7259 142.3 33.4276C142.717 33.125 142.926 32.7628 142.926 32.3409C142.926 32 142.807 31.7145 142.568 31.4844C142.33 31.25 141.963 31.0753 141.469 30.9602L139.832 30.5767C138.933 30.3636 138.273 30.0334 137.851 29.5859C137.433 29.1342 137.225 28.5696 137.225 27.892C137.225 27.3381 137.38 26.848 137.691 26.4219C138.006 25.9957 138.435 25.6612 138.976 25.4183C139.521 25.1754 140.139 25.054 140.83 25.054C141.801 25.054 142.564 25.267 143.118 25.6932C143.676 26.1193 144.073 26.6818 144.307 27.3807ZM146.757 35V25.1818H148.265V35H146.757ZM147.524 23.5455C147.23 23.5455 146.976 23.4453 146.763 23.245C146.554 23.0447 146.45 22.804 146.45 22.5227C146.45 22.2415 146.554 22.0007 146.763 21.8004C146.976 21.6001 147.23 21.5 147.524 21.5C147.818 21.5 148.069 21.6001 148.278 21.8004C148.491 22.0007 148.598 22.2415 148.598 22.5227C148.598 22.804 148.491 23.0447 148.278 23.245C148.069 23.4453 147.818 23.5455 147.524 23.5455ZM155.017 35.2045C154.13 35.2045 153.353 34.9936 152.684 34.5717C152.019 34.1499 151.499 33.5597 151.124 32.8011C150.753 32.0426 150.568 31.1562 150.568 30.142C150.568 29.1193 150.753 28.2266 151.124 27.4638C151.499 26.701 152.019 26.1087 152.684 25.6868C153.353 25.2649 154.13 25.054 155.017 25.054C155.903 25.054 156.679 25.2649 157.343 25.6868C158.013 26.1087 158.532 26.701 158.903 27.4638C159.278 28.2266 159.466 29.1193 159.466 30.142C159.466 31.1562 159.278 32.0426 158.903 32.8011C158.532 33.5597 158.013 34.1499 157.343 34.5717C156.679 34.9936 155.903 35.2045 155.017 35.2045ZM155.017 33.8494C155.69 33.8494 156.244 33.6768 156.679 33.3317C157.113 32.9865 157.435 32.5327 157.644 31.9702C157.853 31.4077 157.957 30.7983 157.957 30.142C157.957 29.4858 157.853 28.8743 157.644 28.3075C157.435 27.7408 157.113 27.2827 156.679 26.9332C156.244 26.5838 155.69 26.4091 155.017 26.4091C154.343 26.4091 153.79 26.5838 153.355 26.9332C152.92 27.2827 152.598 27.7408 152.39 28.3075C152.181 28.8743 152.076 29.4858 152.076 30.142C152.076 30.7983 152.181 31.4077 152.39 31.9702C152.598 32.5327 152.92 32.9865 153.355 33.3317C153.79 33.6768 154.343 33.8494 155.017 33.8494ZM163.277 29.0938V35H161.768V25.1818H163.226V26.7159H163.354C163.584 26.2173 163.933 25.8168 164.402 25.5142C164.871 25.2074 165.476 25.054 166.217 25.054C166.882 25.054 167.464 25.1903 167.962 25.4631C168.461 25.7315 168.849 26.1406 169.126 26.6903C169.403 27.2358 169.541 27.9261 169.541 28.7614V35H168.033V28.8636C168.033 28.0923 167.832 27.4915 167.432 27.0611C167.031 26.6264 166.481 26.4091 165.783 26.4091C165.301 26.4091 164.871 26.5135 164.491 26.7223C164.116 26.9311 163.82 27.2358 163.603 27.6364C163.386 28.0369 163.277 28.5227 163.277 29.0938Z" fill="#FF1E1E"/>
</svg>
