<svg width="64" height="64" viewBox="0 0 64 64" fill="none" xmlns="http://www.w3.org/2000/svg">
<g clip-path="url(#clip0_34344_283695)">
<path d="M18.6654 32H45.332V37.3333H18.6654V32ZM18.6654 48H37.332V42.6667H18.6654V48ZM58.6654 20.2293V64H5.33203V8C5.33203 5.87827 6.17489 3.84344 7.67518 2.34315C9.17547 0.842855 11.2103 0 13.332 0L38.436 0L58.6654 20.2293ZM39.9987 18.6667H49.5614L39.9987 9.104V18.6667ZM53.332 58.6667V24H34.6654V5.33333H13.332C12.6248 5.33333 11.9465 5.61428 11.4464 6.11438C10.9463 6.61448 10.6654 7.29276 10.6654 8V58.6667H53.332Z" fill="#387DE5"/>
</g>
<defs>
<clipPath id="clip0_34344_283695">
<rect width="64" height="64" fill="white"/>
</clipPath>
</defs>
</svg>
