<svg width="18" height="18" viewBox="0 0 18 18" fill="none" xmlns="http://www.w3.org/2000/svg">
<g clip-path="url(#clip0_10743_55481)">
<path d="M9.00001 1.50007C9.99489 1.50333 10.9792 1.70387 11.8961 2.09008C12.813 2.47629 13.6441 3.0405 14.3415 3.75007H11.25V5.25007H15.1073C15.4765 5.24967 15.8305 5.10281 16.0916 4.8417C16.3528 4.5806 16.4996 4.22657 16.5 3.85732V6.56838e-05H15V2.30857C13.7081 1.14521 12.1065 0.381557 10.3893 0.110172C8.67213 -0.161213 6.91308 0.0713209 5.32539 0.779588C3.73771 1.48786 2.38955 2.64145 1.44432 4.10054C0.499094 5.55962 -0.00261313 7.26156 1.02355e-05 9.00007H1.50001C1.50219 7.01161 2.29307 5.10523 3.69912 3.69918C5.10517 2.29313 7.01156 1.50225 9.00001 1.50007Z" fill="#387DE5"/>
<path d="M16.5 9C16.5022 10.489 16.0604 11.9449 15.2312 13.1816C14.402 14.4184 13.223 15.3799 11.8447 15.9434C10.4665 16.5068 8.95151 16.6467 7.49338 16.3451C6.03524 16.0435 4.70011 15.314 3.6585 14.25H6.75V12.75H2.89275C2.52349 12.7504 2.16947 12.8973 1.90837 13.1584C1.64726 13.4195 1.5004 13.7735 1.5 14.1427V18H3V15.6915C4.2919 16.8549 5.8935 17.6185 7.61069 17.8899C9.32788 18.1613 11.0869 17.9287 12.6746 17.2205C14.2623 16.5122 15.6105 15.3586 16.5557 13.8995C17.5009 12.4404 18.0026 10.7385 18 9H16.5Z" fill="#387DE5"/>
</g>
<defs>
<clipPath id="clip0_10743_55481">
<rect width="18" height="18" fill="white"/>
</clipPath>
</defs>
</svg>
