<svg width="136" height="56" viewBox="0 0 136 56" fill="none" xmlns="http://www.w3.org/2000/svg">
<rect x="0.5" y="0.5" width="135" height="55" rx="7.5" stroke="#387DE5"/>
<mask id="mask0_17314_3975" style="mask-type:alpha" maskUnits="userSpaceOnUse" x="16" y="16" width="24" height="24">
<rect x="16" y="16" width="24" height="24" fill="#D9D9D9"/>
</mask>
<g mask="url(#mask0_17314_3975)">
<path d="M33.8846 25.7295L32.8 24.6757L34.65 22.8257H29.1346V21.3257H34.65L32.8307 19.5065L33.8846 18.4219L37.5384 22.1065L33.8846 25.7295ZM35.4403 36.4987C33.5557 36.4987 31.6625 36.0606 29.7605 35.1843C27.8586 34.308 26.1096 33.0718 24.5135 31.4757C22.9237 29.8795 21.6907 28.1321 20.8144 26.2334C19.9381 24.3347 19.5 22.443 19.5 20.5584C19.5 20.2584 19.6 20.0068 19.8 19.8036C20 19.6004 20.25 19.4988 20.55 19.4988H23.8115C24.0641 19.4988 24.2868 19.5812 24.4798 19.7459C24.6727 19.9107 24.7955 20.1142 24.848 20.3565L25.4211 23.2988C25.4609 23.5719 25.4525 23.8065 25.3961 24.0026C25.3397 24.1988 25.2384 24.3635 25.0923 24.4968L22.7826 26.7449C23.1544 27.4257 23.5791 28.0696 24.0567 28.6767C24.5343 29.2837 25.0513 29.8635 25.6077 30.4161C26.1564 30.9648 26.7397 31.4744 27.3577 31.9449C27.9756 32.4155 28.6429 32.8533 29.3596 33.2584L31.6038 30.9949C31.7602 30.8321 31.9497 30.718 32.1721 30.6526C32.3945 30.5873 32.6256 30.5712 32.8654 30.6046L35.6422 31.1699C35.8948 31.2366 36.1009 31.3655 36.2605 31.5565C36.4201 31.7475 36.5 31.9642 36.5 32.2065V35.4487C36.5 35.7487 36.3983 35.9987 36.1951 36.1987C35.9919 36.3988 35.7403 36.4987 35.4403 36.4987ZM22.0731 25.3257L23.8577 23.618C23.8897 23.5924 23.9106 23.5571 23.9202 23.5122C23.9298 23.4674 23.9282 23.4257 23.9154 23.3872L23.4807 21.1526C23.4679 21.1013 23.4455 21.0629 23.4135 21.0372C23.3814 21.0116 23.3397 20.9988 23.2885 20.9988H21.15C21.1115 20.9988 21.0795 21.0116 21.0538 21.0372C21.0282 21.0629 21.0153 21.0949 21.0153 21.1334C21.0666 21.8167 21.1785 22.511 21.3509 23.2161C21.5234 23.9212 21.7641 24.6244 22.0731 25.3257ZM30.773 33.968C31.4359 34.277 32.1272 34.5132 32.8471 34.6767C33.567 34.8401 34.2397 34.9372 34.8654 34.968C34.9038 34.968 34.9359 34.9552 34.9615 34.9296C34.9871 34.9039 35 34.8718 35 34.8334V32.7296C35 32.6783 34.9871 32.6366 34.9615 32.6045C34.9359 32.5725 34.8974 32.55 34.8461 32.5372L32.7461 32.1103C32.7077 32.0975 32.674 32.0959 32.6452 32.1055C32.6163 32.1151 32.5859 32.1359 32.5538 32.168L30.773 33.968Z" fill="#387DE5"/>
</g>
<path d="M51.6926 35V21.9091H59.5421V23.3153H53.2779V27.7386H58.954V29.1449H53.2779V35H51.6926ZM65.3205 35.2045C64.4341 35.2045 63.6564 34.9936 62.9874 34.5717C62.3226 34.1499 61.8027 33.5597 61.4277 32.8011C61.057 32.0426 60.8716 31.1562 60.8716 30.142C60.8716 29.1193 61.057 28.2266 61.4277 27.4638C61.8027 26.701 62.3226 26.1087 62.9874 25.6868C63.6564 25.2649 64.4341 25.054 65.3205 25.054C66.2069 25.054 66.9824 25.2649 67.6472 25.6868C68.3162 26.1087 68.8361 26.701 69.2069 27.4638C69.5819 28.2266 69.7694 29.1193 69.7694 30.142C69.7694 31.1562 69.5819 32.0426 69.2069 32.8011C68.8361 33.5597 68.3162 34.1499 67.6472 34.5717C66.9824 34.9936 66.2069 35.2045 65.3205 35.2045ZM65.3205 33.8494C65.9938 33.8494 66.5478 33.6768 66.9824 33.3317C67.4171 32.9865 67.7388 32.5327 67.9476 31.9702C68.1564 31.4077 68.2608 30.7983 68.2608 30.142C68.2608 29.4858 68.1564 28.8743 67.9476 28.3075C67.7388 27.7408 67.4171 27.2827 66.9824 26.9332C66.5478 26.5838 65.9938 26.4091 65.3205 26.4091C64.6472 26.4091 64.0932 26.5838 63.6586 26.9332C63.2239 27.2827 62.9022 27.7408 62.6934 28.3075C62.4846 28.8743 62.3801 29.4858 62.3801 30.142C62.3801 30.7983 62.4846 31.4077 62.6934 31.9702C62.9022 32.5327 63.2239 32.9865 63.6586 33.3317C64.0932 33.6768 64.6472 33.8494 65.3205 33.8494ZM72.0721 35V25.1818H73.5295V26.6648H73.6317C73.8107 26.179 74.1346 25.7848 74.6033 25.4822C75.0721 25.1797 75.6005 25.0284 76.1886 25.0284C76.2994 25.0284 76.4379 25.0305 76.604 25.0348C76.7702 25.0391 76.896 25.0455 76.9812 25.054V26.5881C76.93 26.5753 76.8129 26.5561 76.6296 26.5305C76.4506 26.5007 76.261 26.4858 76.0607 26.4858C75.5835 26.4858 75.1573 26.5859 74.7823 26.7862C74.4116 26.9822 74.1175 27.255 73.9002 27.6044C73.6871 27.9496 73.5806 28.3437 73.5806 28.7869V35H72.0721ZM81.152 35L78.1605 25.1818H79.7457L81.8679 32.6989H81.9702L84.0668 25.1818H85.6776L87.7486 32.6733H87.8509L89.973 25.1818H91.5582L88.5668 35H87.0838L84.9361 27.4574H84.7827L82.6349 35H81.152ZM96.4418 35.2301C95.8196 35.2301 95.255 35.1129 94.7479 34.8786C94.2408 34.6399 93.8381 34.2969 93.5398 33.8494C93.2415 33.3977 93.0923 32.8523 93.0923 32.2131C93.0923 31.6506 93.2031 31.1946 93.4247 30.8452C93.6463 30.4915 93.9425 30.2145 94.3132 30.0142C94.6839 29.8139 95.093 29.6648 95.5405 29.5668C95.9922 29.4645 96.446 29.3835 96.902 29.3239C97.4986 29.2472 97.9822 29.1896 98.353 29.1513C98.728 29.1087 99.0007 29.0384 99.1712 28.9403C99.3459 28.8423 99.4332 28.6719 99.4332 28.429V28.3778C99.4332 27.7472 99.2607 27.2571 98.9155 26.9077C98.5746 26.5582 98.0568 26.3835 97.3622 26.3835C96.642 26.3835 96.0774 26.5412 95.6683 26.8565C95.2592 27.1719 94.9716 27.5085 94.8054 27.8665L93.3736 27.3551C93.6293 26.7585 93.9702 26.294 94.3963 25.9616C94.8267 25.625 95.2955 25.3906 95.8026 25.2585C96.3139 25.1222 96.8168 25.054 97.3111 25.054C97.6264 25.054 97.9886 25.0923 98.3977 25.169C98.8111 25.2415 99.2095 25.3928 99.593 25.6229C99.9808 25.853 100.303 26.2003 100.558 26.6648C100.814 27.1293 100.942 27.7514 100.942 28.5312V35H99.4332V33.6705H99.3565C99.2543 33.8835 99.0838 34.1115 98.8452 34.3544C98.6065 34.5973 98.2891 34.804 97.8928 34.9744C97.4964 35.1449 97.0128 35.2301 96.4418 35.2301ZM96.6719 33.875C97.2685 33.875 97.7713 33.7578 98.1804 33.5234C98.5938 33.2891 98.9048 32.9865 99.1136 32.6158C99.3267 32.245 99.4332 31.8551 99.4332 31.446V30.0653C99.3693 30.142 99.2287 30.2124 99.0114 30.2763C98.7983 30.3359 98.5511 30.3892 98.2699 30.4361C97.9929 30.4787 97.7223 30.517 97.4581 30.5511C97.1982 30.581 96.9872 30.6065 96.8253 30.6278C96.4332 30.679 96.0668 30.7621 95.7259 30.8771C95.3892 30.9879 95.1165 31.1562 94.9077 31.3821C94.7031 31.6037 94.6009 31.9062 94.6009 32.2898C94.6009 32.8139 94.7947 33.2102 95.1825 33.4787C95.5746 33.7429 96.071 33.875 96.6719 33.875ZM103.695 35V25.1818H105.153V26.6648H105.255C105.434 26.179 105.758 25.7848 106.226 25.4822C106.695 25.1797 107.224 25.0284 107.812 25.0284C107.922 25.0284 108.061 25.0305 108.227 25.0348C108.393 25.0391 108.519 25.0455 108.604 25.054V26.5881C108.553 26.5753 108.436 26.5561 108.253 26.5305C108.074 26.5007 107.884 26.4858 107.684 26.4858C107.206 26.4858 106.78 26.5859 106.405 26.7862C106.035 26.9822 105.741 27.255 105.523 27.6044C105.31 27.9496 105.204 28.3437 105.204 28.7869V35H103.695ZM113.801 35.2045C112.983 35.2045 112.26 34.9979 111.634 34.5845C111.008 34.1669 110.518 33.5788 110.164 32.8203C109.81 32.0575 109.633 31.1562 109.633 30.1165C109.633 29.0852 109.81 28.1903 110.164 27.4318C110.518 26.6733 111.01 26.0874 111.64 25.674C112.271 25.2607 113 25.054 113.827 25.054C114.466 25.054 114.971 25.1605 115.341 25.3736C115.716 25.5824 116.002 25.821 116.198 26.0895C116.398 26.3537 116.554 26.571 116.665 26.7415H116.792V21.9091H118.301V35H116.844V33.4915H116.665C116.554 33.6705 116.396 33.8963 116.192 34.169C115.987 34.4375 115.695 34.6783 115.316 34.8913C114.937 35.1001 114.432 35.2045 113.801 35.2045ZM114.006 33.8494C114.611 33.8494 115.122 33.6918 115.54 33.3764C115.957 33.0568 116.275 32.6158 116.492 32.0533C116.709 31.4865 116.818 30.8324 116.818 30.0909C116.818 29.358 116.711 28.7166 116.498 28.1669C116.285 27.6129 115.97 27.1825 115.552 26.8757C115.135 26.5646 114.619 26.4091 114.006 26.4091C113.366 26.4091 112.834 26.5732 112.407 26.9013C111.986 27.2251 111.668 27.6662 111.455 28.2244C111.246 28.7784 111.142 29.4006 111.142 30.0909C111.142 30.7898 111.248 31.4247 111.461 31.9957C111.679 32.5625 111.998 33.0142 112.42 33.3509C112.846 33.6832 113.375 33.8494 114.006 33.8494Z" fill="#387DE5"/>
</svg>
