<svg width="21" height="20" viewBox="0 0 21 20" fill="none" xmlns="http://www.w3.org/2000/svg">
<path d="M10.4466 0.230961C10.2377 -0.0769869 9.77199 -0.0769869 9.56306 0.230961C8.55248 1.7205 6.15869 5.42018 6.15869 7.04351C6.15869 9.10118 7.88066 10.7692 10.0048 10.7692C12.129 10.7692 13.851 9.10118 13.851 7.04351C13.851 5.42018 11.4572 1.7205 10.4466 0.230961ZM10.9762 7.12445H10.6111V7.47813C10.6111 7.80248 10.3396 8.06544 10.0048 8.06544C9.66997 8.06544 9.39851 7.80248 9.39851 7.47813V7.12445H9.03339C8.69856 7.12445 8.4271 6.86149 8.4271 6.53713C8.4271 6.21278 8.69856 5.94982 9.03339 5.94982H9.39851V5.59618C9.39851 5.27183 9.66997 5.00887 10.0048 5.00887C10.3396 5.00887 10.6111 5.27183 10.6111 5.59618V5.94982H10.9762C11.311 5.94982 11.5825 6.21278 11.5825 6.53713C11.5825 6.86149 11.3111 7.12445 10.9762 7.12445Z" fill="#005375"/>
<path d="M17.8792 10.3733L14.0316 14.3119C13.9009 14.6348 13.7096 14.9257 13.4718 15.1692C13.0054 15.6465 12.3616 15.9422 11.6516 15.9422L9.29961 15.9421C8.95333 15.9421 8.67262 15.6548 8.67262 15.3003C8.67262 14.9459 8.95333 14.6585 9.29961 14.6585H11.6516C12.3802 14.6585 12.973 14.0516 12.9729 13.3059C12.9758 13.0921 12.8072 12.9173 12.5984 12.9176L7.54215 12.9242C6.54676 12.9242 5.59215 13.329 4.88828 14.0495L0.00488281 18.8898V20H4.4902L6.08473 18.3677L12.4904 18.3205C13.2309 18.315 13.9396 18.0115 14.4632 17.4754L19.6402 12.176C20.1265 11.6782 20.1265 10.8711 19.6402 10.3734C19.1539 9.87556 18.3655 9.87556 17.8792 10.3733Z" fill="#005375"/>
</svg>
