<svg width="21" height="22" viewBox="0 0 21 22" fill="none" xmlns="http://www.w3.org/2000/svg">
<path d="M5.80483 1.54659V3.27001H3.68379C2.0155 3.27001 0.663086 4.62243 0.663086 6.29072V8.34662C0.663086 8.37808 0.688619 8.40361 0.72008 8.40361H20.6061C20.6376 8.40361 20.6631 8.37808 20.6631 8.34662V6.29072C20.6631 4.62243 19.3107 3.27001 17.6424 3.27001H15.5219V1.54659C15.5219 1.13737 15.1902 0.805664 14.781 0.805664C14.3718 0.805664 14.0401 1.13737 14.0401 1.54659V3.27001H7.28668V1.54659C7.28668 1.13737 6.95495 0.805664 6.54576 0.805664C6.13657 0.805664 5.80483 1.13737 5.80483 1.54659Z" fill="#005375"/>
<path d="M5.90771 16.1925V13.5491H8.58605V16.1925H5.90771Z" fill="#005375"/>
<path fill-rule="evenodd" clip-rule="evenodd" d="M0.663086 18.2399V9.94246C0.663086 9.91097 0.688619 9.88547 0.72008 9.88547H20.6061C20.6376 9.88547 20.6631 9.91097 20.6631 9.94246V18.2399C20.6631 19.9082 19.3107 21.2606 17.6424 21.2606H3.68379C2.0155 21.2606 0.663086 19.9082 0.663086 18.2399ZM5.85048 12.0673C5.06353 12.0673 4.42562 12.7052 4.42562 13.4921V16.2495C4.42562 17.0364 5.06353 17.6743 5.85048 17.6743H8.64281C9.42973 17.6743 10.0677 17.0364 10.0677 16.2495V13.4921C10.0677 12.7052 9.42973 12.0673 8.64281 12.0673H5.85048Z" fill="#005375"/>
</svg>
