<svg width="21" height="22" viewBox="0 0 21 22" fill="none" xmlns="http://www.w3.org/2000/svg">
<path d="M15.8112 14.1898C15.6016 14.0778 15.4707 13.8595 15.4707 13.6215V12.977H10.959C10.6029 12.977 10.3145 12.6887 10.3145 12.3325V9.75436C10.3145 9.39812 10.6029 9.10983 10.959 9.10983H15.4707V8.4653C15.4707 8.22723 15.6016 8.00889 15.8112 7.8969C16.0203 7.78545 16.2751 7.79808 16.4729 7.929L20.3401 10.5071C20.5195 10.6266 20.6271 10.828 20.6271 11.0434C20.6271 11.2585 20.5195 11.4599 20.3401 11.5796L16.4729 14.1577C16.273 14.291 16.018 14.3007 15.8112 14.1898Z" fill="#005375"/>
<path d="M14.1814 0.64453V7.8203H10.9588C10.7269 7.8203 10.5205 7.85884 10.3142 7.93618V4.51171C10.3142 3.7897 9.91464 3.13242 9.24446 2.78437L3.68848 0H13.5369C13.898 0 14.1814 0.283459 14.1814 0.64453Z" fill="#005375"/>
<path d="M10.959 14.2659H14.1816V18.7775C14.1816 19.1386 13.8982 19.422 13.5371 19.422H10.3145V14.1499C10.5207 14.2272 10.7271 14.2659 10.959 14.2659Z" fill="#005375"/>
<path d="M8.66458 3.93204L0.930077 0.0648563C0.736852 -0.0255123 0.491796 -0.0255123 0.311328 0.0906375C0.118103 0.219409 0.00195312 0.425659 0.00195312 0.644934V18.7776C0.00195312 19.0613 0.182422 19.3062 0.440368 19.3836L8.17473 21.9617C8.3646 22.0377 8.60764 21.9947 8.75467 21.8844C8.92239 21.7555 9.02551 21.5621 9.02551 21.356V4.51212C9.02538 4.26719 8.88372 4.04792 8.66458 3.93204ZM6.44726 12.3324C6.44726 12.6932 6.1638 12.9769 5.80273 12.9769C5.44192 12.9769 5.1582 12.6932 5.1582 12.3324V9.7543C5.1582 9.39336 5.44192 9.10977 5.80273 9.10977C6.1638 9.10977 6.44726 9.39336 6.44726 9.7543V12.3324Z" fill="#005375"/>
</svg>
