<svg width="22" height="25" viewBox="0 0 22 25" fill="none" xmlns="http://www.w3.org/2000/svg">
<path fill-rule="evenodd" clip-rule="evenodd" d="M7.89932 17.7646H13.9348C14.3018 17.7646 14.5976 17.9255 14.6831 18.2921L14.9173 19.289C15.0817 20.0468 14.3491 20.4899 13.579 20.4899H8.2572C7.48502 20.4899 6.75245 20.0465 6.91684 19.289L7.15098 18.2921C7.2365 17.9255 7.53444 17.7646 7.89932 17.7646ZM18.0421 16.4649C18.3215 16.474 18.5658 16.6714 18.6425 17.051C18.7466 17.5564 18.8658 18.5571 18.3029 18.8856C17.8395 19.1558 16.8665 19.351 16.3463 19.4755C15.8479 19.5957 15.7235 19.125 15.8973 18.4257C16.2205 17.1235 16.9503 16.8484 17.7554 16.5193C17.8525 16.4793 17.9492 16.4611 18.0421 16.4649ZM3.79377 16.4649C3.88701 16.4611 3.9834 16.4793 4.07874 16.5193C4.88386 16.8484 5.61573 17.1235 5.93891 18.4257C6.11206 19.125 5.98833 19.5954 5.4878 19.4755C4.96939 19.3514 3.99672 19.1558 3.53264 18.8856C2.97042 18.5571 3.08889 17.5564 3.19159 17.051C3.2694 16.6714 3.51441 16.474 3.79377 16.4649ZM10.5303 13.3762H11.3081C11.4286 13.3762 11.5215 13.4747 11.5215 13.5967V14.5371H12.4616C12.5843 14.5371 12.6807 14.6317 12.6807 14.7506V15.5301C12.6807 15.6489 12.5843 15.7418 12.4616 15.7418H11.5215V16.6861C11.5215 16.8084 11.4283 16.9034 11.3081 16.9034H10.5303C10.4111 16.9034 10.3168 16.8067 10.3168 16.6861V15.7418H9.37463C9.25195 15.7418 9.15556 15.6489 9.15556 15.5301V14.7506C9.15556 14.6317 9.25195 14.5389 9.37463 14.5371H10.3168V13.5967C10.3165 13.4747 10.4111 13.3762 10.5303 13.3762ZM4.25925 5.75222H17.5987C17.8998 8.01618 18.0719 10.3748 18.0719 12.3173H3.78606C3.78606 10.3748 3.95606 8.01618 4.25925 5.75222ZM5.356 2.78934C4.14428 2.78934 3.42118 3.79355 3.1674 4.97864C2.8551 6.43922 2.6164 9.24683 2.45762 11.8357H1.8968L1.99319 9.86233C2.00405 9.65412 1.84737 9.48833 1.63917 9.48833C1.00054 9.48833 0.156854 9.42629 0.103576 10.523L0.00367999 12.5592C-0.00928897 12.7653 0.14739 12.9335 0.355594 12.9335H2.39312C2.29463 14.7408 2.2438 16.3142 2.2438 17.03V21.0041C2.2438 21.8695 2.40048 22.2547 3.17477 22.7019V23.5456C3.17477 23.8779 3.44326 24.1443 3.77519 24.1443H5.47833C5.81027 24.1443 6.08612 23.8779 6.08086 23.5456V22.7019H15.755V23.5456C15.7476 23.8779 16.0235 24.1443 16.3575 24.1443H18.0607C18.3926 24.1443 18.659 23.8779 18.659 23.5456V22.7019C19.4354 22.2547 19.5921 21.8695 19.5921 21.0041V17.0293C19.5921 16.3135 19.5395 14.7401 19.442 12.9328H21.4782C21.6864 12.9328 21.8452 12.7646 21.8322 12.5585L21.7316 10.5223C21.679 9.42559 20.8332 9.48763 20.1967 9.48763C19.9864 9.48763 19.8311 9.65342 19.842 9.86162L19.9391 11.835H19.3783C19.2195 9.24648 18.9804 6.43852 18.6685 4.97794C18.4143 3.7932 17.6916 2.78864 16.4792 2.78864H5.356V2.78934Z" fill="#005375"/>
<path fill-rule="evenodd" clip-rule="evenodd" d="M7.83204 0C7.20217 0 6.69287 0.507542 6.69287 1.13917V1.65021C6.69287 1.94955 6.93402 2.1907 7.23371 2.1907H9.32943V0H7.83204Z" fill="#005375"/>
<path fill-rule="evenodd" clip-rule="evenodd" d="M9.97461 0H11.8586V2.19105H9.97461V0Z" fill="#005375"/>
<path fill-rule="evenodd" clip-rule="evenodd" d="M12.5073 0V2.1907H14.603C14.9024 2.1907 15.1432 1.9499 15.1432 1.65021V1.13917C15.1432 0.507892 14.6339 0 14.004 0H12.5073Z" fill="#005375"/>
</svg>
