<svg width="20" height="20" viewBox="0 0 20 20" fill="none" xmlns="http://www.w3.org/2000/svg">
<g clip-path="url(#clip0_622_12285)">
<path d="M8.71813 15.2857C8.62969 14.3808 9.0781 13.5526 9.9705 13.35C9.98111 13.325 9.99173 13.2964 10.0023 13.2714C9.84103 13.0182 9.75395 12.7242 9.75116 12.4232C9.73922 11.1406 11.3387 10.0218 12.4611 10.7875C12.607 10.7428 12.607 10.3732 12.7583 10.2303C11.9496 9.67463 11.0484 9.27056 10.0979 9.03746C14.5554 6.83344 13.105 0.0727225 8.07426 -0.00183105C3.04002 0.0682582 1.59439 6.84638 6.05065 9.03924C4.69026 9.37884 3.43596 10.0575 2.40257 11.013C1.36918 11.9686 0.589715 13.1705 0.135509 14.5089C-0.41373 15.9821 0.851464 17.6558 2.39084 17.6125H9.76708C9.79168 17.3705 9.87292 17.1379 10.0041 16.9339C9.99293 16.9108 9.98347 16.8869 9.97581 16.8625C9.61994 16.7839 9.30138 16.5848 9.07295 16.2984C8.84452 16.0119 8.71995 15.6552 8.7199 15.2875L8.71813 15.2857Z" fill="#005375"/>
<path d="M18.2323 14.025H18.0589C17.9755 13.7254 17.858 13.4366 17.7087 13.1643L17.829 13.0428C17.9959 12.8758 18.0903 12.6488 18.0914 12.4115C18.0926 12.1743 18.0004 11.9463 17.8351 11.7777L17.829 11.7714L17.5778 11.5143C17.4019 11.3435 17.166 11.2503 16.922 11.255C16.6781 11.2598 16.446 11.3622 16.2768 11.5397C16.247 11.5708 16.2195 11.6041 16.1945 11.6393C15.9257 11.4875 15.6409 11.3665 15.3454 11.2786C15.3653 11.1478 15.3572 11.0143 15.3217 10.887C15.2862 10.7597 15.2242 10.6415 15.1397 10.5404C15.0553 10.4392 14.9504 10.3575 14.8322 10.3006C14.7139 10.2438 14.5849 10.2131 14.4539 10.2107H14.0966C13.9654 10.2133 13.8362 10.2443 13.7178 10.3014C13.5994 10.3586 13.4944 10.4407 13.41 10.5421C13.3255 10.6436 13.2636 10.7621 13.2282 10.8898C13.1929 11.0174 13.185 11.1512 13.2051 11.2821C12.9085 11.3684 12.622 11.487 12.3507 11.6357L12.2304 11.5143C12.0632 11.3461 11.8368 11.2517 11.6007 11.2517C11.3647 11.2517 11.1382 11.3461 10.971 11.5143C10.8247 11.6165 10.7028 11.7503 10.6141 11.9059C10.5254 12.0616 10.472 12.2352 10.458 12.4143C10.4643 12.5607 10.5018 12.704 10.5681 12.8343C10.6343 12.9647 10.7277 13.0791 10.8419 13.1696C10.691 13.4408 10.5711 13.7283 10.4845 14.0268C10.3652 14.0084 10.2434 14.0139 10.1261 14.043C10.0089 14.0722 9.89845 14.1243 9.80117 14.1965C9.70388 14.2687 9.62164 14.3596 9.55915 14.4639C9.49665 14.5682 9.45512 14.6839 9.43693 14.8044C9.43067 14.8449 9.42727 14.8858 9.42676 14.9268V15.2875C9.42912 15.4095 9.45526 15.5298 9.5037 15.6416C9.55214 15.7534 9.62192 15.8545 9.70906 15.9391C9.79621 16.0237 9.899 16.0901 10.0116 16.1345C10.1241 16.179 10.2443 16.2006 10.3652 16.1982C10.4063 16.1973 10.4474 16.1937 10.4881 16.1875C10.5749 16.4853 10.6935 16.7727 10.8419 17.0446C10.7439 17.1169 10.6609 17.2079 10.5978 17.3126C10.5347 17.4172 10.4926 17.5334 10.4739 17.6544C10.4553 17.7755 10.4605 17.8991 10.4891 18.0181C10.5178 18.1371 10.5695 18.2493 10.6411 18.3482C10.6647 18.3809 10.6904 18.4119 10.718 18.4411C10.8207 18.5874 10.9535 18.7095 11.1074 18.7989C11.2614 18.8883 11.4327 18.9429 11.6096 18.9589C11.754 18.9508 11.8951 18.9122 12.0237 18.8454C12.1523 18.7786 12.2655 18.6853 12.356 18.5714C12.6245 18.7231 12.9094 18.843 13.2051 18.9286V19.1C13.2053 19.3386 13.2993 19.5674 13.4665 19.7361C13.6336 19.9048 13.8602 19.9997 14.0966 20H14.4539C14.575 19.9977 14.6945 19.9713 14.8055 19.9223C14.9165 19.8733 15.0168 19.8027 15.1008 19.7146C15.1847 19.6264 15.2506 19.5224 15.2947 19.4086C15.3389 19.2947 15.3603 19.1731 15.3578 19.0509C15.3568 19.0087 15.3531 18.9667 15.3468 18.925C15.6426 18.8414 15.9276 18.7227 16.1958 18.5714C16.3396 18.7702 16.5556 18.9033 16.7964 18.9415C17.0373 18.9796 17.2833 18.9198 17.4805 18.775C17.5147 18.7498 17.5472 18.7224 17.5778 18.6928L17.829 18.4393C17.9984 18.2618 18.0911 18.0237 18.0867 17.7772C18.0823 17.5308 17.9812 17.2962 17.8055 17.125C17.7751 17.0954 17.7427 17.068 17.7087 17.0428C17.858 16.7718 17.9755 16.4842 18.0589 16.1857C18.3003 16.2241 18.547 16.1641 18.7446 16.019C18.9422 15.8738 19.0747 15.6553 19.1127 15.4116C19.1191 15.3699 19.1227 15.3279 19.1238 15.2857V14.925C19.1235 14.6864 19.0295 14.4576 18.8624 14.2888C18.6953 14.1201 18.4686 14.0252 18.2323 14.025ZM14.2735 17.7303C13.584 17.7299 12.9229 17.4532 12.4354 16.961C11.9478 16.4688 11.6737 15.8014 11.6732 15.1053C11.7966 11.6294 16.7552 11.6339 16.8773 15.1053C16.8765 15.8019 16.6018 16.4696 16.1135 16.9618C15.6253 17.454 14.9635 17.7305 14.2735 17.7303Z" fill="#005375"/>
<path d="M12.3799 15.1035C12.459 17.6294 16.0879 17.6268 16.1688 15.1035C16.0879 12.5808 12.459 12.5768 12.3799 15.1035Z" fill="#005375"/>
</g>
<defs>
<clipPath id="clip0_622_12285">
<rect width="19.1176" height="20" fill="white" transform="translate(0.00488281)"/>
</clipPath>
</defs>
</svg>
