<svg width="18" height="21" viewBox="0 0 18 21" fill="none" xmlns="http://www.w3.org/2000/svg">
<path d="M7.87667 10.4196C10.4379 10.4196 12.5009 7.31508 12.5009 4.74527C12.5009 2.16332 10.4265 0.0625 7.87667 0.0625C5.32685 0.0625 3.25244 2.16261 3.25244 4.74527C3.25244 7.31508 5.31471 10.4196 7.87667 10.4196Z" fill="#005375"/>
<path d="M8.08433 14.2536C8.30562 13.5754 8.88383 13.09 9.57625 12.9901L10.854 12.7902L11.4394 11.5624C11.6749 11.0556 12.1104 10.6915 12.6315 10.5559C12.1889 10.1847 11.6963 9.87063 11.1681 9.62079C10.2758 10.5345 9.13367 11.1341 7.87732 11.1341C6.63524 11.1341 5.50024 10.5416 4.60795 9.6422C2.32367 10.7344 0.746094 13.0615 0.746094 15.7526V16.8591C0.746094 17.2588 1.06732 17.5729 1.45993 17.5729H9.42634L9.49059 17.166L8.52691 16.1881C8.02722 15.6813 7.8559 14.9389 8.08433 14.2536Z" fill="#005375"/>
<path d="M17.49 14.4791C17.3508 14.0594 16.9967 13.7582 16.5649 13.6918L14.9138 13.4405L14.1692 11.8644C13.9751 11.4532 13.5753 11.1976 13.1263 11.1976C13.1256 11.1976 13.1256 11.1976 13.1249 11.1976C12.6759 11.1976 12.2768 11.4532 12.0827 11.8651L11.3389 13.4405L9.68705 13.6918C9.25589 13.7574 8.90183 14.0594 8.76263 14.4784C8.62058 14.906 8.72694 15.37 9.0396 15.6884L10.2524 16.924L9.96473 18.6765C9.89049 19.1305 10.0754 19.5752 10.4473 19.8379C10.9006 20.1584 11.3174 20.0935 11.6572 19.9064L13.1263 19.0991L14.5961 19.9071C14.983 20.1184 15.4484 20.0927 15.8082 19.8372C16.1794 19.5745 16.3628 19.1291 16.2879 18.6765L16.0009 16.924L17.2145 15.6884C17.5257 15.37 17.632 14.9067 17.49 14.4791Z" fill="#005375"/>
</svg>
