<svg width="106" height="56" viewBox="0 0 106 56" fill="none" xmlns="http://www.w3.org/2000/svg">
<rect x="0.5" y="0.5" width="105" height="55" rx="7.5" stroke="#387DE5"/>
<mask id="mask0_17314_3970" style="mask-type:alpha" maskUnits="userSpaceOnUse" x="16" y="16" width="24" height="24">
<rect x="16" y="16" width="24" height="24" fill="#D9D9D9"/>
</mask>
<g mask="url(#mask0_17314_3970)">
<path d="M32.0573 26C31.8447 26 31.6667 25.9281 31.5231 25.7844C31.3795 25.6406 31.3077 25.4625 31.3077 25.25V20.25C31.3077 20.0375 31.3796 19.8594 31.5234 19.7156C31.6672 19.5719 31.8454 19.5 32.058 19.5C32.2706 19.5 32.4487 19.5719 32.5923 19.7156C32.7359 19.8594 32.8077 20.0375 32.8077 20.25V25.25C32.8077 25.4625 32.7357 25.6406 32.5919 25.7844C32.4481 25.9281 32.2699 26 32.0573 26ZM35.7496 26C35.537 26 35.3589 25.9281 35.2154 25.7844C35.0718 25.6406 35 25.4625 35 25.25V20.25C35 20.0375 35.0719 19.8594 35.2157 19.7156C35.3595 19.5719 35.5377 19.5 35.7503 19.5C35.9629 19.5 36.141 19.5719 36.2845 19.7156C36.4282 19.8594 36.5 20.0375 36.5 20.25V25.25C36.5 25.4625 36.428 25.6406 36.2842 25.7844C36.1404 25.9281 35.9622 26 35.7496 26ZM35.4403 36.5C33.5557 36.5 31.6625 36.0618 29.7606 35.1855C27.8586 34.3092 26.1112 33.073 24.5183 31.4769C22.9253 29.8807 21.6907 28.1333 20.8144 26.2346C19.9381 24.3359 19.5 22.4442 19.5 20.5596C19.5 20.2569 19.6 20.0046 19.8 19.8028C20 19.6009 20.25 19.5 20.55 19.5H23.8115C24.0641 19.5 24.2868 19.5824 24.4798 19.7471C24.6727 19.9119 24.7955 20.1154 24.848 20.3577L25.4211 23.3C25.4609 23.5731 25.4525 23.8077 25.3961 24.0038C25.3397 24.2 25.2384 24.3647 25.0923 24.4981L22.7827 26.7461C23.1545 27.4269 23.5791 28.0708 24.0567 28.6779C24.5343 29.2849 25.0513 29.8647 25.6077 30.4173C26.1564 30.966 26.7397 31.4756 27.3577 31.9462C27.9756 32.4167 28.6429 32.8545 29.3596 33.2596L31.6038 30.9962C31.7602 30.8333 31.9497 30.7192 32.1721 30.6539C32.3945 30.5885 32.6256 30.5724 32.8654 30.6058L35.6423 31.1712C35.8948 31.2378 36.1009 31.3667 36.2605 31.5577C36.4201 31.7487 36.5 31.9654 36.5 32.2077V35.45C36.5 35.75 36.399 36 36.1972 36.2C35.9954 36.4 35.7431 36.5 35.4403 36.5ZM22.0731 25.3269L23.8577 23.6192C23.8897 23.5936 23.9106 23.5583 23.9202 23.5135C23.9298 23.4686 23.9282 23.4269 23.9154 23.3885L23.4807 21.1538C23.4679 21.1025 23.4455 21.0641 23.4135 21.0385C23.3814 21.0128 23.3397 21 23.2885 21H21.15C21.1115 21 21.0795 21.0128 21.0538 21.0385C21.0282 21.0641 21.0154 21.0961 21.0154 21.1346C21.0666 21.8179 21.1785 22.5122 21.3509 23.2173C21.5234 23.9224 21.7641 24.6256 22.0731 25.3269ZM30.773 33.9692C31.4359 34.2782 32.1272 34.5144 32.8471 34.6779C33.567 34.8413 34.2397 34.9384 34.8654 34.9692C34.9038 34.9692 34.9359 34.9564 34.9615 34.9308C34.9872 34.9051 35 34.873 35 34.8346V32.7308C35 32.6795 34.9872 32.6378 34.9615 32.6057C34.9359 32.5737 34.8974 32.5512 34.8461 32.5384L32.7461 32.1115C32.7077 32.0987 32.674 32.0971 32.6452 32.1067C32.6163 32.1163 32.5859 32.1372 32.5538 32.1692L30.773 33.9692Z" fill="#387DE5"/>
</g>
<path d="M51.8274 35V21.9091H53.4126V27.7386H60.3928V21.9091H61.978V35H60.3928V29.1449H53.4126V35H51.8274ZM68.9357 35.2045C68.0494 35.2045 67.2717 34.9936 66.6026 34.5717C65.9379 34.1499 65.418 33.5597 65.043 32.8011C64.6722 32.0426 64.4869 31.1562 64.4869 30.142C64.4869 29.1193 64.6722 28.2266 65.043 27.4638C65.418 26.701 65.9379 26.1087 66.6026 25.6868C67.2717 25.2649 68.0494 25.054 68.9357 25.054C69.8221 25.054 70.5977 25.2649 71.2624 25.6868C71.9315 26.1087 72.4513 26.701 72.8221 27.4638C73.1971 28.2266 73.3846 29.1193 73.3846 30.142C73.3846 31.1562 73.1971 32.0426 72.8221 32.8011C72.4513 33.5597 71.9315 34.1499 71.2624 34.5717C70.5977 34.9936 69.8221 35.2045 68.9357 35.2045ZM68.9357 33.8494C69.609 33.8494 70.163 33.6768 70.5977 33.3317C71.0323 32.9865 71.354 32.5327 71.5629 31.9702C71.7717 31.4077 71.8761 30.7983 71.8761 30.142C71.8761 29.4858 71.7717 28.8743 71.5629 28.3075C71.354 27.7408 71.0323 27.2827 70.5977 26.9332C70.163 26.5838 69.609 26.4091 68.9357 26.4091C68.2624 26.4091 67.7085 26.5838 67.2738 26.9332C66.8391 27.2827 66.5174 27.7408 66.3086 28.3075C66.0998 28.8743 65.9954 29.4858 65.9954 30.142C65.9954 30.7983 66.0998 31.4077 66.3086 31.9702C66.5174 32.5327 66.8391 32.9865 67.2738 33.3317C67.7085 33.6768 68.2624 33.8494 68.9357 33.8494ZM77.1958 21.9091V35H75.6873V21.9091H77.1958ZM83.6662 35.2045C82.848 35.2045 82.1257 34.9979 81.4993 34.5845C80.8729 34.1669 80.3828 33.5788 80.0291 32.8203C79.6754 32.0575 79.4986 31.1562 79.4986 30.1165C79.4986 29.0852 79.6754 28.1903 80.0291 27.4318C80.3828 26.6733 80.875 26.0874 81.5057 25.674C82.1364 25.2607 82.8651 25.054 83.6918 25.054C84.331 25.054 84.8359 25.1605 85.2067 25.3736C85.5817 25.5824 85.8672 25.821 86.0632 26.0895C86.2635 26.3537 86.419 26.571 86.5298 26.7415H86.6577V21.9091H88.1662V35H86.7088V33.4915H86.5298C86.419 33.6705 86.2614 33.8963 86.0568 34.169C85.8523 34.4375 85.5604 34.6783 85.1811 34.8913C84.8018 35.1001 84.2969 35.2045 83.6662 35.2045ZM83.8707 33.8494C84.4759 33.8494 84.9872 33.6918 85.4048 33.3764C85.8224 33.0568 86.1399 32.6158 86.3572 32.0533C86.5746 31.4865 86.6832 30.8324 86.6832 30.0909C86.6832 29.358 86.5767 28.7166 86.3636 28.1669C86.1506 27.6129 85.8352 27.1825 85.4176 26.8757C85 26.5646 84.4844 26.4091 83.8707 26.4091C83.2315 26.4091 82.6989 26.5732 82.2727 26.9013C81.8509 27.2251 81.5334 27.6662 81.3203 28.2244C81.1115 28.7784 81.0071 29.4006 81.0071 30.0909C81.0071 30.7898 81.1136 31.4247 81.3267 31.9957C81.544 32.5625 81.8636 33.0142 82.2855 33.3509C82.7116 33.6832 83.2401 33.8494 83.8707 33.8494Z" fill="#387DE5"/>
</svg>
