<svg width="56" height="56" viewBox="0 0 56 56" fill="none" xmlns="http://www.w3.org/2000/svg">
<rect x="0.5" y="0.5" width="55" height="55" rx="7.5" stroke="#387DE5"/>
<mask id="mask0_11121_23696" style="mask-type:alpha" maskUnits="userSpaceOnUse" x="16" y="16" width="24" height="24">
<rect x="16" y="16" width="24" height="24" fill="#D9D9D9"/>
</mask>
<g mask="url(#mask0_11121_23696)">
<path d="M32.0573 26C31.8447 26 31.6667 25.9281 31.5231 25.7844C31.3795 25.6406 31.3077 25.4625 31.3077 25.25V20.25C31.3077 20.0375 31.3796 19.8594 31.5234 19.7156C31.6672 19.5719 31.8454 19.5 32.058 19.5C32.2706 19.5 32.4487 19.5719 32.5923 19.7156C32.7359 19.8594 32.8077 20.0375 32.8077 20.25V25.25C32.8077 25.4625 32.7357 25.6406 32.5919 25.7844C32.4481 25.9281 32.2699 26 32.0573 26ZM35.7496 26C35.537 26 35.3589 25.9281 35.2154 25.7844C35.0718 25.6406 35 25.4625 35 25.25V20.25C35 20.0375 35.0719 19.8594 35.2157 19.7156C35.3595 19.5719 35.5377 19.5 35.7503 19.5C35.9629 19.5 36.141 19.5719 36.2845 19.7156C36.4282 19.8594 36.5 20.0375 36.5 20.25V25.25C36.5 25.4625 36.428 25.6406 36.2842 25.7844C36.1404 25.9281 35.9622 26 35.7496 26ZM35.4403 36.5C33.5557 36.5 31.6625 36.0618 29.7606 35.1855C27.8586 34.3092 26.1112 33.073 24.5183 31.4769C22.9253 29.8807 21.6907 28.1333 20.8144 26.2346C19.9381 24.3359 19.5 22.4442 19.5 20.5596C19.5 20.2569 19.6 20.0046 19.8 19.8028C20 19.6009 20.25 19.5 20.55 19.5H23.8115C24.0641 19.5 24.2868 19.5824 24.4798 19.7471C24.6727 19.9119 24.7955 20.1154 24.848 20.3577L25.4211 23.3C25.4609 23.5731 25.4525 23.8077 25.3961 24.0038C25.3397 24.2 25.2384 24.3647 25.0923 24.4981L22.7827 26.7461C23.1545 27.4269 23.5791 28.0708 24.0567 28.6779C24.5343 29.2849 25.0513 29.8647 25.6077 30.4173C26.1564 30.966 26.7397 31.4756 27.3577 31.9462C27.9756 32.4167 28.6429 32.8545 29.3596 33.2596L31.6038 30.9962C31.7602 30.8333 31.9497 30.7192 32.1721 30.6539C32.3945 30.5885 32.6256 30.5724 32.8654 30.6058L35.6423 31.1712C35.8948 31.2378 36.1009 31.3667 36.2605 31.5577C36.4201 31.7487 36.5 31.9654 36.5 32.2077V35.45C36.5 35.75 36.399 36 36.1972 36.2C35.9954 36.4 35.7431 36.5 35.4403 36.5ZM22.0731 25.3269L23.8577 23.6192C23.8897 23.5936 23.9106 23.5583 23.9202 23.5135C23.9298 23.4686 23.9282 23.4269 23.9154 23.3885L23.4807 21.1538C23.4679 21.1025 23.4455 21.0641 23.4135 21.0385C23.3814 21.0128 23.3397 21 23.2885 21H21.15C21.1115 21 21.0795 21.0128 21.0538 21.0385C21.0282 21.0641 21.0154 21.0961 21.0154 21.1346C21.0666 21.8179 21.1785 22.5122 21.3509 23.2173C21.5234 23.9224 21.7641 24.6256 22.0731 25.3269ZM30.773 33.9692C31.4359 34.2782 32.1272 34.5144 32.8471 34.6779C33.567 34.8413 34.2397 34.9384 34.8654 34.9692C34.9038 34.9692 34.9359 34.9564 34.9615 34.9308C34.9872 34.9051 35 34.873 35 34.8346V32.7308C35 32.6795 34.9872 32.6378 34.9615 32.6057C34.9359 32.5737 34.8974 32.5512 34.8461 32.5384L32.7461 32.1115C32.7077 32.0987 32.674 32.0971 32.6452 32.1067C32.6163 32.1163 32.5859 32.1372 32.5538 32.1692L30.773 33.9692Z" fill="#387DE5"/>
</g>
</svg>
