<svg width="16" height="16" viewBox="0 0 16 16" fill="none" xmlns="http://www.w3.org/2000/svg">
<g clip-path="url(#clip0_7023_15147)">
<path d="M12.6654 5.33333V4.66667C12.6654 3.42899 12.1737 2.242 11.2985 1.36684C10.4234 0.491665 9.23637 0 7.9987 0C6.76102 0 5.57404 0.491665 4.69887 1.36684C3.8237 2.242 3.33203 3.42899 3.33203 4.66667V5.33333H1.33203V14C1.33203 14.5304 1.54274 15.0391 1.91782 15.4142C2.29289 15.7893 2.8016 16 3.33203 16H12.6654C13.1958 16 13.7045 15.7893 14.0796 15.4142C14.4547 15.0391 14.6654 14.5304 14.6654 14V5.33333H12.6654ZM4.66536 4.66667C4.66536 3.78261 5.01655 2.93477 5.64168 2.30964C6.2668 1.68452 7.11464 1.33333 7.9987 1.33333C8.88275 1.33333 9.7306 1.68452 10.3557 2.30964C10.9808 2.93477 11.332 3.78261 11.332 4.66667V5.33333H4.66536V4.66667ZM13.332 14C13.332 14.1768 13.2618 14.3464 13.1368 14.4714C13.0117 14.5964 12.8422 14.6667 12.6654 14.6667H3.33203C3.15522 14.6667 2.98565 14.5964 2.86063 14.4714C2.7356 14.3464 2.66536 14.1768 2.66536 14V6.66667H13.332V14Z" fill="#387DE5"/>
<path d="M8.66537 9.33301H7.33203V11.9997H8.66537V9.33301Z" fill="#387DE5"/>
</g>
<defs>
<clipPath id="clip0_7023_15147">
<rect width="16" height="16" fill="white"/>
</clipPath>
</defs>
</svg>
