<svg xmlns="http://www.w3.org/2000/svg" width="105" height="17" viewBox="0 0 105 17" fill="none">
  <path d="M21.506 3.58546V7.29847H26.5078V10.0283H21.506V13.8174H28.0367V16.6568H17.793V0.746094H28.0367V3.58546H21.506Z" fill="white"/>
  <path d="M37.2912 8.41089H42.9483V15.1272C42.1328 15.7243 41.2647 16.1574 40.3441 16.4266C39.4228 16.6957 38.46 16.8306 37.4558 16.8306C36.1454 16.8306 34.9531 16.6252 33.8796 16.2137C32.8054 15.8023 31.8866 15.2349 31.1219 14.5104C30.3571 13.7858 29.7675 12.927 29.3529 11.9333C28.9384 10.9396 28.7305 9.86058 28.7305 8.69551C28.7305 7.50878 28.9272 6.41857 29.3201 5.42489C29.713 4.4312 30.2754 3.57364 31.0074 2.85282C31.7394 2.13199 32.6235 1.57142 33.6611 1.1711C34.6988 0.770781 35.8576 0.570312 37.139 0.570312C37.8017 0.570312 38.4241 0.624761 39.0064 0.734276C39.5886 0.843792 40.1257 0.992906 40.6169 1.18224C41.1082 1.37157 41.558 1.59741 41.9658 1.85913C42.3735 2.12147 42.7373 2.40485 43.0578 2.71113L41.9874 4.33839C41.8197 4.59331 41.6032 4.74985 41.3378 4.80801C41.0717 4.86617 40.7865 4.80059 40.4802 4.61125C40.1888 4.43677 39.9141 4.2858 39.6554 4.15834C39.3968 4.03088 39.1332 3.92755 38.8634 3.84712C38.5943 3.7673 38.3103 3.70914 38.0115 3.67264C37.7126 3.63613 37.3779 3.61819 37.0066 3.61819C36.3149 3.61819 35.6924 3.74008 35.1393 3.98386C34.5862 4.22764 34.1147 4.57166 33.7249 5.0159C33.3351 5.46016 33.035 5.9935 32.824 6.61595C32.613 7.23839 32.5072 7.93199 32.5072 8.69612C32.5072 9.54069 32.6235 10.2906 32.8568 10.9458C33.0894 11.6011 33.4192 12.1542 33.8449 12.6059C34.2706 13.0576 34.7804 13.4016 35.3738 13.6379C35.9672 13.8743 36.6243 13.9931 37.3451 13.9931C37.7893 13.9931 38.1915 13.9492 38.5516 13.8619C38.9117 13.7747 39.2631 13.6584 39.6053 13.5123V11.0987H38.0325C37.7992 11.0987 37.6173 11.0368 37.4868 10.913C37.3556 10.7893 37.29 10.6328 37.29 10.4434V8.41089H37.2912Z" fill="white"/>
  <path d="M57.4935 16.6574H54.1517C53.5329 16.6574 53.0887 16.4248 52.8196 15.9582L50.1769 11.3388C50.0532 11.142 49.9146 10.9985 49.7618 10.9075C49.6089 10.8166 49.3905 10.7708 49.1065 10.7708H48.1673V16.6568H44.4766V0.746094H49.6529C50.8031 0.746094 51.7838 0.864271 52.5962 1.10125C53.408 1.33822 54.0706 1.66739 54.5836 2.08936C55.0971 2.51196 55.4696 3.01065 55.7028 3.58546C55.9355 4.16088 56.0524 4.78642 56.0524 5.46393C56.0524 5.98119 55.9831 6.46875 55.8451 6.92723C55.7066 7.38571 55.503 7.81016 55.2338 8.19934C54.9647 8.58915 54.6312 8.93625 54.2346 9.24253C53.838 9.54818 53.3807 9.79938 52.8641 9.99614C53.1042 10.1199 53.33 10.2746 53.541 10.4602C53.752 10.6458 53.9413 10.8661 54.109 11.121L57.4935 16.6574ZM49.6529 8.22657C50.1553 8.22657 50.5828 8.16284 50.9361 8.03538C51.2894 7.90792 51.5784 7.73158 51.8042 7.50574C52.03 7.27991 52.1934 7.01633 52.2955 6.71377C52.3976 6.41183 52.4483 6.08575 52.4483 5.73617C52.4483 5.037 52.2206 4.49128 51.7658 4.09839C51.3105 3.70549 50.6063 3.50873 49.6529 3.50873H48.1679V8.22657H49.6529Z" fill="white"/>
  <path d="M61.9161 3.58546V7.29847H66.918V10.0283H61.9161V13.8174H68.4469V16.6568H58.2031V0.746094H68.4469V3.58546H61.9161Z" fill="white"/>
  <path d="M73.5802 3.58546V7.29847H78.582V10.0283H73.5802V13.8174H80.1109V16.6568H69.8672V0.746094H80.1109V3.58546H73.5802Z" fill="white"/>
  <path d="M15.744 5.52395C15.3474 4.55192 14.7887 3.71291 14.0679 3.00694C13.347 2.30097 12.479 1.7472 11.4636 1.34688C10.4483 0.946563 9.32156 0.746094 8.08348 0.746094H1.90234V3.58546H5.61536H8.08348C8.78945 3.58546 9.41932 3.70363 9.97247 3.94061C10.5256 4.17758 10.9934 4.51603 11.3758 4.95595C11.7581 5.39649 12.0508 5.93355 12.255 6.56651C12.4585 7.20009 12.5606 7.90978 12.5606 8.69618C12.5606 9.49002 12.4585 10.2034 12.255 10.8364C12.0508 11.47 11.7581 12.007 11.3758 12.4469C10.9934 12.8875 10.5256 13.2259 9.97247 13.4623C9.41932 13.6993 8.78945 13.8174 8.08348 13.8174H6.50571H1.90296V16.6568H8.0841C9.32156 16.6568 10.4483 16.4588 11.4642 16.0616C12.4796 15.665 13.3483 15.1112 14.0685 14.4015C14.7893 13.6918 15.348 12.851 15.7446 11.8789C16.1412 10.9069 16.3398 9.84579 16.3398 8.69557C16.3392 7.55339 16.1412 6.49597 15.744 5.52395Z" fill="white"/>
  <path fill-rule="evenodd" clip-rule="evenodd" d="M6.0575 10.1121C6.0575 8.51886 3.82326 7.01039 3.17297 4.17969C2.52392 7.01039 0.289062 8.51886 0.289062 10.1121C0.289062 11.7047 1.58036 12.996 3.17297 12.996C4.74517 12.996 6.0575 11.6824 6.0575 10.1121Z" fill="white"/>
  <path d="M87.4442 0.582031C88.1768 0.582031 88.8388 0.686597 89.4284 0.89511C90.0181 1.10424 90.5224 1.39381 90.94 1.76381C91.3577 2.13381 91.6782 2.56816 91.9021 3.06686C92.1255 3.56556 92.2375 4.10386 92.2375 4.68299C92.2375 5.18849 92.1806 5.63398 92.0673 6.01883C91.9535 6.40369 91.7889 6.73904 91.5724 7.02489C91.3558 7.31075 91.0922 7.55267 90.781 7.75066C90.4691 7.94866 90.1159 8.11324 89.7199 8.24565C90.6727 8.54635 91.3836 9.00422 91.8526 9.61986C92.3216 10.2355 92.5561 11.0089 92.5561 11.9395C92.5561 12.7308 92.4095 13.4312 92.1162 14.0395C91.8229 14.6477 91.4269 15.1594 90.9289 15.5733C90.4302 15.9872 89.8529 16.3009 89.197 16.5132C88.5412 16.726 87.8463 16.8318 87.1138 16.8318C86.315 16.8318 85.6183 16.7402 85.0249 16.5571C84.4309 16.3739 83.9143 16.1029 83.475 15.7434C83.0351 15.3846 82.6614 14.9447 82.3539 14.4243C82.0457 13.904 81.7821 13.3032 81.5625 12.6213L82.761 12.1263C82.9658 12.0385 83.1749 11.9945 83.3878 11.9945C83.5783 11.9945 83.7485 12.0348 83.8988 12.1152C84.0492 12.1956 84.1643 12.3132 84.2453 12.4673C84.3771 12.724 84.5219 12.9771 84.6797 13.2258C84.8374 13.4752 85.0262 13.6967 85.2458 13.891C85.4655 14.0852 85.7241 14.243 86.0211 14.3637C86.3181 14.4843 86.6714 14.545 87.0822 14.545C87.5438 14.545 87.9472 14.4701 88.2918 14.3197C88.6365 14.1694 88.9242 13.9733 89.155 13.7313C89.3858 13.4894 89.5578 13.2203 89.6716 12.9233C89.7855 12.6263 89.8418 12.328 89.8418 12.0273C89.8418 11.6462 89.8015 11.2997 89.7211 10.9885C89.6407 10.6773 89.4718 10.4112 89.2156 10.1916C88.9588 9.97191 88.5907 9.79929 88.1105 9.67492C87.6304 9.55056 86.9869 9.48807 86.1807 9.48807V7.54215C86.8477 7.54215 87.4009 7.48337 87.8408 7.36643C88.2807 7.24949 88.6303 7.08615 88.8908 6.87702C89.1506 6.66788 89.3325 6.4173 89.4352 6.12402C89.538 5.83074 89.5893 5.50838 89.5893 5.15632C89.5893 4.40147 89.3839 3.83161 88.9737 3.44676C88.5628 3.06191 88.0023 2.86948 87.2913 2.86948C86.646 2.86948 86.1114 3.03964 85.6864 3.37994C85.2613 3.72024 84.9643 4.15769 84.796 4.69227C84.7081 4.9707 84.5869 5.16993 84.4334 5.2912C84.2794 5.41186 84.0776 5.47249 83.8289 5.47249C83.7114 5.47249 83.587 5.46136 83.4552 5.44032L82.0259 5.19159C82.1361 4.42931 82.3483 3.75984 82.6638 3.18442C82.9788 2.609 83.3729 2.12824 83.8456 1.74339C84.3183 1.35854 84.861 1.06897 85.4729 0.874692C86.0823 0.679173 86.7407 0.582031 87.4442 0.582031Z" fill="white"/>
  <path d="M104.999 0.754524V1.93073C104.999 2.28279 104.96 2.56679 104.883 2.78273C104.806 2.99929 104.731 3.18057 104.658 3.32659L98.6438 15.7285C98.5188 15.9852 98.3431 16.203 98.116 16.3825C97.8889 16.5619 97.5808 16.6516 97.1922 16.6516H95.224L101.381 4.5028C101.638 4.00473 101.924 3.57594 102.239 3.21646H94.6307C94.4618 3.21646 94.3157 3.15397 94.1908 3.0296C94.0658 2.90524 94.0039 2.7586 94.0039 2.58968V0.753906H104.999V0.754524Z" fill="white"/>
</svg>
