<svg xmlns="http://www.w3.org/2000/svg" width="32" height="32" viewBox="0 0 32 32" fill="none">
  <path d="M17.8799 15.9976L23.6133 10.2776C23.8643 10.0266 24.0054 9.68605 24.0054 9.33098C24.0054 8.97591 23.8643 8.63538 23.6133 8.38431C23.3622 8.13324 23.0217 7.99219 22.6666 7.99219C22.3115 7.99219 21.971 8.13324 21.7199 8.38431L15.9999 14.1176L10.2799 8.38431C10.0288 8.13324 9.68832 7.99219 9.33325 7.99219C8.97818 7.99219 8.63766 8.13324 8.38659 8.38431C8.13551 8.63538 7.99446 8.97591 7.99446 9.33098C7.99446 9.68605 8.13551 10.0266 8.38659 10.2776L14.1199 15.9976L8.38659 21.7176C8.26161 21.8416 8.16242 21.9891 8.09473 22.1515C8.02704 22.314 7.99219 22.4883 7.99219 22.6643C7.99219 22.8403 8.02704 23.0146 8.09473 23.1771C8.16242 23.3396 8.26161 23.487 8.38659 23.611C8.51054 23.7359 8.658 23.8351 8.82048 23.9028C8.98296 23.9705 9.15724 24.0054 9.33325 24.0054C9.50927 24.0054 9.68354 23.9705 9.84602 23.9028C10.0085 23.8351 10.156 23.7359 10.2799 23.611L15.9999 17.8776L21.7199 23.611C21.8439 23.7359 21.9913 23.8351 22.1538 23.9028C22.3163 23.9705 22.4906 24.0054 22.6666 24.0054C22.8426 24.0054 23.0169 23.9705 23.1794 23.9028C23.3418 23.8351 23.4893 23.7359 23.6133 23.611C23.7382 23.487 23.8374 23.3396 23.9051 23.1771C23.9728 23.0146 24.0077 22.8403 24.0077 22.6643C24.0077 22.4883 23.9728 22.314 23.9051 22.1515C23.8374 21.9891 23.7382 21.8416 23.6133 21.7176L17.8799 15.9976Z" fill="#A3A3A3"/>
</svg>