<svg width="21" height="20" viewBox="0 0 21 20" fill="none" xmlns="http://www.w3.org/2000/svg">
<g clip-path="url(#clip0_622_12299)">
<path d="M1.7998 11.7969H0.588867C0.265 11.7969 0.00292969 12.0589 0.00292969 12.3828V19.4141C0.00292969 19.7379 0.265 20 0.588867 20H1.7998C2.7691 20 3.55762 19.2115 3.55762 18.2422V13.5547C3.55762 12.5854 2.7691 11.7969 1.7998 11.7969Z" fill="#005375"/>
<path d="M13.5576 0C10.0068 0 7.1123 2.89449 7.1123 6.44531C7.1123 7.99219 7.66305 9.41012 8.57715 10.5234C9.31543 10.7343 10.0068 11.1093 10.5927 11.625C10.7029 11.7077 10.7652 11.7067 10.8857 11.7187H12.9717C13.7803 11.7187 14.4951 12.1171 14.9053 12.75C17.8115 12.1289 20.0029 9.53906 20.0029 6.44531C20.0029 2.89449 17.1084 0 13.5576 0ZM14.1553 9.26949H14.1436V9.96094C14.1436 10.289 13.8858 10.5469 13.5576 10.5469C13.2295 10.5469 12.9717 10.289 12.9717 9.96094V9.26949C12.585 9.14058 12.2217 8.89449 11.9053 8.50781C11.6943 8.26168 11.7295 7.8984 11.9756 7.6875C12.2217 7.47656 12.5967 7.51172 12.7959 7.75781C13.1123 8.13281 13.4639 8.27344 13.7568 8.16793C13.9912 8.0859 14.1436 7.86324 14.1436 7.61719C14.1436 7.28902 13.8858 7.03125 13.5576 7.03125C12.585 7.03125 11.7998 6.24605 11.7998 5.27344C11.7998 4.57027 12.2217 3.92574 12.8779 3.65625C12.9014 3.64453 12.9365 3.64453 12.9717 3.63277V2.92969C12.9717 2.60152 13.2295 2.34375 13.5576 2.34375C13.8858 2.34375 14.1436 2.60152 14.1436 2.92969V3.63277C14.4482 3.73828 14.7412 3.89062 15.0107 4.1484C15.2451 4.37105 15.2451 4.74605 15.0225 4.98047C14.7998 5.21488 14.4248 5.21484 14.1904 4.99219C13.9091 4.72262 13.5928 4.61719 13.335 4.73434C13.1123 4.82812 12.9717 5.03906 12.9717 5.27344C12.9717 5.60152 13.2295 5.85937 13.5576 5.85937C14.5303 5.85937 15.3154 6.64453 15.3154 7.61719C15.3154 8.35547 14.8466 9.01172 14.1553 9.26949Z" fill="#005375"/>
<path d="M19.8271 12.9335C19.7568 12.8164 19.6631 12.7226 19.5576 12.6406C19.1262 12.2631 18.3993 12.2988 17.9756 12.7578L15.3154 15.8281L15.2334 15.9218C14.9053 16.2851 14.4365 16.4843 13.9443 16.4843H9.3584C9.03023 16.4843 8.77246 16.2265 8.77246 15.8984C8.77246 15.5702 9.03023 15.3124 9.3584 15.3124H12.9717C13.6162 15.3124 14.1436 14.7851 14.1436 14.1406V14.1288C14.1318 13.4843 13.6162 12.9687 12.9717 12.9687H10.8115C10.4601 12.9687 10.0835 12.8397 9.78027 12.582C8.35063 11.3281 6.26465 11.246 4.72949 12.3125V19.5195C5.88965 19.8359 7.08496 20 8.29195 20H13.5576C14.8466 20 16.0654 19.3906 16.8389 18.3593L19.6514 14.6093C20.0618 14.0707 20.0927 13.332 19.8271 12.9335Z" fill="#005375"/>
</g>
<defs>
<clipPath id="clip0_622_12299">
<rect width="20" height="20" fill="white" transform="translate(0.00292969)"/>
</clipPath>
</defs>
</svg>
