<svg width="268" height="56" viewBox="0 0 268 56" fill="none" xmlns="http://www.w3.org/2000/svg">
<rect width="268" height="56" rx="8" fill="#387DE5"/>
<mask id="mask0_5312_185296" style="mask-type:alpha" maskUnits="userSpaceOnUse" x="32" y="16" width="24" height="24">
<rect x="32" y="16" width="24" height="24" fill="#D9D9D9"/>
</mask>
<g mask="url(#mask0_5312_185296)">
<path d="M51.7857 27.728C51.5849 27.728 51.4071 27.6561 51.2522 27.5123C51.0973 27.3686 51.0075 27.1905 50.9827 26.978C50.766 25.3639 50.0862 23.9853 48.9432 22.8424C47.8003 21.6994 46.4218 21.0196 44.8077 20.803C44.5952 20.778 44.417 20.6905 44.2733 20.5405C44.1295 20.3905 44.0577 20.2092 44.0577 19.9967C44.0577 19.7842 44.132 19.6062 44.2807 19.4626C44.4295 19.319 44.6051 19.2607 44.8077 19.2876C46.8436 19.5081 48.5791 20.336 50.0144 21.7713C51.4496 23.2065 52.2775 24.9421 52.498 26.978C52.5249 27.1805 52.4663 27.3562 52.322 27.5049C52.1777 27.6536 51.9989 27.728 51.7857 27.728ZM47.6483 27.728C47.4853 27.728 47.341 27.6722 47.2154 27.5607C47.0897 27.4491 46.9955 27.3004 46.9327 27.1145C46.7801 26.5735 46.5003 26.0962 46.0933 25.6828C45.6862 25.2693 45.2121 24.9895 44.6711 24.8433C44.4852 24.7807 44.3365 24.6866 44.225 24.5612C44.1134 24.4359 44.0577 24.2854 44.0577 24.1099C44.0577 23.8591 44.1439 23.6568 44.3163 23.503C44.4888 23.3492 44.6846 23.2992 44.9038 23.353C45.7795 23.5564 46.534 23.9749 47.1673 24.6084C47.8006 25.242 48.2224 25.9998 48.4326 26.8818C48.4865 27.1011 48.4319 27.2969 48.2689 27.4693C48.1059 27.6418 47.899 27.728 47.6483 27.728ZM51.4403 36.4972C49.5557 36.4972 47.6625 36.0591 45.7605 35.1828C43.8586 34.3065 42.1112 33.0703 40.5183 31.4741C38.9253 29.878 37.6907 28.1305 36.8144 26.2318C35.9381 24.3331 35.5 22.4415 35.5 20.5569C35.5 20.2541 35.6 20.0018 35.8 19.8C36 19.5982 36.25 19.4972 36.55 19.4972H39.8115C40.0641 19.4972 40.2868 19.5796 40.4798 19.7444C40.6727 19.9091 40.7955 20.1126 40.848 20.3549L41.4211 23.2972C41.4609 23.5703 41.4525 23.8049 41.3961 24.0011C41.3397 24.1972 41.2384 24.362 41.0923 24.4953L38.7826 26.7434C39.1544 27.4241 39.5791 28.068 40.0567 28.6751C40.5343 29.2822 41.0513 29.862 41.6077 30.4145C42.1564 30.9633 42.7397 31.4729 43.3577 31.9434C43.9756 32.4139 44.6429 32.8517 45.3596 33.2568L47.6038 30.9934C47.7602 30.8306 47.9497 30.7165 48.1721 30.6511C48.3945 30.5857 48.6256 30.5697 48.8654 30.603L51.6422 31.1684C51.8948 31.2351 52.1009 31.3639 52.2605 31.5549C52.4201 31.746 52.5 31.9626 52.5 32.2049V35.4472C52.5 35.7472 52.399 35.9972 52.1972 36.1972C51.9954 36.3972 51.7431 36.4972 51.4403 36.4972ZM38.0731 25.3242L39.8577 23.6165C39.8897 23.5908 39.9106 23.5556 39.9202 23.5107C39.9298 23.4658 39.9282 23.4241 39.9154 23.3857L39.4807 21.1511C39.4679 21.0998 39.4455 21.0613 39.4135 21.0357C39.3814 21.01 39.3397 20.9972 39.2885 20.9972H37.15C37.1115 20.9972 37.0795 21.01 37.0538 21.0357C37.0282 21.0613 37.0153 21.0934 37.0153 21.1318C37.0666 21.8152 37.1785 22.5094 37.3509 23.2145C37.5234 23.9197 37.7641 24.6229 38.0731 25.3242ZM46.773 33.9664C47.4359 34.2754 48.1272 34.5117 48.8471 34.6751C49.567 34.8386 50.2397 34.9357 50.8654 34.9664C50.9038 34.9664 50.9359 34.9536 50.9615 34.928C50.9871 34.9023 51 34.8703 51 34.8318V32.728C51 32.6767 50.9871 32.635 50.9615 32.603C50.9359 32.5709 50.8974 32.5485 50.8461 32.5357L48.7461 32.1087C48.7077 32.0959 48.674 32.0943 48.6452 32.1039C48.6163 32.1136 48.5859 32.1344 48.5538 32.1664L46.773 33.9664Z" fill="white"/>
</g>
<path d="M78.1339 21.9091V35H76.5998L69.4663 24.7216H69.3384V35H67.7532V21.9091H69.2873L76.4464 32.2131H76.5742V21.9091H78.1339ZM85.2179 35.2045C84.2718 35.2045 83.4558 34.9957 82.7697 34.5781C82.0879 34.1562 81.5616 33.5682 81.1909 32.8139C80.8244 32.0554 80.6412 31.1733 80.6412 30.1676C80.6412 29.1619 80.8244 28.2756 81.1909 27.5085C81.5616 26.7372 82.0772 26.1364 82.7377 25.706C83.4025 25.2713 84.1781 25.054 85.0645 25.054C85.5758 25.054 86.0808 25.1392 86.5794 25.3097C87.0779 25.4801 87.5318 25.7571 87.9409 26.1406C88.35 26.5199 88.676 27.0227 88.9189 27.6491C89.1618 28.2756 89.2832 29.0469 89.2832 29.9631V30.6023H81.715V29.2983H87.7491C87.7491 28.7443 87.6383 28.25 87.4167 27.8153C87.1994 27.3807 86.8883 27.0376 86.4835 26.7862C86.0829 26.5348 85.6099 26.4091 85.0645 26.4091C84.4636 26.4091 83.9437 26.5582 83.5048 26.8565C83.0701 27.1506 82.7356 27.5341 82.5012 28.0071C82.2669 28.4801 82.1497 28.9872 82.1497 29.5284V30.3977C82.1497 31.1392 82.2775 31.7678 82.5332 32.2834C82.7931 32.7947 83.1532 33.1847 83.6135 33.4531C84.0737 33.7173 84.6085 33.8494 85.2179 33.8494C85.6142 33.8494 85.9721 33.794 86.2917 33.6832C86.6156 33.5682 86.8947 33.3977 87.1291 33.1719C87.3635 32.9418 87.5446 32.6562 87.6724 32.3153L89.1298 32.7244C88.9764 33.2188 88.7186 33.6534 88.3564 34.0284C87.9941 34.3991 87.5467 34.6889 87.014 34.8977C86.4814 35.1023 85.8826 35.2045 85.2179 35.2045ZM92.4393 25.1818L94.7915 29.196L97.1438 25.1818H98.8825L95.712 30.0909L98.8825 35H97.1438L94.7915 31.1903L92.4393 35H90.7006L93.82 30.0909L90.7006 25.1818H92.4393ZM105.305 25.1818V26.4602H100.217V25.1818H105.305ZM101.7 22.8295H103.208V32.1875C103.208 32.6136 103.27 32.9332 103.394 33.1463C103.521 33.3551 103.683 33.4957 103.879 33.5682C104.08 33.6364 104.291 33.6705 104.512 33.6705C104.678 33.6705 104.815 33.6619 104.921 33.6449C105.028 33.6236 105.113 33.6065 105.177 33.5938L105.484 34.9489C105.382 34.9872 105.239 35.0256 105.056 35.0639C104.872 35.1065 104.64 35.1278 104.359 35.1278C103.933 35.1278 103.515 35.0362 103.106 34.853C102.701 34.6697 102.365 34.3906 102.096 34.0156C101.832 33.6406 101.7 33.1676 101.7 32.5966V22.8295ZM123.375 26H121.79C121.696 25.544 121.532 25.1435 121.298 24.7983C121.068 24.4531 120.786 24.1634 120.454 23.929C120.126 23.6903 119.762 23.5114 119.361 23.392C118.96 23.2727 118.543 23.2131 118.108 23.2131C117.316 23.2131 116.597 23.4134 115.954 23.8139C115.315 24.2145 114.806 24.8047 114.426 25.5845C114.051 26.3643 113.864 27.321 113.864 28.4545C113.864 29.5881 114.051 30.5447 114.426 31.3246C114.806 32.1044 115.315 32.6946 115.954 33.0952C116.597 33.4957 117.316 33.696 118.108 33.696C118.543 33.696 118.96 33.6364 119.361 33.517C119.762 33.3977 120.126 33.2209 120.454 32.9865C120.786 32.7479 121.068 32.456 121.298 32.1108C121.532 31.7614 121.696 31.3608 121.79 30.9091H123.375C123.256 31.5781 123.039 32.1768 122.723 32.7053C122.408 33.2337 122.016 33.6832 121.547 34.054C121.078 34.4205 120.552 34.6996 119.968 34.8913C119.389 35.0831 118.769 35.179 118.108 35.179C116.992 35.179 115.999 34.9062 115.129 34.3608C114.26 33.8153 113.576 33.0398 113.078 32.0341C112.579 31.0284 112.33 29.8352 112.33 28.4545C112.33 27.0739 112.579 25.8807 113.078 24.875C113.576 23.8693 114.26 23.0938 115.129 22.5483C115.999 22.0028 116.992 21.7301 118.108 21.7301C118.769 21.7301 119.389 21.826 119.968 22.0178C120.552 22.2095 121.078 22.4908 121.547 22.8615C122.016 23.228 122.408 23.6754 122.723 24.2038C123.039 24.728 123.256 25.3267 123.375 26ZM128.621 35.2301C127.999 35.2301 127.435 35.1129 126.928 34.8786C126.42 34.6399 126.018 34.2969 125.719 33.8494C125.421 33.3977 125.272 32.8523 125.272 32.2131C125.272 31.6506 125.383 31.1946 125.604 30.8452C125.826 30.4915 126.122 30.2145 126.493 30.0142C126.864 29.8139 127.273 29.6648 127.72 29.5668C128.172 29.4645 128.626 29.3835 129.082 29.3239C129.678 29.2472 130.162 29.1896 130.533 29.1513C130.908 29.1087 131.18 29.0384 131.351 28.9403C131.526 28.8423 131.613 28.6719 131.613 28.429V28.3778C131.613 27.7472 131.44 27.2571 131.095 26.9077C130.754 26.5582 130.237 26.3835 129.542 26.3835C128.822 26.3835 128.257 26.5412 127.848 26.8565C127.439 27.1719 127.151 27.5085 126.985 27.8665L125.553 27.3551C125.809 26.7585 126.15 26.294 126.576 25.9616C127.006 25.625 127.475 25.3906 127.982 25.2585C128.494 25.1222 128.996 25.054 129.491 25.054C129.806 25.054 130.168 25.0923 130.577 25.169C130.991 25.2415 131.389 25.3928 131.773 25.6229C132.161 25.853 132.482 26.2003 132.738 26.6648C132.994 27.1293 133.121 27.7514 133.121 28.5312V35H131.613V33.6705H131.536C131.434 33.8835 131.263 34.1115 131.025 34.3544C130.786 34.5973 130.469 34.804 130.072 34.9744C129.676 35.1449 129.192 35.2301 128.621 35.2301ZM128.852 33.875C129.448 33.875 129.951 33.7578 130.36 33.5234C130.773 33.2891 131.085 32.9865 131.293 32.6158C131.506 32.245 131.613 31.8551 131.613 31.446V30.0653C131.549 30.142 131.408 30.2124 131.191 30.2763C130.978 30.3359 130.731 30.3892 130.45 30.4361C130.173 30.4787 129.902 30.517 129.638 30.5511C129.378 30.581 129.167 30.6065 129.005 30.6278C128.613 30.679 128.246 30.7621 127.906 30.8771C127.569 30.9879 127.296 31.1562 127.087 31.3821C126.883 31.6037 126.781 31.9062 126.781 32.2898C126.781 32.8139 126.974 33.2102 127.362 33.4787C127.754 33.7429 128.251 33.875 128.852 33.875ZM137.383 21.9091V35H135.875V21.9091H137.383ZM141.655 21.9091V35H140.146V21.9091H141.655ZM150.017 28.4545C150.017 26.8437 150.226 25.3629 150.644 24.0121C151.066 22.657 151.666 21.4105 152.446 20.2727H153.776C153.469 20.6946 153.181 21.2145 152.913 21.8324C152.649 22.446 152.416 23.1214 152.216 23.8587C152.016 24.5916 151.858 25.3501 151.743 26.1342C151.632 26.9183 151.577 27.6918 151.577 28.4545C151.577 29.4688 151.675 30.4979 151.871 31.5419C152.067 32.5859 152.331 33.5554 152.664 34.4503C152.996 35.3452 153.367 36.0739 153.776 36.6364H152.446C151.666 35.4986 151.066 34.2543 150.644 32.9034C150.226 31.5483 150.017 30.0653 150.017 28.4545ZM160.4 35.179C159.556 35.179 158.804 35.0341 158.143 34.7443C157.487 34.4545 156.965 34.0518 156.577 33.5362C156.194 33.0163 155.985 32.4134 155.951 31.7273H157.561C157.596 32.1491 157.74 32.5135 157.996 32.8203C158.252 33.1229 158.586 33.3572 159 33.5234C159.413 33.6896 159.871 33.7727 160.374 33.7727C160.936 33.7727 161.435 33.6747 161.87 33.4787C162.304 33.2827 162.645 33.0099 162.892 32.6605C163.14 32.3111 163.263 31.9062 163.263 31.446C163.263 30.9645 163.144 30.5405 162.905 30.174C162.667 29.8033 162.317 29.5135 161.857 29.3047C161.397 29.0959 160.834 28.9915 160.169 28.9915H159.121V27.5852H160.169C160.689 27.5852 161.145 27.4915 161.537 27.304C161.934 27.1165 162.243 26.8523 162.464 26.5114C162.69 26.1705 162.803 25.7699 162.803 25.3097C162.803 24.8665 162.705 24.4808 162.509 24.1527C162.313 23.8246 162.036 23.5689 161.678 23.3857C161.324 23.2024 160.907 23.1108 160.425 23.1108C159.973 23.1108 159.547 23.1939 159.147 23.3601C158.75 23.522 158.426 23.7585 158.175 24.0696C157.924 24.3764 157.787 24.7472 157.766 25.1818H156.232C156.257 24.4957 156.464 23.8949 156.852 23.3793C157.24 22.8594 157.747 22.4545 158.373 22.1648C159.004 21.875 159.696 21.7301 160.451 21.7301C161.26 21.7301 161.955 21.8942 162.534 22.2223C163.114 22.5462 163.559 22.9744 163.87 23.5071C164.181 24.0398 164.337 24.6151 164.337 25.233C164.337 25.9702 164.143 26.5987 163.755 27.1186C163.372 27.6385 162.85 27.9986 162.189 28.1989V28.3011C163.016 28.4375 163.662 28.7891 164.126 29.3558C164.591 29.9183 164.823 30.6151 164.823 31.446C164.823 32.1577 164.629 32.7969 164.241 33.3636C163.858 33.9261 163.333 34.3693 162.669 34.6932C162.004 35.017 161.248 35.179 160.4 35.179ZM171.86 35.179C171.017 35.179 170.265 35.0341 169.604 34.7443C168.948 34.4545 168.426 34.0518 168.038 33.5362C167.654 33.0163 167.446 32.4134 167.412 31.7273H169.022C169.056 32.1491 169.201 32.5135 169.457 32.8203C169.713 33.1229 170.047 33.3572 170.461 33.5234C170.874 33.6896 171.332 33.7727 171.835 33.7727C172.397 33.7727 172.896 33.6747 173.331 33.4787C173.765 33.2827 174.106 33.0099 174.353 32.6605C174.6 32.3111 174.724 31.9062 174.724 31.446C174.724 30.9645 174.605 30.5405 174.366 30.174C174.127 29.8033 173.778 29.5135 173.318 29.3047C172.858 29.0959 172.295 28.9915 171.63 28.9915H170.582V27.5852H171.63C172.15 27.5852 172.606 27.4915 172.998 27.304C173.395 27.1165 173.703 26.8523 173.925 26.5114C174.151 26.1705 174.264 25.7699 174.264 25.3097C174.264 24.8665 174.166 24.4808 173.97 24.1527C173.774 23.8246 173.497 23.5689 173.139 23.3857C172.785 23.2024 172.368 23.1108 171.886 23.1108C171.434 23.1108 171.008 23.1939 170.608 23.3601C170.211 23.522 169.887 23.7585 169.636 24.0696C169.385 24.3764 169.248 24.7472 169.227 25.1818H167.693C167.718 24.4957 167.925 23.8949 168.313 23.3793C168.701 22.8594 169.208 22.4545 169.834 22.1648C170.465 21.875 171.157 21.7301 171.912 21.7301C172.721 21.7301 173.416 21.8942 173.995 22.2223C174.575 22.5462 175.02 22.9744 175.331 23.5071C175.642 24.0398 175.798 24.6151 175.798 25.233C175.798 25.9702 175.604 26.5987 175.216 27.1186C174.833 27.6385 174.311 27.9986 173.65 28.1989V28.3011C174.477 28.4375 175.123 28.7891 175.587 29.3558C176.051 29.9183 176.284 30.6151 176.284 31.446C176.284 32.1577 176.09 32.7969 175.702 33.3636C175.319 33.9261 174.794 34.3693 174.13 34.6932C173.465 35.017 172.708 35.179 171.86 35.179ZM183.091 35.179C182.213 35.179 181.438 35.0234 180.765 34.7124C180.096 34.397 179.574 33.9645 179.199 33.4148C178.824 32.8608 178.638 32.2301 178.642 31.5227C178.638 30.9687 178.747 30.4574 178.968 29.9886C179.19 29.5156 179.493 29.1214 179.876 28.8061C180.264 28.4865 180.696 28.2841 181.174 28.1989V28.1222C180.547 27.9602 180.049 27.6087 179.678 27.0675C179.307 26.522 179.124 25.902 179.128 25.2074C179.124 24.5426 179.292 23.9482 179.633 23.424C179.974 22.8999 180.443 22.4865 181.039 22.1839C181.64 21.8814 182.324 21.7301 183.091 21.7301C183.85 21.7301 184.527 21.8814 185.124 22.1839C185.721 22.4865 186.189 22.8999 186.53 23.424C186.875 23.9482 187.05 24.5426 187.054 25.2074C187.05 25.902 186.86 26.522 186.485 27.0675C186.115 27.6087 185.623 27.9602 185.009 28.1222V28.1989C185.482 28.2841 185.908 28.4865 186.287 28.8061C186.667 29.1214 186.969 29.5156 187.195 29.9886C187.421 30.4574 187.536 30.9687 187.54 31.5227C187.536 32.2301 187.344 32.8608 186.965 33.4148C186.59 33.9645 186.068 34.397 185.399 34.7124C184.734 35.0234 183.965 35.179 183.091 35.179ZM183.091 33.7727C183.684 33.7727 184.195 33.6768 184.625 33.4851C185.056 33.2933 185.388 33.0227 185.623 32.6733C185.857 32.3239 185.976 31.9148 185.98 31.446C185.976 30.9517 185.848 30.5149 185.597 30.1357C185.346 29.7564 185.002 29.4581 184.568 29.2408C184.137 29.0234 183.645 28.9148 183.091 28.9148C182.533 28.9148 182.034 29.0234 181.596 29.2408C181.161 29.4581 180.818 29.7564 180.566 30.1357C180.319 30.5149 180.198 30.9517 180.202 31.446C180.198 31.9148 180.311 32.3239 180.541 32.6733C180.775 33.0227 181.11 33.2933 181.544 33.4851C181.979 33.6768 182.495 33.7727 183.091 33.7727ZM183.091 27.5597C183.56 27.5597 183.975 27.4659 184.338 27.2784C184.704 27.0909 184.992 26.8288 185.201 26.4922C185.409 26.1555 185.516 25.7614 185.52 25.3097C185.516 24.8665 185.412 24.4808 185.207 24.1527C185.002 23.8203 184.719 23.5646 184.357 23.3857C183.995 23.2024 183.573 23.1108 183.091 23.1108C182.601 23.1108 182.173 23.2024 181.806 23.3857C181.44 23.5646 181.157 23.8203 180.956 24.1527C180.756 24.4808 180.658 24.8665 180.662 25.3097C180.658 25.7614 180.758 26.1555 180.963 26.4922C181.172 26.8288 181.459 27.0909 181.826 27.2784C182.192 27.4659 182.614 27.5597 183.091 27.5597ZM194.643 21.2955L190.425 36.9688H189.044L193.263 21.2955H194.643ZM200.829 35.179C199.985 35.179 199.233 35.0341 198.573 34.7443C197.917 34.4545 197.395 34.0518 197.007 33.5362C196.623 33.0163 196.414 32.4134 196.38 31.7273H197.991C198.025 32.1491 198.17 32.5135 198.426 32.8203C198.681 33.1229 199.016 33.3572 199.429 33.5234C199.843 33.6896 200.301 33.7727 200.804 33.7727C201.366 33.7727 201.865 33.6747 202.299 33.4787C202.734 33.2827 203.075 33.0099 203.322 32.6605C203.569 32.3111 203.693 31.9062 203.693 31.446C203.693 30.9645 203.574 30.5405 203.335 30.174C203.096 29.8033 202.747 29.5135 202.287 29.3047C201.826 29.0959 201.264 28.9915 200.599 28.9915H199.551V27.5852H200.599C201.119 27.5852 201.575 27.4915 201.967 27.304C202.363 27.1165 202.672 26.8523 202.894 26.5114C203.12 26.1705 203.233 25.7699 203.233 25.3097C203.233 24.8665 203.135 24.4808 202.939 24.1527C202.743 23.8246 202.466 23.5689 202.108 23.3857C201.754 23.2024 201.336 23.1108 200.855 23.1108C200.403 23.1108 199.977 23.1939 199.576 23.3601C199.18 23.522 198.856 23.7585 198.605 24.0696C198.353 24.3764 198.217 24.7472 198.196 25.1818H196.662C196.687 24.4957 196.894 23.8949 197.282 23.3793C197.669 22.8594 198.176 22.4545 198.803 22.1648C199.434 21.875 200.126 21.7301 200.88 21.7301C201.69 21.7301 202.385 21.8942 202.964 22.2223C203.544 22.5462 203.989 22.9744 204.3 23.5071C204.611 24.0398 204.767 24.6151 204.767 25.233C204.767 25.9702 204.573 26.5987 204.185 27.1186C203.801 27.6385 203.279 27.9986 202.619 28.1989V28.3011C203.446 28.4375 204.091 28.7891 204.556 29.3558C205.02 29.9183 205.252 30.6151 205.252 31.446C205.252 32.1577 205.059 32.7969 204.671 33.3636C204.287 33.9261 203.763 34.3693 203.098 34.6932C202.434 35.017 201.677 35.179 200.829 35.179ZM207.56 32.3153V31.0114L213.313 21.9091H214.259V23.929H213.62L209.273 30.8068V30.9091H217.02V32.3153H207.56ZM213.722 35V31.919V31.3118V21.9091H215.23V35H213.722ZM223.686 35.179C222.722 35.179 221.902 34.9169 221.225 34.3928C220.547 33.8643 220.029 33.0994 219.671 32.098C219.313 31.0923 219.134 29.8778 219.134 28.4545C219.134 27.0398 219.313 25.8317 219.671 24.8303C220.034 23.8246 220.553 23.0575 221.231 22.5291C221.913 21.9964 222.731 21.7301 223.686 21.7301C224.64 21.7301 225.456 21.9964 226.134 22.5291C226.816 23.0575 227.335 23.8246 227.693 24.8303C228.056 25.8317 228.237 27.0398 228.237 28.4545C228.237 29.8778 228.058 31.0923 227.7 32.098C227.342 33.0994 226.824 33.8643 226.146 34.3928C225.469 34.9169 224.649 35.179 223.686 35.179ZM223.686 33.7727C224.64 33.7727 225.382 33.3125 225.91 32.392C226.438 31.4716 226.703 30.1591 226.703 28.4545C226.703 27.321 226.581 26.3558 226.338 25.5589C226.1 24.7621 225.754 24.1548 225.303 23.7372C224.855 23.3196 224.316 23.1108 223.686 23.1108C222.74 23.1108 222 23.5774 221.468 24.5107C220.935 25.4396 220.669 26.7543 220.669 28.4545C220.669 29.5881 220.788 30.5511 221.026 31.3438C221.265 32.1364 221.608 32.7393 222.056 33.1527C222.507 33.5661 223.051 33.7727 223.686 33.7727ZM233.913 28.4545C233.913 30.0653 233.702 31.5483 233.28 32.9034C232.862 34.2543 232.264 35.4986 231.484 36.6364H230.154C230.461 36.2145 230.747 35.6946 231.011 35.0767C231.279 34.4631 231.514 33.7898 231.714 33.0568C231.914 32.3196 232.07 31.5589 232.181 30.7749C232.296 29.9865 232.353 29.2131 232.353 28.4545C232.353 27.4403 232.255 26.4112 232.059 25.3672C231.863 24.3232 231.599 23.3537 231.267 22.4588C230.934 21.5639 230.563 20.8352 230.154 20.2727H231.484C232.264 21.4105 232.862 22.657 233.28 24.0121C233.702 25.3629 233.913 26.8437 233.913 28.4545Z" fill="white"/>
</svg>
