<svg width="92" height="92" viewBox="0 0 92 92" fill="none" xmlns="http://www.w3.org/2000/svg">
<circle cx="46" cy="45" r="44" fill="#FFBF42"/>
<mask id="mask0_5138_197412" style="mask-type:alpha" maskUnits="userSpaceOnUse" x="27" y="26" width="38" height="38">
<rect x="27" y="26" width="38" height="38" fill="#D9D9D9"/>
</mask>
<g mask="url(#mask0_5138_197412)">
<path d="M57.5218 59.88L46.6211 48.9793H45.8294C45.1067 50.4043 44.0552 51.5482 42.6749 52.4109C41.2946 53.2736 39.764 53.705 38.0833 53.705C35.6677 53.705 33.6124 52.8575 31.9174 51.1625C30.2225 49.4675 29.375 47.4123 29.375 44.9967C29.375 43.2043 29.8723 41.5925 30.867 40.1614C31.8617 38.7303 33.1527 37.7093 34.7401 37.0983L31.1166 33.4748C30.8873 33.2455 30.7726 32.9714 30.7726 32.6528C30.7726 32.3341 30.8873 32.0519 31.1166 31.8063C31.3623 31.5708 31.6444 31.4506 31.9631 31.4455C32.2818 31.4404 32.5639 31.5607 32.8096 31.8063L59.1903 58.2114C59.4095 58.4306 59.5257 58.7021 59.5389 59.0259C59.5521 59.3496 59.4359 59.6343 59.1903 59.88C58.9609 60.1093 58.6828 60.224 58.356 60.224C58.0292 60.224 57.7511 60.1093 57.5218 59.88ZM63.4439 44.9967C63.4439 45.1875 63.4135 45.3651 63.3526 45.5295C63.2917 45.6939 63.1871 45.8502 63.039 45.9984L58.8493 50.1729C58.7011 50.3211 58.5433 50.4297 58.3758 50.4987C58.2083 50.5677 58.0586 50.6022 57.9267 50.6022C57.7156 50.6022 57.5435 50.5824 57.4106 50.5428C57.2776 50.5033 57.1371 50.4358 56.9889 50.3403L53.7949 47.3138L53.2163 47.7401L52.9118 47.4356L55.028 45.8949L57.741 47.9258L60.6945 44.9967L59.1112 43.4133H48.8895L46.5145 41.0384H59.4856C59.6765 41.0384 59.8581 41.0729 60.0307 41.1419C60.2032 41.2109 60.3636 41.3195 60.5118 41.4677L63.039 43.9949C63.1871 44.1431 63.2917 44.2994 63.3526 44.4638C63.4135 44.6282 63.4439 44.8058 63.4439 44.9967ZM38.0833 51.33C39.4291 51.33 40.646 50.9468 41.7341 50.1805C42.8221 49.4143 43.5884 48.3846 44.0329 47.0915H44.7333L36.5974 38.9556C35.142 39.2479 33.9702 39.9711 33.0821 41.1251C32.194 42.2791 31.7499 43.5696 31.7499 44.9967C31.7499 46.7383 32.3701 48.2293 33.6103 49.4696C34.8506 50.7099 36.3416 51.33 38.0833 51.33ZM38.0833 47.5543C37.3748 47.5543 36.7714 47.3051 36.2731 46.8068C35.7748 46.3085 35.5256 45.7051 35.5256 44.9967C35.5256 44.2882 35.7748 43.6848 36.2731 43.1865C36.7714 42.6882 37.3748 42.439 38.0833 42.439C38.7917 42.439 39.3951 42.6882 39.8934 43.1865C40.3917 43.6848 40.6409 44.2882 40.6409 44.9967C40.6409 45.7051 40.3917 46.3085 39.8934 46.8068C39.3951 47.3051 38.7917 47.5543 38.0833 47.5543Z" fill="white"/>
</g>
</svg>
