<svg width="12" height="16" viewBox="0 0 12 16" fill="none" xmlns="http://www.w3.org/2000/svg">
<path d="M5.71068 8.00313C5.56745 7.50313 5.57031 6.5375 5.65339 6.5375C5.89401 6.5375 5.87109 7.69063 5.71068 8.00313ZM5.66198 9.47812C5.44141 10.1094 5.16641 10.8313 4.84844 11.4375C5.37266 11.2188 5.96562 10.9 6.65026 10.7531C6.28646 10.4531 5.93698 10.0219 5.66198 9.47812ZM2.96641 13.3781C2.96641 13.4031 3.34453 13.2094 3.96615 12.1219C3.77422 12.3187 3.13255 12.8875 2.96641 13.3781ZM7.60417 5H11.5V15.25C11.5 15.6656 11.1935 16 10.8125 16H1.1875C0.80651 16 0.5 15.6656 0.5 15.25V0.75C0.5 0.334375 0.80651 0 1.1875 0H6.91667V4.25C6.91667 4.6625 7.22604 5 7.60417 5ZM7.375 10.3687C6.80208 9.9875 6.42109 9.4625 6.15182 8.6875C6.28073 8.10938 6.48411 7.23125 6.32943 6.68125C6.19479 5.7625 5.11484 5.85313 4.96016 6.46875C4.81693 7.04063 4.9487 7.84688 5.19219 8.875C4.8599 9.7375 4.37005 10.8937 4.02344 11.5562C4.02057 11.5562 4.02057 11.5594 4.01771 11.5594C3.24141 11.9937 1.90938 12.95 2.45651 13.6844C2.61693 13.9 2.91484 13.9969 3.0724 13.9969C3.58516 13.9969 4.09505 13.4344 4.82266 12.0656C5.56172 11.8 6.3724 11.4688 7.08568 11.3406C7.70729 11.7094 8.4349 11.95 8.91901 11.95C9.75547 11.95 9.81276 10.95 9.48333 10.5938C9.08516 10.1687 7.92786 10.2906 7.375 10.3687ZM11.2995 3.28125L8.49219 0.21875C8.36328 0.078125 8.18854 0 8.00521 0H7.83333V4H11.5V3.80938C11.5 3.6125 11.4284 3.42188 11.2995 3.28125ZM9.17682 11.2594C9.29427 11.175 9.10521 10.8875 7.95078 10.9781C9.01354 11.4719 9.17682 11.2594 9.17682 11.2594Z" fill="#72A3D0"/>
</svg>
