<svg width="22" height="24" viewBox="0 0 22 24" fill="none" xmlns="http://www.w3.org/2000/svg">
<path d="M17.417 11H11.917V5C11.917 4.73478 11.8204 4.48043 11.6485 4.29289C11.4766 4.10536 11.2434 4 11.0003 4C10.7572 4 10.5241 4.10536 10.3521 4.29289C10.1802 4.48043 10.0837 4.73478 10.0837 5V11H4.58366C4.34054 11 4.10739 11.1054 3.93548 11.2929C3.76357 11.4804 3.66699 11.7348 3.66699 12C3.66699 12.2652 3.76357 12.5196 3.93548 12.7071C4.10739 12.8946 4.34054 13 4.58366 13H10.0837V19C10.0837 19.2652 10.1802 19.5196 10.3521 19.7071C10.5241 19.8946 10.7572 20 11.0003 20C11.2434 20 11.4766 19.8946 11.6485 19.7071C11.8204 19.5196 11.917 19.2652 11.917 19V13H17.417C17.6601 13 17.8933 12.8946 18.0652 12.7071C18.2371 12.5196 18.3337 12.2652 18.3337 12C18.3337 11.7348 18.2371 11.4804 18.0652 11.2929C17.8933 11.1054 17.6601 11 17.417 11Z" fill="#387DE5"/>
</svg>
