<svg width="23" height="20" viewBox="0 0 23 20" fill="none" xmlns="http://www.w3.org/2000/svg">
<path d="M11.9107 10.9083C13.4294 10.9083 14.6606 12.1292 14.6606 13.6354L14.6592 14.9959C14.8478 18.3349 12.2545 20 7.4455 20C2.65202 20 0.00195312 18.3567 0.00195312 15.0436V13.6354C0.00195312 12.1292 1.23315 10.9083 2.7519 10.9083H11.9107ZM19.245 10.9083C20.7637 10.9083 21.9949 12.1292 21.9949 13.6354L21.9935 14.5927C22.1593 17.5879 19.8679 19.0895 15.6796 19.0895C15.111 19.0895 14.5765 19.062 14.0774 19.0071C15.0613 18.106 15.5877 16.8832 15.5859 15.3381L15.5744 14.9451L15.5773 13.6354C15.5773 12.5489 15.0968 11.5738 14.3351 10.9075L19.245 10.9083ZM7.33515 0C9.86682 0 11.9191 2.03525 11.9191 4.54586C11.9191 7.05646 9.86682 9.09171 7.33515 9.09171C4.80348 9.09171 2.75116 7.05646 2.75116 4.54586C2.75116 2.03525 4.80348 0 7.33515 0ZM16.5016 1.81805C18.5267 1.81805 20.1682 3.44598 20.1682 5.45414C20.1682 7.4623 18.5267 9.09024 16.5016 9.09024C14.4766 9.09024 12.835 7.4623 12.835 5.45414C12.835 3.44598 14.4766 1.81805 16.5016 1.81805Z" fill="#005375"/>
</svg>
