<svg width="46" height="46" viewBox="0 0 46 46" fill="none" xmlns="http://www.w3.org/2000/svg">
<g clip-path="url(#clip0_11757_55337)">
<mask id="mask0_11757_55337" style="mask-type:alpha" maskUnits="userSpaceOnUse" x="0" y="0" width="46" height="46">
<rect width="46" height="46" fill="#D9D9D9"/>
</mask>
<g mask="url(#mask0_11757_55337)">
<path d="M22.9948 26.8359C21.3976 26.8359 20.0399 26.2769 18.9219 25.1589C17.8038 24.0408 17.2448 22.6832 17.2448 21.0859V9.58594C17.2448 7.98872 17.8038 6.63108 18.9219 5.51302C20.0399 4.39497 21.3976 3.83594 22.9948 3.83594C24.592 3.83594 25.9497 4.39497 27.0677 5.51302C28.1858 6.63108 28.7448 7.98872 28.7448 9.58594V21.0859C28.7448 22.6832 28.1858 24.0408 27.0677 25.1589C25.9497 26.2769 24.592 26.8359 22.9948 26.8359ZM21.0781 40.2526V34.3589C17.7559 33.9116 15.0087 32.4262 12.8365 29.9026C10.6642 27.379 9.57812 24.4401 9.57812 21.0859H13.4115C13.4115 23.7373 14.3458 25.9974 16.2146 27.8661C18.0833 29.7349 20.3434 30.6693 22.9948 30.6693C25.6462 30.6693 27.9063 29.7349 29.775 27.8661C31.6438 25.9974 32.5781 23.7373 32.5781 21.0859H36.4115C36.4115 24.4401 35.3253 27.379 33.1531 29.9026C30.9809 32.4262 28.2337 33.9116 24.9115 34.3589V40.2526H21.0781ZM22.9948 23.0026C23.5378 23.0026 23.9931 22.8189 24.3604 22.4516C24.7278 22.0842 24.9115 21.629 24.9115 21.0859V9.58594C24.9115 9.04288 24.7278 8.58767 24.3604 8.22031C23.9931 7.85295 23.5378 7.66927 22.9948 7.66927C22.4517 7.66927 21.9965 7.85295 21.6292 8.22031C21.2618 8.58767 21.0781 9.04288 21.0781 9.58594V21.0859C21.0781 21.629 21.2618 22.0842 21.6292 22.4516C21.9965 22.8189 22.4517 23.0026 22.9948 23.0026Z" fill="white"/>
</g>
</g>
<defs>
<clipPath id="clip0_11757_55337">
<rect width="46" height="46" fill="white"/>
</clipPath>
</defs>
</svg>
