<svg xmlns="http://www.w3.org/2000/svg" width="16" height="16" viewBox="0 0 16 16" fill="none">
  <g clip-path="url(#clip0_30838_7774)">
    <path d="M8.00001 1.33339C8.88435 1.33629 9.75933 1.51455 10.5743 1.85785C11.3893 2.20115 12.1281 2.70267 12.748 3.33339H10V4.66673H13.4287C13.7569 4.66637 14.0716 4.53583 14.3037 4.30373C14.5358 4.07164 14.6663 3.75696 14.6667 3.42873V5.83856e-05H13.3333V2.05206C12.185 1.01796 10.7613 0.339162 9.23495 0.0979309C7.70856 -0.1433 6.14496 0.0633964 4.73368 0.692967C3.32241 1.32254 2.12404 2.34795 1.28384 3.64492C0.443639 4.94189 -0.00232278 6.45472 9.0982e-06 8.00006H1.33334C1.33528 6.23254 2.03829 4.53798 3.28811 3.28816C4.53793 2.03834 6.23249 1.33533 8.00001 1.33339Z" fill="#387DE5"/>
    <path d="M14.6673 8C14.6692 9.32356 14.2766 10.6177 13.5395 11.717C12.8025 12.8163 11.7544 13.671 10.5293 14.1719C9.30417 14.6728 7.95755 14.7971 6.66143 14.529C5.36531 14.2609 4.17852 13.6125 3.25265 12.6667H6.00065V11.3333H2.57198C2.24375 11.3337 1.92907 11.4642 1.69698 11.6963C1.46488 11.9284 1.33434 12.2431 1.33398 12.5713V16H2.66732V13.948C3.81567 14.9821 5.23932 15.6609 6.76571 15.9021C8.2921 16.1434 9.8557 15.9367 11.267 15.3071C12.6783 14.6775 13.8766 13.6521 14.7168 12.3551C15.557 11.0582 16.003 9.54533 16.0007 8H14.6673Z" fill="#387DE5"/>
  </g>
  <defs>
    <clipPath id="clip0_30838_7774">
      <rect width="16" height="16" fill="white"/>
    </clipPath>
  </defs>
</svg>