<svg width="91" height="91" viewBox="0 0 91 91" fill="none" xmlns="http://www.w3.org/2000/svg">
<g id="Alert">
<g id="Group 1707478896">
<circle id="Ellipse 1164" cx="46" cy="45" r="44" fill="#5CA044"/>
<g id="task">
<mask id="mask0_13446_232556" style="mask-type:alpha" maskUnits="userSpaceOnUse" x="16" y="15" width="60" height="60">
<rect id="Bounding box" x="16" y="15" width="60" height="60" fill="#D9D9D9"/>
</mask>
<g mask="url(#mask0_13446_232556)">
<path id="task_2" d="M43.3365 53.1971L39.3557 49.2163C39.1698 49.0304 38.967 48.891 38.7475 48.798C38.528 48.7051 38.302 48.6586 38.0696 48.6586C37.8373 48.6586 37.6009 48.7051 37.3605 48.798C37.1201 48.891 36.907 49.0304 36.7211 49.2163C36.3333 49.6041 36.1394 50.0496 36.1394 50.5528C36.1394 51.056 36.3333 51.5015 36.7211 51.8893L41.7932 56.9999C42.0272 57.2338 42.274 57.3989 42.5336 57.4951C42.7932 57.5912 43.0736 57.6393 43.3749 57.6393C43.6762 57.6393 43.9567 57.5912 44.2162 57.4951C44.4759 57.3989 44.7227 57.2338 44.9566 56.9999L55.2788 46.6778C55.6505 46.306 55.8404 45.8581 55.8484 45.3341C55.8565 44.81 55.6666 44.3541 55.2788 43.9663C54.891 43.5785 54.439 43.3846 53.923 43.3846C53.407 43.3846 52.9551 43.5785 52.5673 43.9663L43.3365 53.1971ZM31.7692 68.7499C30.5064 68.7499 29.4375 68.3124 28.5625 67.4374C27.6875 66.5624 27.25 65.4935 27.25 64.2306V25.7693C27.25 24.5064 27.6875 23.4375 28.5625 22.5625C29.4375 21.6875 30.5064 21.25 31.7692 21.25H49.7548C50.3574 21.25 50.9367 21.367 51.4928 21.601C52.0488 21.835 52.532 22.1571 52.9423 22.5673L63.4326 33.0576C63.8428 33.4679 64.1649 33.951 64.3989 34.5071C64.6329 35.0632 64.7499 35.6425 64.7499 36.2451V64.2306C64.7499 65.4935 64.3124 66.5624 63.4374 67.4374C62.5624 68.3124 61.4935 68.7499 60.2306 68.7499H31.7692ZM49.75 33.9903V24.9999H31.7692C31.5769 24.9999 31.4006 25.0801 31.2403 25.2403C31.0801 25.4006 30.9999 25.5769 30.9999 25.7693V64.2306C30.9999 64.423 31.0801 64.5993 31.2403 64.7596C31.4006 64.9198 31.5769 64.9999 31.7692 64.9999H60.2306C60.423 64.9999 60.5993 64.9198 60.7596 64.7596C60.9198 64.5993 60.9999 64.423 60.9999 64.2306V36.2499H52.0096C51.3654 36.2499 50.8278 36.0343 50.3967 35.6032C49.9656 35.1721 49.75 34.6345 49.75 33.9903Z" fill="white"/>
</g>
</g>
</g>
</g>
</svg>
