<svg width="21" height="20" viewBox="0 0 21 20" fill="none" xmlns="http://www.w3.org/2000/svg">
<g clip-path="url(#clip0_622_12340)">
<path d="M2.97168 9.375C3.4444 9.375 3.87225 9.18533 4.18842 8.88077L5.92288 9.74792C5.91418 9.81857 5.90137 9.888 5.90137 9.96094C5.90137 10.9302 6.68994 11.7188 7.65918 11.7188C8.62842 11.7188 9.41699 10.9302 9.41699 9.96094C9.41699 9.6904 9.35046 9.4371 9.24075 9.20792L11.5937 6.85501C11.8228 6.96472 12.0761 7.03125 12.3467 7.03125C13.3159 7.03125 14.1045 6.24268 14.1045 5.27344C14.1045 5.09094 14.0686 4.91837 14.0168 4.75281L16.0611 3.21991C16.3401 3.40622 16.6744 3.51562 17.0342 3.51562C18.0034 3.51562 18.792 2.72705 18.792 1.75781C18.792 0.788574 18.0034 0 17.0342 0C16.0649 0 15.2764 0.788574 15.2764 1.75781C15.2764 1.94031 15.3122 2.11288 15.3641 2.27844L13.3197 3.81134C13.0408 3.62503 12.7065 3.51562 12.3467 3.51562C11.3774 3.51562 10.5889 4.3042 10.5889 5.27344C10.5889 5.54398 10.6554 5.79727 10.7651 6.02646L8.4122 8.37936C8.18301 8.26965 7.92972 8.20312 7.65918 8.20312C7.18646 8.20312 6.75861 8.39279 6.44244 8.69736L4.70798 7.8302C4.71667 7.75955 4.72949 7.69012 4.72949 7.61719C4.72949 6.64795 3.94092 5.85938 2.97168 5.85938C2.00244 5.85938 1.21387 6.64795 1.21387 7.61719C1.21387 8.58643 2.00244 9.375 2.97168 9.375Z" fill="#005375"/>
<path d="M19.417 18.8281H18.792V6.44531C18.792 6.12152 18.5298 5.85938 18.2061 5.85938H15.8623C15.5385 5.85938 15.2764 6.12152 15.2764 6.44531V18.8281H14.1045V9.96094C14.1045 9.63715 13.8423 9.375 13.5186 9.375H11.1748C10.851 9.375 10.5889 9.63715 10.5889 9.96094V18.8281H9.41699V14.6484C9.41699 14.3246 9.15485 14.0625 8.83105 14.0625H6.4873C6.16351 14.0625 5.90137 14.3246 5.90137 14.6484V18.8281H4.72949V12.3047C4.72949 11.9809 4.46735 11.7188 4.14355 11.7188H1.7998C1.47601 11.7188 1.21387 11.9809 1.21387 12.3047V18.8281H0.588867C0.265076 18.8281 0.00292969 19.0903 0.00292969 19.4141C0.00292969 19.7379 0.265076 20 0.588867 20H19.417C19.7408 20 20.0029 19.7379 20.0029 19.4141C20.0029 19.0903 19.7408 18.8281 19.417 18.8281Z" fill="#005375"/>
</g>
<defs>
<clipPath id="clip0_622_12340">
<rect width="20" height="20" fill="white" transform="translate(0.00292969)"/>
</clipPath>
</defs>
</svg>
