<svg width="91" height="91" viewBox="0 0 91 91" fill="none" xmlns="http://www.w3.org/2000/svg">
<g id="5402431_done_success_tick_valid_approve_icon 1" clip-path="url(#clip0_21951_62045)">
<path id="Vector" d="M46.0011 1.04688C37.2888 1.04687 28.7722 3.63036 21.5283 8.47062C14.2843 13.3109 8.63832 20.1905 5.30429 28.2396C1.97026 36.2887 1.09792 45.1456 2.7976 53.6905C4.49727 62.2353 8.69262 70.0843 14.8531 76.2448C21.0136 82.4052 28.8625 86.6006 37.4074 88.3003C45.9522 89.9999 54.8092 89.1276 62.8582 85.7936C70.9073 82.4595 77.787 76.8136 82.6272 69.5696C87.4675 62.3256 90.051 53.809 90.051 45.0968C90.051 39.3121 88.9116 33.584 86.6979 28.2396C84.4842 22.8952 81.2395 18.0392 77.1491 13.9488C73.0586 9.85838 68.2026 6.61369 62.8582 4.39997C57.5139 2.18626 51.7858 1.04688 46.0011 1.04688ZM66.7486 35.0093L44.7236 57.0343C44.3141 57.4472 43.8269 57.7749 43.2902 57.9985C42.7534 58.2221 42.1776 58.3373 41.5961 58.3373C41.0146 58.3373 40.4388 58.2221 39.902 57.9985C39.3652 57.7749 38.8781 57.4472 38.4686 57.0343L29.6586 48.2243C28.8291 47.3948 28.3631 46.2698 28.3631 45.0968C28.3631 43.9237 28.8291 42.7987 29.6586 41.9692C30.488 41.1398 31.6131 40.6738 32.7861 40.6738C33.9592 40.6738 35.0842 41.1398 35.9137 41.9692L41.5961 47.6957L60.4935 28.7543C61.323 27.9248 62.448 27.4588 63.621 27.4588C64.7941 27.4588 65.9191 27.9248 66.7486 28.7543C67.5781 29.5837 68.0441 30.7087 68.0441 31.8818C68.0441 33.0549 67.5781 34.1799 66.7486 35.0093Z" fill="#5CA044"/>
</g>
<defs>
<clipPath id="clip0_21951_62045">
<rect width="89.443" height="89.443" fill="white" transform="translate(0.730469 0.710938)"/>
</clipPath>
</defs>
</svg>
