<svg width="22" height="24" viewBox="0 0 22 24" fill="none" xmlns="http://www.w3.org/2000/svg">
<path d="M2.33938 24C1.69398 24 1.14274 23.7769 0.685658 23.3307C0.228552 22.8846 0 22.3465 0 21.7166V4.80974C0 4.17978 0.228552 3.64173 0.685658 3.19558C1.14274 2.74941 1.69398 2.52632 2.33938 2.52632H8.09822C8.17951 1.82512 8.49308 1.22877 9.03892 0.737277C9.58478 0.24576 10.2385 0 11 0C11.7698 0 12.4277 0.24576 12.9735 0.737277C13.5194 1.22877 13.8288 1.82512 13.9018 2.52632H19.6606C20.306 2.52632 20.8573 2.74941 21.3143 3.19558C21.7714 3.64173 22 4.17978 22 4.80974V21.7166C22 22.3465 21.7714 22.8846 21.3143 23.3307C20.8573 23.7769 20.306 24 19.6606 24H2.33938ZM2.33938 22.1053H19.6606C19.7602 22.1053 19.8514 22.0648 19.9344 21.9838C20.0174 21.9028 20.0588 21.8138 20.0588 21.7166V4.80974C20.0588 4.71256 20.0174 4.62348 19.9344 4.54249C19.8514 4.46152 19.7602 4.42103 19.6606 4.42103H2.33938C2.23982 4.42103 2.14855 4.46152 2.06558 4.54249C1.98263 4.62348 1.94115 4.71256 1.94115 4.80974V21.7166C1.94115 21.8138 1.98263 21.9028 2.06558 21.9838C2.14855 22.0648 2.23982 22.1053 2.33938 22.1053ZM4.85295 19.1174H13.2647V17.2227H4.85295V19.1174ZM4.85295 14.2105H17.147V12.3158H4.85295V14.2105ZM4.85295 9.30363H17.147V7.40892H4.85295V9.30363ZM11 3.59512C11.2804 3.59512 11.5123 3.50564 11.6956 3.32669C11.8789 3.14775 11.9706 2.92143 11.9706 2.64774C11.9706 2.37406 11.8789 2.14774 11.6956 1.9688C11.5123 1.78985 11.2804 1.70037 11 1.70037C10.7196 1.70037 10.4877 1.78985 10.3044 1.9688C10.1211 2.14774 10.0294 2.37406 10.0294 2.64774C10.0294 2.92143 10.1211 3.14775 10.3044 3.32669C10.4877 3.50564 10.7196 3.59512 11 3.59512Z" fill="white"/>
</svg>
