<svg width="56" height="56" viewBox="0 0 56 56" fill="none" xmlns="http://www.w3.org/2000/svg">
<rect x="0.5" y="0.5" width="55" height="55" rx="7.5" stroke="#387DE5"/>
<mask id="mask0_11121_23702" style="mask-type:alpha" maskUnits="userSpaceOnUse" x="16" y="16" width="24" height="24">
<rect x="16" y="16" width="24" height="24" fill="#D9D9D9"/>
</mask>
<g mask="url(#mask0_11121_23702)">
<path d="M33.8846 25.7295L32.8 24.6757L34.65 22.8257H29.1346V21.3257H34.65L32.8307 19.5065L33.8846 18.4219L37.5384 22.1065L33.8846 25.7295ZM35.4403 36.4987C33.5557 36.4987 31.6625 36.0606 29.7605 35.1843C27.8586 34.308 26.1096 33.0718 24.5135 31.4757C22.9237 29.8795 21.6907 28.1321 20.8144 26.2334C19.9381 24.3347 19.5 22.443 19.5 20.5584C19.5 20.2584 19.6 20.0068 19.8 19.8036C20 19.6004 20.25 19.4988 20.55 19.4988H23.8115C24.0641 19.4988 24.2868 19.5812 24.4798 19.7459C24.6727 19.9107 24.7955 20.1142 24.848 20.3565L25.4211 23.2988C25.4609 23.5719 25.4525 23.8065 25.3961 24.0026C25.3397 24.1988 25.2384 24.3635 25.0923 24.4968L22.7826 26.7449C23.1544 27.4257 23.5791 28.0696 24.0567 28.6767C24.5343 29.2837 25.0513 29.8635 25.6077 30.4161C26.1564 30.9648 26.7397 31.4744 27.3577 31.9449C27.9756 32.4155 28.6429 32.8533 29.3596 33.2584L31.6038 30.9949C31.7602 30.8321 31.9497 30.718 32.1721 30.6526C32.3945 30.5873 32.6256 30.5712 32.8654 30.6046L35.6422 31.1699C35.8948 31.2366 36.1009 31.3655 36.2605 31.5565C36.4201 31.7475 36.5 31.9642 36.5 32.2065V35.4487C36.5 35.7487 36.3983 35.9987 36.1951 36.1987C35.9919 36.3988 35.7403 36.4987 35.4403 36.4987ZM22.0731 25.3257L23.8577 23.618C23.8897 23.5924 23.9106 23.5571 23.9202 23.5122C23.9298 23.4674 23.9282 23.4257 23.9154 23.3872L23.4807 21.1526C23.4679 21.1013 23.4455 21.0629 23.4135 21.0372C23.3814 21.0116 23.3397 20.9988 23.2885 20.9988H21.15C21.1115 20.9988 21.0795 21.0116 21.0538 21.0372C21.0282 21.0629 21.0153 21.0949 21.0153 21.1334C21.0666 21.8167 21.1785 22.511 21.3509 23.2161C21.5234 23.9212 21.7641 24.6244 22.0731 25.3257ZM30.773 33.968C31.4359 34.277 32.1272 34.5132 32.8471 34.6767C33.567 34.8401 34.2397 34.9372 34.8654 34.968C34.9038 34.968 34.9359 34.9552 34.9615 34.9296C34.9871 34.9039 35 34.8718 35 34.8334V32.7296C35 32.6783 34.9871 32.6366 34.9615 32.6045C34.9359 32.5725 34.8974 32.55 34.8461 32.5372L32.7461 32.1103C32.7077 32.0975 32.674 32.0959 32.6452 32.1055C32.6163 32.1151 32.5859 32.1359 32.5538 32.168L30.773 33.968Z" fill="#387DE5"/>
</g>
</svg>
