<svg width="91" height="91" viewBox="0 0 91 91" xmlns="http://www.w3.org/2000/svg">
  <!-- Remove the background rect element -->
  
  <!-- Unlock Account Group -->
  <g id="Unlock_Account">
    <!-- Popup Group -->
    <g id="Popup" filter="url(#filter0_d_1620_87048)">
      <!-- Remove the white background rect element -->
      
      <!-- Circle Element -->
      <circle id="Ellipse_1163" cx="45.5" cy="45.5" r="45.5" fill="#FFBF42" />

      <!-- Alert Group -->
      <g id="Alert">
        <g id="Group_1707478896">
          <!-- Remove the circle element and its contents -->
          
          <!-- lock_open Path -->
          <path id="lock_open_2" d="M36.5128 60.8358C35.6816 60.8358 34.9717 60.5414 34.383 59.9527C33.7943 59.3641 33.5 58.6541 33.5 57.8229V42.182C33.5 41.3508 33.7943 40.6409 34.383 40.0522C34.9717 39.4635 35.6816 39.1692 36.5128 39.1692H51V35.8359C51 34.447 50.5138 33.2664 49.5416 32.2942C48.5694 31.322 47.3888 30.8359 46 30.8359C44.7905 30.8359 43.735 31.2167 42.8333 31.9785C41.9316 32.7403 41.36 33.6863 41.1185 34.8166C41.0395 35.1201 40.8718 35.3658 40.6153 35.5538C40.3589 35.7418 40.0705 35.8359 39.75 35.8359C39.3953 35.8359 39.0983 35.7178 38.859 35.4817C38.6197 35.2456 38.531 34.9673 38.593 34.6468C38.8857 32.8583 39.7265 31.3594 41.1154 30.15C42.5043 28.9406 44.1325 28.3359 46 28.3359C48.0811 28.3359 49.8514 29.0656 51.3108 30.525C52.7702 31.9844 53.4999 33.7547 53.4999 35.8359V39.1692H55.4871C56.3183 39.1692 57.0282 39.4635 57.6169 40.0522C58.2056 40.6409 58.4999 41.3508 58.4999 42.182V57.8229C58.4999 58.6541 58.2056 59.3641 57.6169 59.9527C57.0282 60.5414 56.3183 60.8358 55.4871 60.8358H36.5128ZM36.5128 58.3358H55.4871C55.6367 58.3358 55.7595 58.2877 55.8557 58.1916C55.9519 58.0954 56 57.9725 56 57.8229V42.182C56 42.0324 55.9519 41.9096 55.8557 41.8134C55.7595 41.7172 55.6367 41.6691 55.4871 41.6691H36.5128C36.3633 41.6691 36.2404 41.7172 36.1442 41.8134C36.048 41.9096 36 42.0324 36 42.182V57.8229C36 57.9725 36.048 58.0954 36.1442 58.1916C36.2404 58.2877 36.3633 58.3358 36.5128 58.3358ZM46 52.9191C46.8098 52.9191 47.4983 52.6355 48.0656 52.0681C48.6329 51.5009 48.9166 50.8123 48.9166 50.0025C48.9166 49.1926 48.6329 48.5041 48.0656 47.9368C47.4983 47.3695 46.8098 47.0859 46 47.0859C45.1901 47.0859 44.5016 47.3695 43.9343 47.9368C43.367 48.5041 43.0833 49.1926 43.0833 50.0025C43.0833 50.8123 43.367 51.5009 43.9343 52.0681C44.5016 52.6355 45.1901 52.9191 46 52.9191Z" fill="white" />
        </g>
      </g>
    </g>
  </g>
  
  <!-- Definitions -->
  <defs>
    <!-- Remove the filter definition -->
  </defs>
</svg>
