<svg width="96" height="97" viewBox="0 0 96 97" fill="none" xmlns="http://www.w3.org/2000/svg">
<g clip-path="url(#clip0_5371_193441)">
<circle cx="48.0003" cy="48.4983" r="47.7717" fill="#EDF4FF"/>
<mask id="mask0_5371_193441" style="mask-type:alpha" maskUnits="userSpaceOnUse" x="22" y="23" width="52" height="50">
<rect x="22" y="23" width="52" height="50" fill="#D9D9D9"/>
</mask>
<g mask="url(#mask0_5371_193441)">
<path d="M45.833 58.4141H50.1663V45.9141H45.833V58.4141ZM47.9997 41.7474C48.6136 41.7474 49.1281 41.5477 49.5434 41.1484C49.9587 40.7491 50.1663 40.2543 50.1663 39.6641C50.1663 39.0738 49.9587 38.579 49.5434 38.1797C49.1281 37.7804 48.6136 37.5807 47.9997 37.5807C47.3858 37.5807 46.8712 37.7804 46.4559 38.1797C46.0406 38.579 45.833 39.0738 45.833 39.6641C45.833 40.2543 46.0406 40.7491 46.4559 41.1484C46.8712 41.5477 47.3858 41.7474 47.9997 41.7474ZM47.9997 68.8307C45.0025 68.8307 42.1858 68.2839 39.5497 67.1901C36.9136 66.0964 34.6205 64.612 32.6705 62.737C30.7205 60.862 29.1768 58.6571 28.0393 56.1224C26.9018 53.5877 26.333 50.8793 26.333 47.9974C26.333 45.1155 26.9018 42.4071 28.0393 39.8724C29.1768 37.3377 30.7205 35.1328 32.6705 33.2578C34.6205 31.3828 36.9136 29.8984 39.5497 28.8047C42.1858 27.7109 45.0025 27.1641 47.9997 27.1641C50.9969 27.1641 53.8136 27.7109 56.4497 28.8047C59.0858 29.8984 61.3788 31.3828 63.3288 33.2578C65.2788 35.1328 66.8226 37.3377 67.9601 39.8724C69.0976 42.4071 69.6663 45.1155 69.6663 47.9974C69.6663 50.8793 69.0976 53.5877 67.9601 56.1224C66.8226 58.6571 65.2788 60.862 63.3288 62.737C61.3788 64.612 59.0858 66.0964 56.4497 67.1901C53.8136 68.2839 50.9969 68.8307 47.9997 68.8307ZM47.9997 64.6641C52.8386 64.6641 56.9372 63.0495 60.2955 59.8203C63.6538 56.5911 65.333 52.6502 65.333 47.9974C65.333 43.3446 63.6538 39.4036 60.2955 36.1745C56.9372 32.9453 52.8386 31.3307 47.9997 31.3307C43.1608 31.3307 39.0622 32.9453 35.7038 36.1745C32.3455 39.4036 30.6663 43.3446 30.6663 47.9974C30.6663 52.6502 32.3455 56.5911 35.7038 59.8203C39.0622 63.0495 43.1608 64.6641 47.9997 64.6641Z" fill="#387DE5"/>
</g>
</g>
<defs>
<clipPath id="clip0_5371_193441">
<rect width="95.5435" height="95.5435" fill="white" transform="translate(0.228516 0.726562)"/>
</clipPath>
</defs>
</svg>
