

<svg width="110" height="110" viewBox="0 0 110 110" fill="none" xmlns="http://www.w3.org/2000/svg">
<circle cx="55" cy="55" r="55" fill="white"/>
<g clip-path="url(#clip0_4789_152109)">
<circle cx="54.7717" cy="54.7717" r="47.7717" fill="#EDF4FF"/>
</g>
<mask id="mask0_4789_152109" style="mask-type:alpha" maskUnits="userSpaceOnUse" x="30" y="30" width="50" height="50">
<rect x="30" y="30" width="50" height="50" fill="#D9D9D9"/>
</mask>
<g mask="url(#mask0_4789_152109)">
<path d="M63.4541 50.8307C63.0112 50.8307 62.6402 50.6809 62.341 50.3815C62.0419 50.082 61.8923 49.7109 61.8923 49.2682V38.8516C61.8923 38.4089 62.0421 38.0378 62.3417 37.7383C62.6413 37.4388 63.0126 37.2891 63.4555 37.2891C63.8984 37.2891 64.2694 37.4388 64.5685 37.7383C64.8677 38.0378 65.0172 38.4089 65.0172 38.8516V49.2682C65.0172 49.7109 64.8674 50.082 64.5678 50.3815C64.2682 50.6809 63.897 50.8307 63.4541 50.8307ZM71.1464 50.8307C70.7034 50.8307 70.3324 50.6809 70.0333 50.3815C69.7342 50.082 69.5846 49.7109 69.5846 49.2682V38.8516C69.5846 38.4089 69.7344 38.0378 70.034 37.7383C70.3336 37.4388 70.7048 37.2891 71.1478 37.2891C71.5906 37.2891 71.9617 37.4388 72.2608 37.7383C72.56 38.0378 72.7095 38.4089 72.7095 38.8516V49.2682C72.7095 49.7109 72.5597 50.082 72.2601 50.3815C71.9605 50.6809 71.5892 50.8307 71.1464 50.8307ZM70.502 72.7056C66.5757 72.7056 62.6314 71.7928 58.6691 69.9672C54.7068 68.1417 51.0663 65.5662 47.7477 62.2409C44.4291 58.9156 41.8569 55.2751 40.0314 51.3195C38.2058 47.3638 37.293 43.4229 37.293 39.4966C37.293 38.8659 37.5013 38.3403 37.918 37.9198C38.3346 37.4993 38.8555 37.2891 39.4805 37.2891H46.2753C46.8014 37.2891 47.2655 37.4607 47.6675 37.8039C48.0695 38.1471 48.3252 38.5711 48.4347 39.0759L49.6286 45.2057C49.7114 45.7746 49.694 46.2634 49.5765 46.672C49.459 47.0807 49.248 47.4239 48.9435 47.7017L44.1318 52.3852C44.9064 53.8034 45.7912 55.1449 46.7861 56.4096C47.781 57.6743 48.8581 58.8823 50.0172 60.0334C51.1604 61.1766 52.3757 62.2383 53.6631 63.2185C54.9505 64.1988 56.3407 65.1109 57.8338 65.9549L62.5093 61.2394C62.8351 60.9002 63.2298 60.6625 63.6932 60.5263C64.1566 60.39 64.638 60.3567 65.1375 60.4261L70.9227 61.604C71.4488 61.7429 71.8782 62.0113 72.2107 62.4092C72.5433 62.8072 72.7095 63.2586 72.7095 63.7634V70.5181C72.7095 71.1431 72.4993 71.664 72.0788 72.0806C71.6583 72.4973 71.1327 72.7056 70.502 72.7056ZM42.6535 49.4285L46.3715 45.8708C46.4382 45.8173 46.4816 45.7439 46.5017 45.6504C46.5217 45.5569 46.5184 45.4701 46.4917 45.39L45.5862 40.7345C45.5595 40.6277 45.5128 40.5476 45.446 40.4942C45.3792 40.4407 45.2924 40.414 45.1856 40.414H40.7304C40.6503 40.414 40.5835 40.4407 40.5301 40.4942C40.4767 40.5476 40.4499 40.6143 40.4499 40.6945C40.5568 42.1181 40.7898 43.5644 41.1491 45.0334C41.5083 46.5025 42.0098 47.9675 42.6535 49.4285ZM60.7784 67.4332C62.1593 68.0769 63.5997 68.5691 65.0994 68.9096C66.5991 69.2502 68.0007 69.4525 69.3041 69.5166C69.3843 69.5166 69.451 69.4899 69.5044 69.4365C69.5579 69.383 69.5846 69.3162 69.5846 69.2361V64.8531C69.5846 64.7463 69.5579 64.6595 69.5044 64.5927C69.451 64.5259 69.3709 64.4792 69.2641 64.4525L64.8891 63.563C64.809 63.5363 64.7389 63.533 64.6788 63.553C64.6187 63.5731 64.5552 63.6165 64.4884 63.6832L60.7784 67.4332Z" fill="#387DE5"/>
</g>
<defs>
<clipPath id="clip0_4789_152109">
<rect width="95.5435" height="95.5435" fill="white" transform="translate(7 7)"/>
</clipPath>
</defs>
</svg>
