<svg width="110" height="110" viewBox="0 0 110 110" fill="none" xmlns="http://www.w3.org/2000/svg"> <circle cx="55" cy="55" r="55" fill="white"/> <g clip-path="url(#clip0_12064_31199)"> <circle cx="54.7717" cy="54.7717" r="47.7717" fill="#EDF4FF"/> </g> <mask id="mask0_12064_31199" style="mask-type:alpha" maskUnits="userSpaceOnUse" x="30" y="30" width="50" height="50"> <rect x="30" y="30" width="50" height="50" fill="#D9D9D9"/> </mask> <g mask="url(#mask0_12064_31199)"> <path d="M70.5059 72.7056C66.5796 72.7056 62.6353 71.7928 58.673 69.9672C54.7107 68.1417 51.0702 65.5662 47.7516 62.2409C44.433 58.9156 41.8609 55.2751 40.0353 51.3195C38.2097 47.3638 37.2969 43.4229 37.2969 39.4966C37.2969 38.8659 37.5052 38.3403 37.9219 37.9198C38.3385 37.4993 38.8594 37.2891 39.4844 37.2891H46.2792C46.8053 37.2891 47.2694 37.4607 47.6714 37.8039C48.0734 38.1471 48.3291 38.5711 48.4386 39.0759L49.6325 45.2057C49.7153 45.7746 49.698 46.2634 49.5804 46.672C49.4629 47.0807 49.2519 47.4239 48.9474 47.7017L44.1357 52.3852C44.9103 53.8034 45.7951 55.1449 46.79 56.4096C47.7849 57.6743 48.862 58.8823 50.0211 60.0334C51.1643 61.1766 52.3796 62.2383 53.667 63.2185C54.9544 64.1988 56.3447 65.1109 57.8377 65.9549L62.5132 61.2394C62.839 60.9002 63.2337 60.6625 63.6971 60.5263C64.1605 60.39 64.6419 60.3567 65.1414 60.4261L70.9266 61.604C71.4527 61.7429 71.8821 62.0113 72.2146 62.4092C72.5472 62.8072 72.7134 63.2586 72.7134 63.7634V70.5181C72.7134 71.1431 72.5032 71.664 72.0827 72.0806C71.6622 72.4973 71.1366 72.7056 70.5059 72.7056ZM42.6574 49.4285L46.3754 45.8708C46.4421 45.8173 46.4855 45.7439 46.5056 45.6504C46.5256 45.5569 46.5223 45.4701 46.4956 45.39L45.5901 40.7345C45.5634 40.6277 45.5167 40.5476 45.4499 40.4942C45.3831 40.4407 45.2963 40.414 45.1895 40.414H40.7343C40.6542 40.414 40.5874 40.4407 40.534 40.4942C40.4806 40.5476 40.4539 40.6143 40.4539 40.6945C40.5607 42.1181 40.7937 43.5644 41.153 45.0334C41.5122 46.5025 42.0137 47.9675 42.6574 49.4285ZM60.7823 67.4332C62.1632 68.0769 63.6036 68.5691 65.1033 68.9096C66.603 69.2502 68.0046 69.4525 69.308 69.5166C69.3882 69.5166 69.4549 69.4899 69.5083 69.4365C69.5618 69.383 69.5885 69.3162 69.5885 69.2361V64.8531C69.5885 64.7463 69.5618 64.6595 69.5083 64.5927C69.4549 64.5259 69.3748 64.4792 69.268 64.4525L64.893 63.563C64.8129 63.5363 64.7428 63.533 64.6827 63.553C64.6226 63.5731 64.5591 63.6165 64.4923 63.6832L60.7823 67.4332Z" fill="#387DE5"/> </g> <defs> <clipPath id="clip0_12064_31199"> <rect width="95.5435" height="95.5435" fill="white" transform="translate(7 7)"/> </clipPath> </defs> </svg>
