<svg width="25" height="24" viewBox="0 0 25 24" fill="none" xmlns="http://www.w3.org/2000/svg">
<g clip-path="url(#clip0_1948_6814)">
<path d="M23.7588 16.1999L21.1588 6.82893C20.6036 4.82435 19.3938 3.06307 17.7221 1.82542C16.0503 0.587761 14.0126 -0.055148 11.9333 -0.000988358C9.85392 0.0531713 7.85245 0.801287 6.24738 2.12429C4.64231 3.4473 3.52588 5.26916 3.07579 7.29993L1.06479 16.3499C0.967486 16.7884 0.96986 17.2431 1.07174 17.6805C1.17362 18.1179 1.3724 18.5268 1.65343 18.8771C1.93445 19.2275 2.29055 19.5102 2.69544 19.7045C3.10033 19.8989 3.54368 19.9998 3.99279 19.9999H7.59979C7.82931 21.1302 8.44252 22.1464 9.33554 22.8763C10.2285 23.6062 11.3464 24.0049 12.4998 24.0049C13.6531 24.0049 14.771 23.6062 15.6641 22.8763C16.5571 22.1464 17.1703 21.1302 17.3998 19.9999H20.8698C21.3319 19.9997 21.7877 19.8928 22.2017 19.6874C22.6156 19.482 22.9766 19.1838 23.2563 18.816C23.536 18.4482 23.727 18.0207 23.8144 17.5669C23.9017 17.1131 23.883 16.6453 23.7598 16.1999H23.7588ZM12.4998 21.9999C11.8815 21.9974 11.2792 21.8038 10.7751 21.4458C10.271 21.0878 9.88988 20.5828 9.68379 19.9999H15.3158C15.1097 20.5828 14.7286 21.0878 14.2245 21.4458C13.7204 21.8038 13.1181 21.9974 12.4998 21.9999ZM21.6648 17.6049C21.5715 17.7286 21.4506 17.8288 21.3117 17.8973C21.1727 17.9659 21.0197 18.0011 20.8648 17.9999H3.99279C3.84305 17.9999 3.69523 17.9663 3.56024 17.9015C3.42525 17.8367 3.30653 17.7424 3.21285 17.6256C3.11917 17.5087 3.05291 17.3724 3.01898 17.2265C2.98505 17.0807 2.9843 16.9291 3.01679 16.7829L5.02779 7.73293C5.38215 6.13914 6.2591 4.70953 7.51925 3.67138C8.7794 2.63322 10.3504 2.0461 11.9826 2.00334C13.6147 1.96058 15.2143 2.46465 16.5271 3.4354C17.8399 4.40615 18.7905 5.78787 19.2278 7.36093L21.8278 16.7319C21.8702 16.8801 21.8776 17.0361 21.8493 17.1877C21.821 17.3392 21.7579 17.482 21.6648 17.6049Z" fill="white"/>
</g>
<defs>
<clipPath id="clip0_1948_6814">
<rect width="24" height="24" fill="white" transform="translate(0.5)"/>
</clipPath>
</defs>
</svg>
