<svg width="110" height="110" viewBox="0 0 110 110" fill="none" xmlns="http://www.w3.org/2000/svg">
<circle cx="55" cy="55" r="55" fill="white"/>
<g clip-path="url(#clip0_17221_13916)">
<circle cx="54.7717" cy="54.7717" r="47.7717" fill="#EDF4FF"/>
</g>
<mask id="mask0_17221_13916" style="mask-type:alpha" maskUnits="userSpaceOnUse" x="29" y="29" width="51" height="51">
<rect x="29.5" y="29.9922" width="50" height="50" fill="#D9D9D9"/>
</mask>
<g mask="url(#mask0_17221_13916)">
<path d="M66.7647 50.2633L64.5052 48.0679L68.3594 44.2136H56.869V41.0887H68.3594L64.5693 37.2986L66.7647 35.0391L74.3769 42.7153L66.7647 50.2633ZM70.0059 72.6992C66.0796 72.6992 62.1353 71.7864 58.173 69.9608C54.2107 68.1352 50.5669 65.5598 47.2416 62.2345C43.9296 58.9092 41.3609 55.2687 39.5353 51.3131C37.7097 47.3574 36.7969 43.4165 36.7969 39.4902C36.7969 38.8652 37.0052 38.341 37.4219 37.9177C37.8385 37.4943 38.3594 37.2827 38.9844 37.2827H45.7792C46.3053 37.2827 46.7694 37.4543 47.1714 37.7975C47.5734 38.1407 47.8291 38.5647 47.9386 39.0695L49.1325 45.1993C49.2153 45.7682 49.198 46.257 49.0804 46.6656C48.9629 47.0743 48.7519 47.4175 48.4474 47.6953L43.6357 52.3787C44.4103 53.797 45.2951 55.1385 46.29 56.4032C47.2849 57.6679 48.362 58.8758 49.5211 60.027C50.6643 61.1702 51.8796 62.2319 53.167 63.2121C54.4544 64.1924 55.8447 65.1045 57.3377 65.9485L62.0132 61.233C62.339 60.8938 62.7337 60.6561 63.1971 60.5198C63.6605 60.3836 64.1419 60.3502 64.6414 60.4197L70.4266 61.5975C70.9527 61.7364 71.3821 62.0049 71.7146 62.4028C72.0472 62.8008 72.2134 63.2522 72.2134 63.757V70.5117C72.2134 71.1367 72.0018 71.6576 71.5784 72.0742C71.1551 72.4909 70.6309 72.6992 70.0059 72.6992ZM42.1574 49.4221L45.8754 45.8644C45.9421 45.8109 45.9855 45.7375 46.0056 45.644C46.0256 45.5505 46.0223 45.4637 45.9956 45.3836L45.0901 40.7281C45.0634 40.6213 45.0167 40.5412 44.9499 40.4878C44.8831 40.4343 44.7963 40.4076 44.6895 40.4076H40.2343C40.1542 40.4076 40.0874 40.4343 40.034 40.4878C39.9806 40.5412 39.9539 40.6079 39.9539 40.6881C40.0607 42.1117 40.2937 43.558 40.653 45.027C41.0122 46.4961 41.5137 47.9611 42.1574 49.4221ZM60.2823 67.4268C61.6632 68.0705 63.1036 68.5627 64.6033 68.9032C66.103 69.2438 67.5046 69.4461 68.808 69.5102C68.8882 69.5102 68.9549 69.4835 69.0083 69.43C69.0618 69.3766 69.0885 69.3098 69.0885 69.2297V64.8467C69.0885 64.7399 69.0618 64.6531 69.0083 64.5863C68.9549 64.5195 68.8748 64.4727 68.768 64.446L64.393 63.5566C64.3129 63.5299 64.2428 63.5266 64.1827 63.5466C64.1226 63.5666 64.0591 63.6101 63.9923 63.6768L60.2823 67.4268Z" fill="#387DE5"/>
</g>
<defs>
<clipPath id="clip0_17221_13916">
<rect width="95.5435" height="95.5435" fill="white" transform="translate(7 7)"/>
</clipPath>
</defs>
</svg>
