<svg width="40" height="40" viewBox="0 0 40 40" fill="none" xmlns="http://www.w3.org/2000/svg">
<mask id="mask0_51387_174731" style="mask-type:alpha" maskUnits="userSpaceOnUse" x="0" y="0" width="40" height="40">
<rect width="39.2727" height="40" fill="#FFBF42"/>
</mask>
<g mask="url(#mask0_51387_174731)">
<path d="M2.80689 36C2.46702 36 2.16179 35.9176 1.8912 35.7528C1.62061 35.5881 1.41015 35.3709 1.25983 35.1014C1.10347 34.8337 1.01746 34.5437 1.00182 34.2314C0.986183 33.9192 1.07115 33.6099 1.25673 33.3036L18.4222 3.89921C18.6077 3.59293 18.84 3.3665 19.1189 3.21992C19.3978 3.07331 19.6915 3 20 3C20.3085 3 20.6022 3.07331 20.8811 3.21992C21.16 3.3665 21.3923 3.59293 21.5778 3.89921L38.7433 33.3036C38.9288 33.6099 39.0138 33.9192 38.9982 34.2314C38.9825 34.5437 38.8965 34.8337 38.7402 35.1014C38.5898 35.3709 38.3794 35.5881 38.1088 35.7528C37.8382 35.9176 37.533 36 37.1931 36H2.80689ZM4.86125 33.0174H35.1387L20 7.16793L4.86125 33.0174ZM20 30.6466C20.4589 30.6466 20.8435 30.4927 21.1539 30.1849C21.4643 29.8771 21.6195 29.4956 21.6195 29.0406C21.6195 28.5855 21.4643 28.2041 21.1539 27.8963C20.8435 27.5885 20.4589 27.4346 20 27.4346C19.5411 27.4346 19.1565 27.5885 18.8461 27.8963C18.5357 28.2041 18.3805 28.5855 18.3805 29.0406C18.3805 29.4956 18.5357 29.8771 18.8461 30.1849C19.1565 30.4927 19.5411 30.6466 20 30.6466ZM20.0007 25.4461C20.4269 25.4461 20.784 25.3032 21.0719 25.0174C21.3598 24.7316 21.5038 24.3774 21.5038 23.9549V16.9953C21.5038 16.5728 21.3596 16.2186 21.0713 15.9328C20.7829 15.647 20.4256 15.504 19.9993 15.504C19.5731 15.504 19.216 15.647 18.9281 15.9328C18.6402 16.2186 18.4962 16.5728 18.4962 16.9953V23.9549C18.4962 24.3774 18.6404 24.7316 18.9287 25.0174C19.2171 25.3032 19.5744 25.4461 20.0007 25.4461Z" fill="#FFBF42"/>
</g>
</svg>
